<?xml version="1.0" encoding="UTF-8" standalone="no"?>
<svg xmlns="http://www.w3.org/2000/svg"
     xmlns:xlink="http://www.w3.org/1999/xlink"
     width="576px" height="432px" viewBox="0 0 576 432">
<title>gl2ps_renderer figure</title>
<desc>
Creator: GL2PS 1.4.0, (C) 1999-2017 C. Geuzaine
For: Octave
CreationDate: Wed Nov  8 11:55:06 2017
</desc>
<defs>
</defs>
<polygon fill="#ffffff" points="0,0 576,0 576,432 0,432"/>
<g>
<polygon fill="#ffffff" points="0,432 576,432 576,0 0,0" shape-rendering="crispEdges"/>
<clipPath id="cp00576432">
  <polygon points="0,432 576,432 576,0 0,0"/>
</clipPath>
<g clip-path="url(#cp00576432)">
<polygon fill="#ffffff" shape-rendering="crispEdges" points="74.88,32.4 74.88,384.48 521.28,384.48"/>
<polygon fill="#ffffff" shape-rendering="crispEdges" points="74.88,32.4 521.28,384.48 521.28,32.4"/>
<polyline fill="none" stroke="#262626" stroke-width="0.5" stroke-linecap="butt" stroke-linejoin="miter" stroke-opacity="0.15" stroke-dasharray="16,0" points="186.48,384.48 186.48,32.4"/>
<polyline fill="none" stroke="#262626" stroke-width="0.5" stroke-linecap="butt" stroke-linejoin="miter" stroke-opacity="0.15" stroke-dasharray="16,0" points="298.08,384.48 298.08,32.4"/>
<polyline fill="none" stroke="#262626" stroke-width="0.5" stroke-linecap="butt" stroke-linejoin="miter" stroke-opacity="0.15" stroke-dasharray="16,0" points="409.68,384.48 409.68,32.4"/>
<polyline fill="none" stroke="#262626" stroke-width="0.5" stroke-linecap="butt" stroke-linejoin="miter" stroke-opacity="0.15" stroke-dasharray="16,0" points="521.28,384.48 521.28,32.4"/>
<polyline fill="none" stroke="#262626" stroke-width="0.5" stroke-linecap="butt" stroke-linejoin="miter" points="74.88,384.48 74.88,380.015"/>
<polyline fill="none" stroke="#262626" stroke-width="0.5" stroke-linecap="butt" stroke-linejoin="miter" points="74.88,32.4 74.88,36.865"/>
<polyline fill="none" stroke="#262626" stroke-width="0.5" stroke-linecap="butt" stroke-linejoin="miter" points="186.48,384.48 186.48,380.015"/>
<polyline fill="none" stroke="#262626" stroke-width="0.5" stroke-linecap="butt" stroke-linejoin="miter" points="186.48,32.4 186.48,36.865"/>
<polyline fill="none" stroke="#262626" stroke-width="0.5" stroke-linecap="butt" stroke-linejoin="miter" points="298.08,384.48 298.08,380.015"/>
<polyline fill="none" stroke="#262626" stroke-width="0.5" stroke-linecap="butt" stroke-linejoin="miter" points="298.08,32.4 298.08,36.865"/>
<polyline fill="none" stroke="#262626" stroke-width="0.5" stroke-linecap="butt" stroke-linejoin="miter" points="409.68,384.48 409.68,380.015"/>
<polyline fill="none" stroke="#262626" stroke-width="0.5" stroke-linecap="butt" stroke-linejoin="miter" points="409.68,32.4 409.68,36.865"/>
<polyline fill="none" stroke="#262626" stroke-width="0.5" stroke-linecap="butt" stroke-linejoin="miter" points="521.28,384.48 521.28,380.015"/>
<polyline fill="none" stroke="#262626" stroke-width="0.5" stroke-linecap="butt" stroke-linejoin="miter" points="521.28,32.4 521.28,36.865"/>
<text fill="#262626" x="74.88" y="389.481" font-size="10" text-anchor="middle" dy="10" font-family="Helvetica">0</text>
<text fill="#262626" x="186.48" y="389.481" font-size="10" text-anchor="middle" dy="10" font-family="Helvetica">0.01</text>
<text fill="#262626" x="298.08" y="389.481" font-size="10" text-anchor="middle" dy="10" font-family="Helvetica">0.02</text>
<text fill="#262626" x="409.68" y="389.481" font-size="10" text-anchor="middle" dy="10" font-family="Helvetica">0.03</text>
<text fill="#262626" x="521.28" y="389.481" font-size="10" text-anchor="middle" dy="10" font-family="Helvetica">0.04</text>
<polyline fill="none" stroke="#262626" stroke-width="0.5" stroke-linecap="butt" stroke-linejoin="miter" stroke-opacity="0.15" stroke-dasharray="16,0" points="74.88,384.48 521.28,384.48"/>
<polyline fill="none" stroke="#262626" stroke-width="0.5" stroke-linecap="butt" stroke-linejoin="miter" stroke-opacity="0.15" stroke-dasharray="16,0" points="74.88,334.183 521.28,334.183"/>
<polyline fill="none" stroke="#262626" stroke-width="0.5" stroke-linecap="butt" stroke-linejoin="miter" stroke-opacity="0.15" stroke-dasharray="16,0" points="74.88,283.886 521.28,283.886"/>
<polyline fill="none" stroke="#262626" stroke-width="0.5" stroke-linecap="butt" stroke-linejoin="miter" stroke-opacity="0.15" stroke-dasharray="16,0" points="74.88,233.589 521.28,233.589"/>
<polyline fill="none" stroke="#262626" stroke-width="0.5" stroke-linecap="butt" stroke-linejoin="miter" stroke-opacity="0.15" stroke-dasharray="16,0" points="74.88,183.291 521.28,183.291"/>
<polyline fill="none" stroke="#262626" stroke-width="0.5" stroke-linecap="butt" stroke-linejoin="miter" stroke-opacity="0.15" stroke-dasharray="16,0" points="74.88,132.994 521.28,132.994"/>
<polyline fill="none" stroke="#262626" stroke-width="0.5" stroke-linecap="butt" stroke-linejoin="miter" stroke-opacity="0.15" stroke-dasharray="16,0" points="74.88,82.6971 521.28,82.6971"/>
<polyline fill="none" stroke="#262626" stroke-width="0.5" stroke-linecap="butt" stroke-linejoin="miter" stroke-opacity="0.15" stroke-dasharray="16,0" points="74.88,32.4 521.28,32.4"/>
<polyline fill="none" stroke="#262626" stroke-width="0.5" stroke-linecap="butt" stroke-linejoin="miter" points="74.88,384.48 79.348,384.48"/>
<polyline fill="none" stroke="#262626" stroke-width="0.5" stroke-linecap="butt" stroke-linejoin="miter" points="521.28,384.48 516.812,384.48"/>
<polyline fill="none" stroke="#262626" stroke-width="0.5" stroke-linecap="butt" stroke-linejoin="miter" points="74.88,334.183 79.348,334.183"/>
<polyline fill="none" stroke="#262626" stroke-width="0.5" stroke-linecap="butt" stroke-linejoin="miter" points="521.28,334.183 516.812,334.183"/>
<polyline fill="none" stroke="#262626" stroke-width="0.5" stroke-linecap="butt" stroke-linejoin="miter" points="74.88,283.886 79.348,283.886"/>
<polyline fill="none" stroke="#262626" stroke-width="0.5" stroke-linecap="butt" stroke-linejoin="miter" points="521.28,283.886 516.812,283.886"/>
<polyline fill="none" stroke="#262626" stroke-width="0.5" stroke-linecap="butt" stroke-linejoin="miter" points="74.88,233.589 79.348,233.589"/>
<polyline fill="none" stroke="#262626" stroke-width="0.5" stroke-linecap="butt" stroke-linejoin="miter" points="521.28,233.589 516.812,233.589"/>
<polyline fill="none" stroke="#262626" stroke-width="0.5" stroke-linecap="butt" stroke-linejoin="miter" points="74.88,183.291 79.348,183.291"/>
<polyline fill="none" stroke="#262626" stroke-width="0.5" stroke-linecap="butt" stroke-linejoin="miter" points="521.28,183.291 516.812,183.291"/>
<polyline fill="none" stroke="#262626" stroke-width="0.5" stroke-linecap="butt" stroke-linejoin="miter" points="74.88,132.994 79.348,132.994"/>
<polyline fill="none" stroke="#262626" stroke-width="0.5" stroke-linecap="butt" stroke-linejoin="miter" points="521.28,132.994 516.812,132.994"/>
<polyline fill="none" stroke="#262626" stroke-width="0.5" stroke-linecap="butt" stroke-linejoin="miter" points="74.88,82.6971 79.348,82.6971"/>
<polyline fill="none" stroke="#262626" stroke-width="0.5" stroke-linecap="butt" stroke-linejoin="miter" points="521.28,82.6971 516.812,82.6971"/>
<polyline fill="none" stroke="#262626" stroke-width="0.5" stroke-linecap="butt" stroke-linejoin="miter" points="74.88,32.4 79.348,32.4"/>
<polyline fill="none" stroke="#262626" stroke-width="0.5" stroke-linecap="butt" stroke-linejoin="miter" points="521.28,32.4 516.812,32.4"/>
<text fill="#262626" x="69.8755" y="384.48" font-size="10" text-anchor="end" dy="5" font-family="Helvetica">-20</text>
<text fill="#262626" x="69.8755" y="334.183" font-size="10" text-anchor="end" dy="5" font-family="Helvetica">0</text>
<text fill="#262626" x="69.8755" y="283.886" font-size="10" text-anchor="end" dy="5" font-family="Helvetica">20</text>
<text fill="#262626" x="69.8755" y="233.589" font-size="10" text-anchor="end" dy="5" font-family="Helvetica">40</text>
<text fill="#262626" x="69.8755" y="183.291" font-size="10" text-anchor="end" dy="5" font-family="Helvetica">60</text>
<text fill="#262626" x="69.8755" y="132.994" font-size="10" text-anchor="end" dy="5" font-family="Helvetica">80</text>
<text fill="#262626" x="69.8755" y="82.6971" font-size="10" text-anchor="end" dy="5" font-family="Helvetica">100</text>
<text fill="#262626" x="69.8755" y="32.4" font-size="10" text-anchor="end" dy="5" font-family="Helvetica">120</text>
<polyline fill="none" stroke="#262626" stroke-width="0.5" stroke-linecap="butt" stroke-linejoin="miter" stroke-dasharray="16,0" points="74.88,384.48 521.28,384.48"/>
<polyline fill="none" stroke="#262626" stroke-width="0.5" stroke-linecap="butt" stroke-linejoin="miter" stroke-dasharray="16,0" points="74.88,32.4 521.28,32.4"/>
<polyline fill="none" stroke="#262626" stroke-width="0.5" stroke-linecap="butt" stroke-linejoin="miter" stroke-dasharray="16,0" points="74.88,384.48 74.88,32.4"/>
<polyline fill="none" stroke="#262626" stroke-width="0.5" stroke-linecap="butt" stroke-linejoin="miter" stroke-dasharray="16,0" points="521.28,384.48 521.28,32.4"/>
<text fill="#262626" x="298.08" y="403.481" font-size="11" text-anchor="middle" dy="11" font-family="Helvetica">seconds</text>
<text fill="#262626" x="47.8755" y="208.44" font-size="11" transform="rotate(-90, 47.8755, 208.44)" text-anchor="middle" dy="0" font-family="Helvetica">volt</text>
<polyline fill="none" stroke="#0071bc" stroke-width="0.5" stroke-linecap="butt" stroke-linejoin="miter" points="74.4336,334.183 74.4336,334.183 74.88,332.976 75.3264,330.964 75.7728,331.769 76.2192,332.171 76.6656,335.792 77.112,330.964 77.5584,329.757 78.0048,329.354 78.4512,328.952 78.8976,327.745 79.344,326.538 79.7904,325.331 80.2368,323.721 80.6832,322.112 81.1296,321.307 81.576,319.697 82.0224,318.893 82.4688,317.283 82.9152,316.076 83.3616,314.466 83.808,313.662 84.2544,313.662 84.7008,312.052 85.1472,311.65 85.5936,309.638 86.04,308.431 86.4864,308.028 86.9328,306.419 87.3792,305.212 87.8256,304.005 88.272,303.2 88.7184,302.395 89.1648,301.188 89.6112,299.981 90.0576,298.774 90.504,297.969 90.9504,297.164 91.3968,295.555 91.8432,295.152 92.2896,293.945 92.736,293.14 93.1824,292.336 93.6288,291.129 94.0752,289.519 94.5216,288.714 94.968,288.312 95.4144,287.507 95.8608,285.898 96.3072,285.495 96.7536,283.886 97.2,283.081 97.6464,281.874 98.0928,281.874 98.5392,280.667 98.9856,279.862 99.432,279.057 99.8784,277.85 100.325,277.448 100.771,277.045 101.218,275.838 101.664,275.033 102.11,273.826 102.557,272.619 103.003,271.814 103.45,271.412 103.896,271.412 104.342,269.4 104.789,268.595 105.235,267.791 105.682,266.986 106.128,265.779 106.574,265.376 107.021,264.572 107.467,263.767 107.914,262.962 108.36,262.157 108.806,261.755 109.253,261.353 109.699,260.548 110.146,259.341 110.592,259.341 111.038,258.134 111.485,256.926 111.931,256.122 112.378,255.719 112.824,255.317 113.27,254.11 113.717,253.707 114.163,252.098 114.61,252.098 115.056,251.293 115.502,250.086 115.949,249.684 116.395,248.477 116.842,248.477 117.288,247.269 117.734,247.269 118.181,246.062 118.627,246.062 119.074,244.855 119.52,244.453 119.966,244.05 120.413,243.246 120.859,242.441 121.306,242.039 121.752,241.636 122.198,240.429 122.645,240.027 123.091,239.624 123.538,238.819 123.984,238.417 124.43,237.612 124.877,237.21 125.323,236.003 125.77,235.198 126.216,234.796 126.662,233.589 127.109,233.186 127.555,232.784 128.002,232.381 128.448,231.979 128.894,230.772 129.341,230.772 129.787,229.967 130.234,229.565 130.68,229.162 131.126,227.955 131.573,228.358 132.019,227.151 132.466,225.943 132.912,225.943 133.358,225.541 133.805,225.139 134.251,224.736 134.698,223.932 135.144,223.529 135.59,223.529 136.037,221.92 136.483,221.92 136.93,221.517 137.376,221.115 137.822,219.908 138.269,219.908 138.715,219.103 139.162,218.701 139.608,218.298 140.054,217.896 140.501,217.091 140.947,216.689 141.394,215.884 141.84,215.079 142.286,215.079 142.733,213.872 143.179,213.872 143.626,213.872 144.072,213.47 144.518,212.263 144.965,212.263 145.411,211.86 145.858,210.653 146.304,210.653 146.75,209.848 147.197,209.044 147.643,208.239 148.09,208.641 148.536,207.836 148.982,207.434 149.429,207.434 149.875,207.434 150.322,206.629 150.768,207.032 151.214,206.227 151.661,205.02 152.107,205.02 152.554,204.215 153,203.813 153.446,203.41 153.893,203.008 154.339,203.008 154.786,202.203 155.232,201.801 155.678,201.801 156.125,200.996 156.571,200.594 157.018,199.789 157.464,199.387 157.91,199.387 158.357,198.179 158.803,197.777 159.25,197.777 159.696,197.375 160.142,196.972 160.589,196.972 161.035,196.57 161.482,195.765 161.928,195.363 162.374,194.96 162.821,194.96 163.267,194.156 163.714,192.948 164.16,193.351 164.606,192.144 165.053,192.144 165.499,192.144 165.946,191.741 166.392,191.339 166.838,190.937 167.285,190.937 167.731,190.534 168.178,190.132 168.624,189.327 169.07,188.925 169.517,188.522 169.963,187.718 170.41,187.718 170.856,187.718 171.302,187.718 171.749,187.315 172.195,186.913 172.642,186.913 173.088,186.108 173.534,185.303 173.981,185.706 174.427,185.303 174.874,184.901 175.32,184.499 175.766,183.694 176.213,183.291 176.659,183.291 177.106,182.889 177.552,182.487 177.998,181.682 178.445,181.682 178.891,181.682 179.338,181.28 179.784,181.28 180.23,180.877 180.677,180.072 181.123,180.475 181.57,179.67 182.016,179.67 182.462,178.463 182.909,178.463 183.355,178.061 183.802,177.658 184.248,177.658 184.694,177.658 185.141,176.451 185.587,176.853 186.034,175.646 186.48,175.646 186.926,175.646 187.373,175.244 187.819,175.244 188.266,175.244 188.712,175.244 189.158,174.439 189.605,174.439 190.051,174.439 190.498,173.634 190.944,173.634 191.39,172.83 191.837,173.232 192.283,172.427 192.73,172.025 193.176,171.622 193.622,171.22 194.069,171.22 194.515,171.22 194.962,171.22 195.408,171.22 195.854,170.415 196.301,170.415 196.747,169.611 197.194,169.611 197.64,169.611 198.086,168.806 198.533,168.806 198.979,168.404 199.426,168.001 199.872,167.599 200.318,167.599 200.765,167.599 201.211,167.196 201.658,166.392 202.104,166.794 202.55,166.392 202.997,165.587 203.443,165.587 203.89,165.587 204.336,165.184 204.782,165.587 205.229,164.38 205.675,164.38 206.122,163.575 206.568,163.977 207.014,163.977 207.461,163.977 207.907,163.575 208.354,163.575 208.8,162.77 209.246,162.77 209.693,162.368 210.139,161.563 210.586,161.161 211.032,160.758 211.478,161.161 211.925,161.161 212.371,160.356 212.818,160.356 213.264,159.954 213.71,159.551 214.157,159.954 214.603,159.149 215.05,159.149 215.496,159.551 215.942,159.149 216.389,159.149 216.835,158.344 217.282,157.539 217.728,157.942 218.174,157.539 218.621,157.539 219.067,157.539 219.514,157.137 219.96,157.137 220.406,157.137 220.853,156.735 221.299,156.332 221.746,155.93 222.192,155.527 222.638,155.527 223.085,155.93 223.531,155.527 223.978,155.125 224.424,155.527 224.87,155.125 225.317,155.125 225.763,155.125 226.21,154.723 226.656,154.723 227.102,153.516 227.549,153.516 227.995,153.516 228.442,153.516 228.888,153.516 229.334,153.113 229.781,152.711 230.227,152.711 230.674,152.308 231.12,152.711 231.566,151.504 232.013,151.504 232.459,151.504 232.906,151.101 233.352,151.101 233.798,150.699 234.245,150.297 234.691,149.492 235.138,149.894 235.584,149.492 236.03,149.089 236.477,149.089 236.923,149.492 237.37,149.492 237.816,149.492 238.262,149.089 238.709,149.089 239.155,149.089 239.602,148.285 240.048,148.687 240.494,147.48 240.941,147.48 241.387,147.48 241.834,147.077 242.28,147.077 242.726,147.48 243.173,147.077 243.619,147.077 244.066,146.675 244.512,145.87 244.958,145.468 245.405,145.87 245.851,145.87 246.298,145.468 246.744,145.468 247.19,144.663 247.637,145.066 248.083,145.468 248.53,144.663 248.976,143.858 249.422,144.663 249.869,143.858 250.315,143.858 250.762,143.858 251.208,143.456 251.654,143.054 252.101,143.456 252.547,143.054 252.994,143.054 253.44,142.651 253.886,143.054 254.333,143.054 254.779,142.651 255.226,142.651 255.672,141.847 256.118,142.249 256.565,141.444 257.011,141.847 257.458,141.847 257.904,141.444 258.35,141.042 258.797,141.042 259.243,141.444 259.69,140.639 260.136,140.639 260.582,139.835 261.029,140.237 261.475,139.432 261.922,139.835 262.368,139.432 262.814,139.432 263.261,139.03 263.707,139.432 264.154,139.432 264.6,139.432 265.046,139.03 265.493,139.03 265.939,139.03 266.386,139.432 266.832,139.03 267.278,139.03 267.725,139.03 268.171,138.628 268.618,138.628 269.064,138.225 269.51,137.823 269.957,138.628 270.403,138.225 270.85,138.628 271.296,138.225 271.742,137.42 272.189,137.42 272.635,137.42 273.082,137.018 273.528,137.018 273.974,136.616 274.421,136.213 274.867,137.018 275.314,136.616 275.76,136.213 276.206,135.811 276.653,135.409 277.099,135.811 277.546,135.409 277.992,135.409 278.438,135.006 278.885,135.006 279.331,135.006 279.778,135.006 280.224,134.201 280.67,134.604 281.117,134.201 281.563,134.201 282.01,134.201 282.456,133.799 282.902,133.397 283.349,133.397 283.795,133.397 284.242,133.397 284.688,132.994 285.134,132.994 285.581,132.592 286.027,132.994 286.474,132.994 286.92,132.994 287.366,132.994 287.813,132.994 288.259,132.592 288.706,132.592 289.152,132.592 289.598,132.592 290.045,132.19 290.491,131.787 290.938,131.787 291.384,132.19 291.83,132.19 292.277,131.385 292.723,131.385 293.17,130.982 293.616,130.58 294.062,131.385 294.509,131.385 294.955,131.385 295.402,130.58 295.848,130.178 296.294,130.178 296.741,129.775 297.187,130.178 297.634,129.775 298.08,129.775 298.526,129.775 298.973,129.373 299.419,129.373 299.866,128.971 300.312,128.971 300.758,128.971 301.205,128.971 301.651,128.971 302.098,128.971 302.544,128.971 302.99,128.971 303.437,128.971 303.883,128.971 304.33,127.763 304.776,127.763 305.222,127.361 305.669,127.763 306.115,127.763 306.562,127.763 307.008,127.361 307.454,127.361 307.901,127.361 308.347,126.959 308.794,127.361 309.24,126.959 309.686,126.959 310.133,126.959 310.579,126.959 311.026,126.959 311.472,126.959 311.918,126.556 312.365,126.959 312.811,126.556 313.258,126.556 313.704,126.154 314.15,126.154 314.597,126.154 315.043,126.556 315.49,125.752 315.936,125.349 316.382,125.349 316.829,125.349 317.275,125.752 317.722,125.349 318.168,125.349 318.614,124.947 319.061,125.349 319.507,125.349 319.954,124.947 320.4,124.947 320.846,124.947 321.293,124.544 321.739,124.142 322.186,124.142 322.632,124.544 323.078,124.544 323.525,124.142 323.971,124.142 324.418,123.337 324.864,123.74 325.31,123.337 325.757,122.935 326.203,123.337 326.65,122.935 327.096,122.935 327.542,122.935 327.989,123.337 328.435,122.935 328.882,122.935 329.328,122.935 329.774,122.935 330.221,122.935 330.667,122.935 331.114,122.935 331.56,122.935 332.006,122.532 332.453,122.935 332.899,122.935 333.346,122.935 333.792,121.728 334.238,122.935 334.685,122.532 335.131,121.728 335.578,121.728 336.024,121.325 336.47,122.13 336.917,121.325 337.363,121.728 337.81,121.325 338.256,121.325 338.702,121.325 339.149,120.923 339.595,121.325 340.042,120.923 340.488,121.325 340.934,120.923 341.381,120.923 341.827,120.923 342.274,120.923 342.72,120.923 343.166,120.923 343.613,120.521 344.059,120.521 344.506,120.923 344.952,120.521 345.398,120.923 345.845,120.521 346.291,120.521 346.738,119.716 347.184,119.716 347.63,119.716 348.077,119.313 348.523,119.716 348.97,119.313 349.416,119.313 349.862,119.313 350.309,119.313 350.755,119.716 351.202,119.313 351.648,118.911 352.094,118.911 352.541,119.313 352.987,118.911 353.434,118.509 353.88,118.911 354.326,118.911 354.773,118.911 355.219,118.509 355.666,118.911 356.112,118.911 356.558,117.704 357.005,117.704 357.451,118.106 357.898,118.106 358.344,117.704 358.79,117.704 359.237,117.302 359.683,117.302 360.13,117.302 360.576,118.106 361.022,117.302 361.469,117.302 361.915,117.302 362.362,117.302 362.808,116.899 363.254,116.899 363.701,117.302 364.147,116.899 364.594,116.899 365.04,117.302 365.486,116.899 365.933,116.899 366.379,116.899 366.826,116.899 367.272,116.899 367.718,116.899 368.165,116.497 368.611,116.497 369.058,116.497 369.504,116.497 369.95,116.899 370.397,116.497 370.843,116.899 371.29,116.497 371.736,116.497 372.182,115.29 372.629,116.094 373.075,115.29 373.522,115.692 373.968,116.094 374.414,115.29 374.861,114.887 375.307,115.29 375.754,115.692 376.2,115.29 376.646,115.692 377.093,115.29 377.539,115.29 377.986,114.887 378.432,115.29 378.878,114.485 379.325,114.485 379.771,114.887 380.218,114.887 380.664,114.485 381.11,114.887 381.557,114.485 382.003,114.083 382.45,114.083 382.896,113.68 383.342,114.485 383.789,113.68 384.235,114.083 384.682,113.68 385.128,114.485 385.574,114.083 386.021,114.083 386.467,113.68 386.914,113.68 387.36,112.875 387.806,113.68 388.253,112.875 388.699,112.875 389.146,113.278 389.592,112.875 390.038,112.875 390.485,112.875 390.931,113.278 391.378,112.875 391.824,112.875 392.27,112.875 392.717,112.875 393.163,113.278 393.61,112.071 394.056,112.875 394.502,112.875 394.949,112.071 395.395,112.071 395.842,112.473 396.288,112.473 396.734,112.473 397.181,111.668 397.627,112.071 398.074,111.266 398.52,112.071 398.966,111.266 399.413,112.071 399.859,111.266 400.306,111.668 400.752,111.266 401.198,111.266 401.645,111.266 402.091,111.266 402.538,111.266 402.984,111.266 403.43,111.266 403.877,110.864 404.323,110.864 404.77,110.864 405.216,111.266 405.662,110.864 406.109,110.864 406.555,110.864 407.002,111.266 407.448,110.864 407.894,110.864 408.341,111.266 408.787,110.864 409.234,110.864 409.68,110.864 410.126,110.864 410.573,110.864 411.019,110.864 411.466,110.864 411.912,110.461 412.358,110.461 412.805,110.864 413.251,110.864 413.698,110.059 414.144,110.864 414.59,110.461 415.037,110.461 415.483,110.864 415.93,109.656 416.376,110.461 416.822,109.656 417.269,110.864 417.715,110.059 418.162,110.059 418.608,110.059 419.054,109.656 419.501,109.656 419.947,110.059 420.394,109.656 420.84,109.254 421.286,109.656 421.733,109.254 422.179,109.254 422.626,109.254 423.072,109.254 423.518,108.852 423.965,108.449 424.411,108.852 424.858,109.656 425.304,109.254 425.75,109.254 426.197,108.852 426.643,108.852 427.09,108.852 427.536,108.852 427.982,108.852 428.429,108.852 428.875,109.254 429.322,108.852 429.768,108.852 430.214,108.449 430.661,108.047 431.107,108.852 431.554,108.449 432,108.047 432.446,108.852 432.893,107.645 433.339,108.852 433.786,108.449 434.232,108.047 434.678,108.047 435.125,108.852 435.571,107.645 436.018,107.645 436.464,107.242 436.91,108.047 437.357,107.242 437.803,107.242 438.25,107.242 438.696,107.242 439.142,107.242 439.589,107.645 440.035,106.84 440.482,107.242 440.928,106.84 441.374,106.84 441.821,106.84 442.267,106.84 442.714,106.84 443.16,106.84 443.606,106.84 444.053,106.84 444.499,106.84 444.946,106.84 445.392,106.84 445.838,106.84 446.285,106.84 446.731,106.84 447.178,106.84 447.624,106.84 448.07,106.84 448.517,107.242 448.963,106.84 449.41,106.84 449.856,106.84 450.302,106.84 450.749,106.84 451.195,106.84 451.642,106.84 452.088,106.84 452.534,106.84 452.981,106.437 453.427,106.437 453.874,106.437 454.32,106.437 454.766,106.437 455.213,106.84 455.659,106.84 456.106,106.437 456.552,106.84 456.998,106.437 457.445,106.84 457.891,106.035 458.338,106.84 458.784,106.035 459.23,106.84 459.677,105.633 460.123,106.035 460.57,106.035 461.016,105.633 461.462,105.23 461.909,106.437 462.355,106.035 462.802,105.633 463.248,104.828 463.694,105.23 464.141,104.828 464.587,105.23 465.034,104.828 465.48,105.23 465.926,105.23 466.373,104.828 466.819,104.828 467.266,104.828 467.712,105.23 468.158,104.828 468.605,104.828 469.051,105.23 469.498,104.828 469.944,104.828 470.39,104.828 470.837,104.828 471.283,104.828 471.73,104.828 472.176,105.23 472.622,104.828 473.069,104.828 473.515,104.828 473.962,104.828 474.408,105.23 474.854,104.828 475.301,104.426 475.747,104.828 476.194,104.828 476.64,104.828 477.086,104.828 477.533,104.828 477.979,104.828 478.426,104.828 478.872,104.828 479.318,104.828 479.765,104.828 480.211,104.426 480.658,104.023 481.104,104.023 481.55,104.828 481.997,104.426 482.443,104.426 482.89,104.828 483.336,104.426 483.782,104.023 484.229,104.023 484.675,104.023 485.122,103.621 485.568,104.023 486.014,104.023 486.461,104.023 486.907,104.023 487.354,104.023 487.8,103.218 488.246,104.023 488.693,104.023 489.139,103.621 489.586,104.023 490.032,103.218 490.478,103.218 490.925,103.218 491.371,102.816 491.818,103.218 492.264,103.621 492.71,103.218 493.157,103.218 493.603,103.218 494.05,103.218 494.496,103.218 494.942,102.816 495.389,103.621 495.835,103.218 496.282,102.816 496.728,103.218 497.174,102.816 497.621,102.816 498.067,102.816 498.514,102.816 498.96,102.816 499.406,102.816 499.853,102.414 500.299,102.816 500.746,102.816 501.192,102.816 501.638,102.816 502.085,102.816 502.531,103.218 502.978,102.816 503.424,102.414 503.87,102.816 504.317,102.816 504.763,102.816 505.21,102.011 505.656,102.816 506.102,102.414 506.549,102.816 506.995,102.414 507.442,102.011 507.888,102.414 508.334,102.414 508.781,102.011 509.227,102.414 509.674,101.609 510.12,101.609 510.566,102.414 511.013,101.206 511.459,102.414 511.906,101.609 512.352,101.609 512.798,102.414 513.245,101.206 513.691,102.011 514.138,101.609 514.584,100.804 515.03,101.609 515.477,102.414 515.923,101.206 516.37,101.609 516.816,100.804 517.262,101.206 517.709,101.206 518.155,101.206 518.602,101.206 519.048,100.804 519.494,100.804 519.941,101.206 520.387,100.804 520.834,100.804 521.28,101.206 521.726,100.804 521.726,100.804"/>
<polyline fill="none" stroke="#d85218" stroke-width="0.5" stroke-linecap="butt" stroke-linejoin="miter" points="74.4336,338.207 74.4336,338.207 74.88,332.573 75.3264,332.171 75.7728,332.171 76.2192,332.171 76.6656,331.366 77.112,328.55 77.5584,328.952 78.0048,332.573 78.4512,326.135 78.8976,326.538 79.344,324.526 79.7904,323.721 80.2368,321.307 80.6832,320.502 81.1296,318.49 81.576,317.283 82.0224,316.076 82.4688,314.466 82.9152,313.259 83.3616,312.857 83.808,311.65 84.2544,310.04 84.7008,309.235 85.1472,307.224 85.5936,306.821 86.04,305.212 86.4864,304.005 86.9328,303.2 87.3792,301.993 87.8256,300.383 88.272,298.774 88.7184,297.969 89.1648,297.164 89.6112,295.957 90.0576,295.555 90.504,294.348 90.9504,292.738 91.3968,291.933 91.8432,290.726 92.2896,289.921 92.736,288.714 93.1824,287.507 93.6288,286.702 94.0752,285.495 94.5216,284.69 94.968,283.483 95.4144,281.874 95.8608,281.471 96.3072,281.069 96.7536,279.46 97.2,279.057 97.6464,277.85 98.0928,277.85 98.5392,277.045 98.9856,275.838 99.432,275.033 99.8784,273.022 100.325,272.619 100.771,271.814 101.218,271.814 101.664,270.205 102.11,269.4 102.557,268.193 103.003,267.388 103.45,266.583 103.896,265.779 104.342,264.572 104.789,264.169 105.235,262.962 105.682,262.962 106.128,261.353 106.574,261.755 107.021,260.548 107.467,259.743 107.914,259.341 108.36,258.134 108.806,256.926 109.253,256.926 109.699,255.317 110.146,255.317 110.592,254.915 111.038,253.305 111.485,252.5 111.931,252.098 112.378,251.293 112.824,250.086 113.27,249.281 113.717,249.281 114.163,248.879 114.61,247.269 115.056,246.867 115.502,246.465 115.949,245.258 116.395,245.258 116.842,244.453 117.288,244.453 117.734,243.648 118.181,242.843 118.627,242.441 119.074,241.234 119.52,241.234 119.966,240.027 120.413,239.222 120.859,239.222 121.306,238.819 121.752,237.612 122.198,237.21 122.645,236.808 123.091,236.003 123.538,234.796 123.984,234.796 124.43,233.991 124.877,233.186 125.323,232.784 125.77,231.979 126.216,231.979 126.662,230.772 127.109,230.772 127.555,229.162 128.002,229.162 128.448,228.76 128.894,228.358 129.341,227.553 129.787,227.151 130.234,227.151 130.68,225.541 131.126,225.541 131.573,225.139 132.019,224.736 132.466,223.932 132.912,223.127 133.358,223.127 133.805,222.724 134.251,221.92 134.698,221.517 135.144,220.713 135.59,220.713 136.037,219.505 136.483,219.505 136.93,219.103 137.376,218.701 137.822,218.701 138.269,218.701 138.715,216.689 139.162,216.689 139.608,216.286 140.054,215.079 140.501,215.079 140.947,214.274 141.394,214.274 141.84,213.47 142.286,213.47 142.733,213.067 143.179,212.263 143.626,211.86 144.072,211.458 144.518,211.055 144.965,210.251 145.411,210.251 145.858,209.446 146.304,208.641 146.75,208.641 147.197,207.836 147.643,207.434 148.09,207.434 148.536,207.032 148.982,207.032 149.429,206.629 149.875,206.629 150.322,205.422 150.768,205.422 151.214,204.617 151.661,204.617 152.107,204.215 152.554,204.617 153,203.41 153.446,203.008 153.893,202.606 154.339,203.008 154.786,200.996 155.232,200.996 155.678,200.996 156.125,200.594 156.571,200.594 157.018,200.191 157.464,199.387 157.91,198.582 158.357,198.984 158.803,198.179 159.25,197.777 159.696,197.375 160.142,196.972 160.589,196.57 161.035,196.972 161.482,196.57 161.928,195.765 162.374,194.96 162.821,195.363 163.267,194.558 163.714,194.156 164.16,193.351 164.606,192.948 165.053,192.948 165.499,192.546 165.946,192.144 166.392,191.741 166.838,191.339 167.285,191.339 167.731,191.339 168.178,191.339 168.624,191.339 169.07,190.937 169.517,190.937 169.963,189.327 170.41,188.925 170.856,188.925 171.302,188.925 171.749,188.12 172.195,188.12 172.642,187.315 173.088,187.315 173.534,187.315 173.981,187.315 174.427,186.913 174.874,186.51 175.32,185.706 175.766,186.108 176.213,185.303 176.659,185.303 177.106,184.499 177.552,184.499 177.998,184.499 178.445,183.694 178.891,182.889 179.338,182.889 179.784,182.889 180.23,182.487 180.677,181.682 181.123,181.28 181.57,182.084 182.016,181.28 182.462,180.877 182.909,180.877 183.355,180.877 183.802,180.877 184.248,180.475 184.694,180.072 185.141,179.67 185.587,179.268 186.034,179.268 186.48,178.463 186.926,178.463 187.373,178.061 187.819,177.658 188.266,177.256 188.712,176.853 189.158,176.853 189.605,176.451 190.051,176.049 190.498,175.646 190.944,175.646 191.39,175.646 191.837,175.244 192.283,175.244 192.73,175.244 193.176,174.842 193.622,175.244 194.069,174.439 194.515,174.439 194.962,174.037 195.408,174.439 195.854,173.232 196.301,173.634 196.747,173.634 197.194,172.83 197.64,173.232 198.086,172.025 198.533,172.025 198.979,171.22 199.426,171.22 199.872,171.22 200.318,171.22 200.765,171.22 201.211,171.22 201.658,170.818 202.104,170.818 202.55,170.415 202.997,170.415 203.443,170.013 203.89,169.611 204.336,170.013 204.782,168.806 205.229,169.208 205.675,168.806 206.122,168.806 206.568,168.404 207.014,167.599 207.461,168.404 207.907,167.196 208.354,167.196 208.8,166.794 209.246,166.392 209.693,166.392 210.139,165.184 210.586,166.392 211.032,165.989 211.478,165.587 211.925,165.989 212.371,165.184 212.818,165.184 213.264,165.184 213.71,164.38 214.157,164.38 214.603,164.782 215.05,163.977 215.496,164.38 215.942,163.977 216.389,163.575 216.835,163.173 217.282,163.173 217.728,162.77 218.174,163.173 218.621,162.368 219.067,162.368 219.514,161.965 219.96,161.965 220.406,161.563 220.853,161.563 221.299,161.563 221.746,161.161 222.192,160.356 222.638,160.758 223.085,160.758 223.531,159.551 223.978,159.954 224.424,159.551 224.87,159.551 225.317,159.551 225.763,159.149 226.21,159.149 226.656,158.746 227.102,159.149 227.549,159.149 227.995,158.746 228.442,158.344 228.888,158.746 229.334,157.539 229.781,157.137 230.227,157.137 230.674,157.539 231.12,157.137 231.566,157.137 232.013,157.539 232.459,157.137 232.906,157.137 233.352,156.735 233.798,156.735 234.245,156.735 234.691,156.332 235.138,156.332 235.584,155.527 236.03,155.93 236.477,155.125 236.923,155.125 237.37,155.527 237.816,155.125 238.262,155.125 238.709,155.125 239.155,155.125 239.602,155.125 240.048,154.723 240.494,154.32 240.941,153.918 241.387,153.918 241.834,154.723 242.28,153.918 242.726,153.918 243.173,153.918 243.619,153.113 244.066,153.113 244.512,153.113 244.958,152.711 245.405,152.308 245.851,152.308 246.298,152.711 246.744,151.504 247.19,151.504 247.637,151.906 248.083,151.101 248.53,151.101 248.976,151.504 249.422,151.504 249.869,150.699 250.315,150.699 250.762,150.699 251.208,150.297 251.654,151.101 252.101,149.894 252.547,150.297 252.994,149.894 253.44,150.297 253.886,149.894 254.333,149.492 254.779,149.089 255.226,149.089 255.672,149.089 256.118,149.089 256.565,149.089 257.011,149.089 257.458,149.089 257.904,148.687 258.35,149.089 258.797,148.285 259.243,147.882 259.69,148.285 260.136,148.285 260.582,147.882 261.029,147.077 261.475,146.675 261.922,147.077 262.368,147.077 262.814,147.077 263.261,147.077 263.707,147.077 264.154,146.675 264.6,147.077 265.046,146.273 265.493,145.87 265.939,145.87 266.386,145.87 266.832,145.87 267.278,145.468 267.725,145.468 268.171,145.066 268.618,145.066 269.064,145.066 269.51,145.066 269.957,145.066 270.403,144.663 270.85,144.663 271.296,144.261 271.742,144.261 272.189,144.261 272.635,144.261 273.082,143.456 273.528,144.261 273.974,143.054 274.421,143.858 274.867,143.054 275.314,143.054 275.76,143.054 276.206,143.054 276.653,143.054 277.099,143.054 277.546,143.054 277.992,142.651 278.438,143.054 278.885,142.651 279.331,142.651 279.778,142.249 280.224,142.651 280.67,142.249 281.117,141.444 281.563,142.249 282.01,141.847 282.456,141.847 282.902,141.042 283.349,141.444 283.795,141.042 284.242,141.042 284.688,141.042 285.134,141.042 285.581,141.042 286.027,140.639 286.474,140.237 286.92,141.042 287.366,140.639 287.813,140.237 288.259,139.835 288.706,140.237 289.152,139.835 289.598,139.432 290.045,139.03 290.491,139.835 290.938,139.03 291.384,139.03 291.83,139.03 292.277,139.03 292.723,139.03 293.17,139.03 293.616,139.03 294.062,139.03 294.509,139.03 294.955,139.03 295.402,139.03 295.848,139.03 296.294,139.03 296.741,139.03 297.187,139.03 297.634,139.03 298.08,139.03 298.526,138.225 298.973,138.225 299.419,138.628 299.866,138.628 300.312,137.823 300.758,138.628 301.205,137.823 301.651,137.823 302.098,138.225 302.544,137.823 302.99,138.225 303.437,137.42 303.883,137.42 304.33,137.42 304.776,137.018 305.222,137.018 305.669,137.018 306.115,137.018 306.562,136.213 307.008,136.616 307.454,136.213 307.901,136.616 308.347,136.213 308.794,136.213 309.24,136.213 309.686,136.616 310.133,135.811 310.579,135.811 311.026,135.811 311.472,135.811 311.918,135.409 312.365,135.006 312.811,135.006 313.258,135.006 313.704,135.006 314.15,135.006 314.597,134.604 315.043,133.799 315.49,134.604 315.936,134.201 316.382,133.799 316.829,133.799 317.275,134.604 317.722,134.201 318.168,134.201 318.614,133.799 319.061,133.397 319.507,133.799 319.954,133.397 320.4,132.994 320.846,132.994 321.293,133.799 321.739,132.994 322.186,133.397 322.632,133.397 323.078,132.994 323.525,132.994 323.971,132.994 324.418,132.994 324.864,132.994 325.31,132.592 325.757,132.592 326.203,132.994 326.65,132.994 327.096,132.592 327.542,132.994 327.989,132.19 328.435,131.787 328.882,131.787 329.328,132.994 329.774,132.19 330.221,132.19 330.667,131.787 331.114,130.982 331.56,132.592 332.006,131.385 332.453,130.982 332.899,130.982 333.346,131.385 333.792,131.787 334.238,130.982 334.685,130.982 335.131,130.982 335.578,130.982 336.024,130.982 336.47,131.385 336.917,130.58 337.363,130.58 337.81,130.58 338.256,130.178 338.702,129.775 339.149,130.178 339.595,130.178 340.042,130.178 340.488,129.775 340.934,130.178 341.381,129.775 341.827,129.775 342.274,129.373 342.72,130.178 343.166,128.971 343.613,128.971 344.059,129.373 344.506,128.971 344.952,128.971 345.398,128.971 345.845,128.971 346.291,128.971 346.738,128.568 347.184,128.971 347.63,128.971 348.077,128.971 348.523,128.971 348.97,128.971 349.416,128.166 349.862,128.166 350.309,127.763 350.755,128.166 351.202,127.763 351.648,127.361 352.094,126.959 352.541,128.166 352.987,127.763 353.434,128.568 353.88,126.959 354.326,126.959 354.773,126.959 355.219,127.361 355.666,126.959 356.112,126.959 356.558,126.959 357.005,126.959 357.451,126.959 357.898,126.959 358.344,126.959 358.79,126.959 359.237,127.361 359.683,126.959 360.13,126.959 360.576,126.959 361.022,126.959 361.469,126.959 361.915,126.959 362.362,126.959 362.808,126.959 363.254,126.556 363.701,126.959 364.147,126.959 364.594,126.556 365.04,126.556 365.486,126.154 365.933,126.154 366.379,126.154 366.826,126.556 367.272,126.556 367.718,126.154 368.165,125.349 368.611,125.349 369.058,125.349 369.504,125.349 369.95,124.947 370.397,125.349 370.843,124.947 371.29,125.349 371.736,124.947 372.182,124.947 372.629,124.947 373.075,124.544 373.522,124.947 373.968,124.947 374.414,124.947 374.861,124.947 375.307,124.947 375.754,124.544 376.2,124.544 376.646,124.544 377.093,124.947 377.539,124.142 377.986,124.947 378.432,124.142 378.878,124.544 379.325,124.544 379.771,123.337 380.218,123.74 380.664,124.142 381.11,123.337 381.557,123.337 382.003,122.935 382.45,123.74 382.896,123.337 383.342,122.935 383.789,122.935 384.235,123.337 384.682,122.935 385.128,123.337 385.574,122.935 386.021,123.337 386.467,122.935 386.914,122.935 387.36,122.935 387.806,122.935 388.253,122.935 388.699,122.935 389.146,122.935 389.592,122.935 390.038,122.935 390.485,122.532 390.931,122.532 391.378,122.935 391.824,122.935 392.27,122.935 392.717,122.935 393.163,122.532 393.61,122.935 394.056,122.935 394.502,122.532 394.949,122.935 395.395,122.532 395.842,122.532 396.288,122.13 396.734,122.532 397.181,122.13 397.627,122.13 398.074,121.325 398.52,122.13 398.966,122.532 399.413,121.728 399.859,121.325 400.306,122.13 400.752,121.325 401.198,121.728 401.645,120.923 402.091,121.325 402.538,120.923 402.984,121.728 403.43,120.923 403.877,120.923 404.323,120.923 404.77,120.923 405.216,120.923 405.662,120.923 406.109,120.923 406.555,120.923 407.002,120.923 407.448,121.325 407.894,120.923 408.341,120.923 408.787,120.923 409.234,120.923 409.68,120.118 410.126,120.923 410.573,120.923 411.019,120.521 411.466,120.118 411.912,120.521 412.358,120.923 412.805,120.521 413.251,120.118 413.698,120.118 414.144,120.923 414.59,120.118 415.037,119.313 415.483,119.716 415.93,120.118 416.376,120.521 416.822,119.716 417.269,119.716 417.715,119.716 418.162,119.313 418.608,119.716 419.054,118.911 419.501,119.313 419.947,119.716 420.394,119.313 420.84,119.716 421.286,118.911 421.733,119.313 422.179,118.911 422.626,119.313 423.072,118.911 423.518,118.911 423.965,118.509 424.411,118.911 424.858,118.911 425.304,118.911 425.75,118.911 426.197,118.911 426.643,118.911 427.09,118.911 427.536,118.911 427.982,118.106 428.429,118.911 428.875,118.509 429.322,118.911 429.768,118.106 430.214,117.704 430.661,118.911 431.107,118.509 431.554,118.106 432,118.509 432.446,118.106 432.893,117.704 433.339,117.704 433.786,117.302 434.232,118.106 434.678,118.106 435.125,118.106 435.571,117.302 436.018,117.302 436.464,117.302 436.91,118.106 437.357,116.899 437.803,117.302 438.25,118.106 438.696,117.302 439.142,116.899 439.589,117.704 440.035,117.302 440.482,116.899 440.928,117.302 441.374,116.899 441.821,116.899 442.267,116.899 442.714,116.899 443.16,116.899 443.606,116.899 444.053,116.899 444.499,116.899 444.946,116.899 445.392,116.899 445.838,116.899 446.285,116.899 446.731,116.899 447.178,116.899 447.624,116.497 448.07,116.899 448.517,116.899 448.963,116.497 449.41,116.899 449.856,116.899 450.302,116.899 450.749,115.692 451.195,116.899 451.642,116.497 452.088,116.094 452.534,116.899 452.981,116.497 453.427,116.094 453.874,116.899 454.32,116.497 454.766,116.899 455.213,116.497 455.659,116.094 456.106,116.899 456.552,116.497 456.998,115.692 457.445,116.094 457.891,116.094 458.338,115.692 458.784,115.692 459.23,116.094 459.677,115.29 460.123,116.497 460.57,114.887 461.016,116.094 461.462,115.29 461.909,115.692 462.355,115.692 462.802,115.29 463.248,115.29 463.694,114.887 464.141,114.887 464.587,114.887 465.034,114.887 465.48,114.887 465.926,114.887 466.373,114.887 466.819,114.887 467.266,114.887 467.712,115.29 468.158,114.887 468.605,114.485 469.051,114.887 469.498,114.887 469.944,114.485 470.39,114.887 470.837,114.887 471.283,114.887 471.73,114.887 472.176,114.887 472.622,114.887 473.069,114.083 473.515,114.887 473.962,114.485 474.408,114.485 474.854,114.485 475.301,114.083 475.747,114.083 476.194,114.485 476.64,114.083 477.086,114.485 477.533,113.68 477.979,114.485 478.426,114.083 478.872,114.083 479.318,113.68 479.765,113.278 480.211,113.68 480.658,113.278 481.104,113.278 481.55,113.278 481.997,113.68 482.443,113.68 482.89,114.083 483.336,114.083 483.782,113.68 484.229,113.278 484.675,113.68 485.122,113.278 485.568,113.278 486.014,114.083 486.461,113.278 486.907,112.875 487.354,112.875 487.8,112.875 488.246,112.875 488.693,112.875 489.139,112.875 489.586,112.875 490.032,112.875 490.478,112.875 490.925,113.278 491.371,112.875 491.818,112.875 492.264,113.278 492.71,112.875 493.157,112.875 493.603,112.875 494.05,112.875 494.496,112.875 494.942,112.473 495.389,112.875 495.835,112.875 496.282,112.473 496.728,112.473 497.174,112.875 497.621,112.473 498.067,112.473 498.514,112.071 498.96,112.875 499.406,112.875 499.853,112.071 500.299,112.071 500.746,112.071 501.192,112.473 501.638,112.071 502.085,111.668 502.531,111.668 502.978,112.473 503.424,111.266 503.87,111.668 504.317,110.864 504.763,110.864 505.21,110.864 505.656,112.473 506.102,111.266 506.549,111.266 506.995,111.266 507.442,111.266 507.888,111.266 508.334,111.266 508.781,111.266 509.227,111.266 509.674,111.668 510.12,110.864 510.566,110.864 511.013,110.864 511.459,110.864 511.906,110.864 512.352,110.864 512.798,110.864 513.245,110.864 513.691,111.266 514.138,110.864 514.584,110.864 515.03,111.266 515.477,110.864 515.923,110.864 516.37,110.864 516.816,110.864 517.262,110.864 517.709,110.864 518.155,110.864 518.602,110.864 519.048,110.864 519.494,110.864 519.941,110.864 520.387,110.864 520.834,110.864 521.28,110.864 521.726,110.864 521.726,110.864"/>
<polyline fill="none" stroke="#ecb01f" stroke-width="0.5" stroke-linecap="butt" stroke-linejoin="miter" points="74.4336,333.378 74.4336,333.378 74.88,332.171 75.3264,332.171 75.7728,332.573 76.2192,332.573 76.6656,331.366 77.112,330.561 77.5584,328.147 78.0048,326.135 78.4512,324.928 78.8976,323.721 79.344,321.709 79.7904,320.502 80.2368,318.893 80.6832,317.685 81.1296,316.076 81.576,314.064 82.0224,312.857 82.4688,311.65 82.9152,310.443 83.3616,308.833 83.808,307.224 84.2544,306.016 84.7008,304.809 85.1472,303.2 85.5936,302.395 86.04,301.188 86.4864,299.176 86.9328,297.969 87.3792,296.762 87.8256,295.152 88.272,294.348 88.7184,293.14 89.1648,291.531 89.6112,289.921 90.0576,289.117 90.504,287.507 90.9504,286.3 91.3968,285.093 91.8432,284.288 92.2896,283.081 92.736,281.069 93.1824,281.069 93.6288,279.46 94.0752,278.655 94.5216,277.448 94.968,276.643 95.4144,275.033 95.8608,273.424 96.3072,273.022 96.7536,271.412 97.2,270.607 97.6464,268.998 98.0928,268.193 98.5392,266.986 98.9856,265.376 99.432,264.974 99.8784,262.962 100.325,262.56 100.771,261.755 101.218,260.95 101.664,259.743 102.11,258.938 102.557,257.329 103.003,256.926 103.45,254.915 103.896,254.512 104.342,253.707 104.789,252.903 105.235,251.293 105.682,250.488 106.128,249.684 106.574,248.477 107.021,247.672 107.467,246.465 107.914,245.66 108.36,244.855 108.806,244.05 109.253,243.246 109.699,242.441 110.146,241.636 110.592,240.429 111.038,239.624 111.485,238.417 111.931,237.612 112.378,237.21 112.824,236.003 113.27,235.6 113.717,233.589 114.163,233.186 114.61,232.381 115.056,231.979 115.502,230.772 115.949,229.967 116.395,229.565 116.842,227.553 117.288,227.955 117.734,226.748 118.181,225.943 118.627,225.139 119.074,224.736 119.52,223.529 119.966,222.724 120.413,222.322 120.859,221.517 121.306,220.713 121.752,220.31 122.198,219.103 122.645,218.298 123.091,217.493 123.538,216.689 123.984,215.884 124.43,215.482 124.877,214.677 125.323,213.872 125.77,213.47 126.216,211.86 126.662,212.263 127.109,211.055 127.555,210.251 128.002,209.446 128.448,209.044 128.894,208.239 129.341,207.836 129.787,207.434 130.234,205.825 130.68,205.422 131.126,205.422 131.573,204.617 132.019,203.813 132.466,203.813 132.912,203.41 133.358,201.398 133.805,201.398 134.251,200.191 134.698,199.789 135.144,199.387 135.59,199.387 136.037,198.582 136.483,197.777 136.93,196.972 137.376,196.972 137.822,195.765 138.269,195.363 138.715,194.156 139.162,193.753 139.608,193.351 140.054,192.546 140.501,191.741 140.947,191.339 141.394,191.339 141.84,189.729 142.286,189.729 142.733,189.327 143.179,188.925 143.626,188.12 144.072,187.718 144.518,187.718 144.965,186.108 145.411,186.108 145.858,185.706 146.304,185.303 146.75,184.096 147.197,184.096 147.643,183.694 148.09,182.889 148.536,182.487 148.982,181.682 149.429,181.682 149.875,180.877 150.322,179.67 150.768,179.268 151.214,179.268 151.661,178.463 152.107,178.061 152.554,177.658 153,176.853 153.446,176.853 153.893,175.646 154.339,175.646 154.786,175.646 155.232,174.842 155.678,175.244 156.125,174.439 156.571,173.634 157.018,173.634 157.464,172.427 157.91,172.427 158.357,172.427 158.803,172.025 159.25,171.22 159.696,171.22 160.142,170.818 160.589,169.208 161.035,169.208 161.482,168.806 161.928,168.404 162.374,168.404 162.821,167.599 163.267,167.599 163.714,166.794 164.16,166.392 164.606,165.989 165.053,165.184 165.499,165.184 165.946,164.782 166.392,163.977 166.838,163.575 167.285,163.173 167.731,162.77 168.178,161.965 168.624,161.965 169.07,161.563 169.517,161.161 169.963,160.758 170.41,160.758 170.856,159.954 171.302,159.551 171.749,159.551 172.195,159.149 172.642,158.746 173.088,158.344 173.534,158.344 173.981,157.539 174.427,156.735 174.874,157.137 175.32,156.735 175.766,156.332 176.213,156.332 176.659,155.527 177.106,155.527 177.552,154.723 177.998,154.723 178.445,154.723 178.891,153.918 179.338,153.516 179.784,152.711 180.23,152.711 180.677,151.906 181.123,153.113 181.57,151.906 182.016,151.504 182.462,150.699 182.909,150.297 183.355,150.297 183.802,149.492 184.248,149.894 184.694,149.089 185.141,148.687 185.587,148.285 186.034,148.687 186.48,147.882 186.926,147.882 187.373,147.077 187.819,146.675 188.266,146.675 188.712,145.87 189.158,146.675 189.605,145.468 190.051,145.066 190.498,145.468 190.944,145.066 191.39,144.261 191.837,144.663 192.283,144.261 192.73,143.858 193.176,143.456 193.622,142.651 194.069,143.054 194.515,142.249 194.962,142.249 195.408,141.444 195.854,141.444 196.301,141.444 196.747,141.042 197.194,140.639 197.64,140.237 198.086,140.237 198.533,140.639 198.979,140.237 199.426,139.835 199.872,139.432 200.318,139.432 200.765,139.03 201.211,138.628 201.658,138.225 202.104,137.823 202.55,138.225 202.997,137.018 203.443,137.42 203.89,137.018 204.336,137.018 204.782,137.018 205.229,135.811 205.675,136.213 206.122,136.213 206.568,135.006 207.014,135.409 207.461,135.409 207.907,135.006 208.354,134.604 208.8,134.604 209.246,134.201 209.693,134.201 210.139,132.994 210.586,133.799 211.032,132.994 211.478,132.994 211.925,132.592 212.371,132.592 212.818,132.592 213.264,132.19 213.71,131.385 214.157,131.787 214.603,131.385 215.05,130.58 215.496,130.58 215.942,130.58 216.389,130.178 216.835,130.58 217.282,130.178 217.728,129.775 218.174,129.373 218.621,129.373 219.067,128.568 219.514,129.373 219.96,128.568 220.406,128.166 220.853,128.166 221.299,127.763 221.746,128.166 222.192,127.361 222.638,126.556 223.085,126.556 223.531,126.556 223.978,126.959 224.424,126.556 224.87,126.154 225.317,126.154 225.763,126.154 226.21,124.947 226.656,124.947 227.102,124.544 227.549,124.544 227.995,124.947 228.442,124.544 228.888,124.544 229.334,124.142 229.781,124.544 230.227,124.142 230.674,123.74 231.12,124.142 231.566,124.142 232.013,122.935 232.459,122.532 232.906,122.532 233.352,122.532 233.798,122.532 234.245,122.13 234.691,122.13 235.138,122.13 235.584,121.728 236.03,121.728 236.477,121.325 236.923,120.923 237.37,120.923 237.816,121.325 238.262,120.521 238.709,120.521 239.155,120.521 239.602,120.118 240.048,119.716 240.494,120.118 240.941,119.313 241.387,119.313 241.834,118.509 242.28,118.509 242.726,118.509 243.173,118.509 243.619,118.106 244.066,118.509 244.512,118.106 244.958,118.106 245.405,118.106 245.851,117.302 246.298,117.704 246.744,117.302 247.19,117.704 247.637,116.497 248.083,116.497 248.53,117.302 248.976,116.899 249.422,116.497 249.869,116.497 250.315,116.497 250.762,116.094 251.208,116.094 251.654,115.29 252.101,115.692 252.547,116.094 252.994,115.29 253.44,115.29 253.886,114.887 254.333,114.485 254.779,114.485 255.226,114.083 255.672,114.485 256.118,114.485 256.565,114.083 257.011,114.485 257.458,113.278 257.904,113.68 258.35,112.473 258.797,112.875 259.243,112.071 259.69,112.071 260.136,112.473 260.582,112.071 261.029,112.473 261.475,112.473 261.922,112.071 262.368,112.071 262.814,112.071 263.261,111.668 263.707,111.668 264.154,111.266 264.6,111.266 265.046,111.266 265.493,110.864 265.939,111.266 266.386,110.864 266.832,110.864 267.278,110.461 267.725,110.059 268.171,110.461 268.618,110.059 269.064,109.656 269.51,110.059 269.957,110.059 270.403,109.656 270.85,109.254 271.296,109.656 271.742,108.852 272.189,108.852 272.635,108.852 273.082,108.852 273.528,108.852 273.974,108.449 274.421,108.852 274.867,108.047 275.314,108.047 275.76,108.047 276.206,108.047 276.653,107.645 277.099,108.047 277.546,107.645 277.992,106.84 278.438,107.645 278.885,107.242 279.331,106.84 279.778,106.84 280.224,107.242 280.67,107.242 281.117,106.84 281.563,106.437 282.01,106.437 282.456,106.437 282.902,106.437 283.349,105.633 283.795,106.437 284.242,106.035 284.688,106.035 285.134,106.035 285.581,105.633 286.027,105.633 286.474,105.23 286.92,104.828 287.366,105.23 287.813,105.23 288.259,104.828 288.706,105.23 289.152,105.23 289.598,105.23 290.045,104.828 290.491,104.426 290.938,104.023 291.384,104.426 291.83,104.426 292.277,104.426 292.723,104.426 293.17,104.023 293.616,103.621 294.062,104.023 294.509,103.218 294.955,103.621 295.402,103.621 295.848,102.816 296.294,103.621 296.741,103.218 297.187,102.816 297.634,102.816 298.08,102.816 298.526,102.414 298.973,102.816 299.419,102.414 299.866,102.414 300.312,102.414 300.758,102.414 301.205,102.414 301.651,102.414 302.098,102.011 302.544,102.011 302.99,101.609 303.437,101.206 303.883,101.206 304.33,100.804 304.776,101.206 305.222,101.206 305.669,101.206 306.115,101.206 306.562,101.206 307.008,101.206 307.454,101.206 307.901,101.206 308.347,100.804 308.794,100.402 309.24,99.9994 309.686,99.597 310.133,99.9994 310.579,99.9994 311.026,100.402 311.472,99.9994 311.918,99.9994 312.365,99.597 312.811,100.402 313.258,99.597 313.704,99.597 314.15,99.597 314.597,99.597 315.043,99.597 315.49,99.1946 315.936,99.597 316.382,99.1946 316.829,99.1946 317.275,98.3898 317.722,98.7922 318.168,98.3898 318.614,97.9875 319.061,98.3898 319.507,98.3898 319.954,97.9875 320.4,98.3898 320.846,97.9875 321.293,98.3898 321.739,97.9875 322.186,97.5851 322.632,97.9875 323.078,97.9875 323.525,97.5851 323.971,97.5851 324.418,97.5851 324.864,96.378 325.31,97.5851 325.757,97.1827 326.203,96.378 326.65,96.378 327.096,96.378 327.542,96.378 327.989,96.7803 328.435,95.5732 328.882,96.378 329.328,96.378 329.774,96.7803 330.221,95.9756 330.667,96.378 331.114,95.5732 331.56,95.1708 332.006,95.9756 332.453,95.9756 332.899,95.1708 333.346,95.1708 333.792,95.1708 334.238,95.5732 334.685,95.5732 335.131,95.1708 335.578,95.5732 336.024,95.1708 336.47,95.1708 336.917,94.7685 337.363,95.1708 337.81,95.1708 338.256,95.1708 338.702,95.1708 339.149,94.7685 339.595,94.3661 340.042,94.3661 340.488,94.3661 340.934,94.3661 341.381,94.3661 341.827,94.7685 342.274,93.9637 342.72,94.3661 343.166,93.5613 343.613,93.9637 344.059,93.9637 344.506,93.9637 344.952,93.9637 345.398,93.5613 345.845,93.9637 346.291,93.9637 346.738,93.159 347.184,93.9637 347.63,93.5613 348.077,93.5613 348.523,93.159 348.97,93.5613 349.416,93.159 349.862,93.159 350.309,92.7566 350.755,93.159 351.202,93.159 351.648,92.7566 352.094,92.3542 352.541,92.3542 352.987,92.3542 353.434,93.159 353.88,92.7566 354.326,92.7566 354.773,92.7566 355.219,92.3542 355.666,92.3542 356.112,92.3542 356.558,92.3542 357.005,92.3542 357.451,92.3542 357.898,91.9518 358.344,91.5494 358.79,91.9518 359.237,91.9518 359.683,91.1471 360.13,91.5494 360.576,91.5494 361.022,91.5494 361.469,91.1471 361.915,91.5494 362.362,91.5494 362.808,91.1471 363.254,91.1471 363.701,91.1471 364.147,91.5494 364.594,91.5494 365.04,91.1471 365.486,91.1471 365.933,91.1471 366.379,91.1471 366.826,91.1471 367.272,91.1471 367.718,90.7447 368.165,90.7447 368.611,91.1471 369.058,90.3423 369.504,90.3423 369.95,90.7447 370.397,89.9399 370.843,89.5376 371.29,89.9399 371.736,89.9399 372.182,89.9399 372.629,89.9399 373.075,89.5376 373.522,89.9399 373.968,89.5376 374.414,89.5376 374.861,89.5376 375.307,89.5376 375.754,89.5376 376.2,89.5376 376.646,89.5376 377.093,89.9399 377.539,89.5376 377.986,89.5376 378.432,89.1352 378.878,88.7328 379.325,89.1352 379.771,88.7328 380.218,89.1352 380.664,89.5376 381.11,89.5376 381.557,89.5376 382.003,88.3304 382.45,89.5376 382.896,89.1352 383.342,89.1352 383.789,88.7328 384.235,88.7328 384.682,89.1352 385.128,88.3304 385.574,88.3304 386.021,88.7328 386.467,88.7328 386.914,88.3304 387.36,88.3304 387.806,87.9281 388.253,87.5257 388.699,88.3304 389.146,88.3304 389.592,87.1233 390.038,87.9281 390.485,87.9281 390.931,87.9281 391.378,87.5257 391.824,87.1233 392.27,87.5257 392.717,87.5257 393.163,87.1233 393.61,87.5257 394.056,87.1233 394.502,87.1233 394.949,87.1233 395.395,87.5257 395.842,87.5257 396.288,87.1233 396.734,87.1233 397.181,87.1233 397.627,87.1233 398.074,87.1233 398.52,87.1233 398.966,86.7209 399.413,87.1233 399.859,87.1233 400.306,86.7209 400.752,87.1233 401.198,87.1233 401.645,87.1233 402.091,87.1233 402.538,86.7209 402.984,86.7209 403.43,87.1233 403.877,86.7209 404.323,86.7209 404.77,85.9161 405.216,85.5138 405.662,86.3185 406.109,86.3185 406.555,85.9161 407.002,85.9161 407.448,85.9161 407.894,85.9161 408.341,86.3185 408.787,85.5138 409.234,85.5138 409.68,85.5138 410.126,85.1114 410.573,85.9161 411.019,85.5138 411.466,85.5138 411.912,85.5138 412.358,85.5138 412.805,85.9161 413.251,85.1114 413.698,85.1114 414.144,85.5138 414.59,85.1114 415.037,85.1114 415.483,85.5138 415.93,85.1114 416.376,85.1114 416.822,85.1114 417.269,85.1114 417.715,85.5138 418.162,85.1114 418.608,85.1114 419.054,85.1114 419.501,85.1114 419.947,85.1114 420.394,85.1114 420.84,85.1114 421.286,85.1114 421.733,85.1114 422.179,84.709 422.626,85.1114 423.072,84.709 423.518,84.709 423.965,85.1114 424.411,85.1114 424.858,84.709 425.304,85.1114 425.75,84.709 426.197,84.709 426.643,84.3066 427.09,84.709 427.536,85.1114 427.982,84.3066 428.429,84.709 428.875,85.1114 429.322,84.3066 429.768,83.9043 430.214,84.3066 430.661,84.3066 431.107,84.709 431.554,83.9043 432,84.3066 432.446,83.5019 432.893,83.9043 433.339,84.3066 433.786,84.3066 434.232,84.3066 434.678,83.9043 435.125,83.9043 435.571,83.9043 436.018,83.9043 436.464,83.9043 436.91,83.5019 437.357,83.5019 437.803,83.5019 438.25,83.5019 438.696,83.5019 439.142,83.5019 439.589,83.5019 440.035,83.5019 440.482,83.0995 440.928,83.0995 441.374,83.0995 441.821,83.0995 442.267,83.5019 442.714,83.5019 443.16,83.0995 443.606,83.0995 444.053,83.5019 444.499,83.0995 444.946,82.6971 445.392,83.0995 445.838,83.0995 446.285,83.0995 446.731,82.6971 447.178,83.0995 447.624,83.0995 448.07,83.0995 448.517,82.2947 448.963,82.2947 449.41,83.0995 449.856,82.6971 450.302,82.2947 450.749,82.6971 451.195,82.6971 451.642,82.6971 452.088,82.6971 452.534,81.8924 452.981,82.2947 453.427,81.8924 453.874,82.6971 454.32,81.8924 454.766,81.49 455.213,83.0995 455.659,81.8924 456.106,82.6971 456.552,81.8924 456.998,82.6971 457.445,81.49 457.891,81.8924 458.338,81.8924 458.784,81.8924 459.23,81.49 459.677,81.49 460.123,81.49 460.57,81.0876 461.016,81.8924 461.462,81.0876 461.909,81.0876 462.355,81.49 462.802,81.49 463.248,81.49 463.694,81.49 464.141,81.0876 464.587,81.49 465.034,81.0876 465.48,81.49 465.926,81.0876 466.373,81.0876 466.819,81.8924 467.266,81.0876 467.712,81.0876 468.158,81.0876 468.605,80.6852 469.051,81.0876 469.498,81.0876 469.944,81.0876 470.39,81.0876 470.837,81.0876 471.283,81.0876 471.73,80.6852 472.176,80.6852 472.622,80.6852 473.069,80.6852 473.515,80.6852 473.962,81.0876 474.408,80.6852 474.854,81.0876 475.301,80.6852 475.747,80.2829 476.194,80.2829 476.64,80.6852 477.086,80.6852 477.533,79.8805 477.979,80.6852 478.426,80.6852 478.872,80.6852 479.318,80.2829 479.765,80.2829 480.211,79.8805 480.658,79.8805 481.104,79.8805 481.55,80.2829 481.997,80.6852 482.443,79.8805 482.89,80.2829 483.336,79.4781 483.782,80.2829 484.229,79.8805 484.675,79.8805 485.122,79.4781 485.568,79.8805 486.014,79.4781 486.461,79.4781 486.907,79.8805 487.354,79.8805 487.8,80.2829 488.246,79.4781 488.693,79.0757 489.139,79.8805 489.586,79.0757 490.032,79.0757 490.478,79.4781 490.925,79.4781 491.371,79.4781 491.818,79.0757 492.264,79.0757 492.71,79.0757 493.157,79.0757 493.603,79.4781 494.05,79.0757 494.496,79.0757 494.942,79.4781 495.389,79.0757 495.835,79.0757 496.282,79.0757 496.728,79.0757 497.174,79.0757 497.621,79.0757 498.067,79.0757 498.514,79.0757 498.96,79.0757 499.406,79.0757 499.853,79.0757 500.299,79.0757 500.746,79.0757 501.192,79.0757 501.638,78.6734 502.085,79.0757 502.531,78.6734 502.978,79.0757 503.424,78.6734 503.87,79.0757 504.317,78.6734 504.763,78.271 505.21,78.6734 505.656,79.0757 506.102,79.0757 506.549,79.0757 506.995,78.6734 507.442,79.0757 507.888,78.271 508.334,78.6734 508.781,79.0757 509.227,78.6734 509.674,78.6734 510.12,79.0757 510.566,79.0757 511.013,78.6734 511.459,78.6734 511.906,78.271 512.352,78.6734 512.798,79.0757 513.245,78.6734 513.691,78.6734 514.138,78.271 514.584,78.6734 515.03,78.6734 515.477,78.271 515.923,78.271 516.37,78.271 516.816,78.271 517.262,77.8686 517.709,78.271 518.155,78.271 518.602,78.6734 519.048,78.6734 519.494,78.271 519.941,78.271 520.387,77.8686 520.834,78.271 521.28,78.6734 521.726,77.8686 521.726,77.8686"/>
<polyline fill="none" stroke="#262626" stroke-width="0.5" stroke-linecap="butt" stroke-linejoin="miter" stroke-opacity="0.15" stroke-dasharray="16,0" points="74.88,384.48 74.88,32.4"/>
<text fill="#000000" x="298.08" y="22.4" font-size="11" text-anchor="middle" dy="0" font-family="Helvetica" font-weight="bold">40uf Capacitor charge time with 33 coin cell in series</text>
</g>
<clipPath id="cp00576432">
  <polygon points="0,432 576,432 576,0 0,0"/>
</clipPath>
<g clip-path="url(#cp00576432)">
<polygon fill="#ffffff" shape-rendering="crispEdges" points="455.311,35.5952 518.517,88.9012 518.517,35.5952"/>
<polygon fill="#ffffff" shape-rendering="crispEdges" points="455.311,35.5952 455.311,88.9012 518.517,88.9012"/>
<polyline fill="none" stroke="#262626" stroke-width="0.5" stroke-linecap="butt" stroke-linejoin="miter" stroke-dasharray="16,0" points="455.311,35.5952 518.517,35.5952"/>
<polyline fill="none" stroke="#262626" stroke-width="0.5" stroke-linecap="butt" stroke-linejoin="miter" stroke-dasharray="16,0" points="455.311,88.9012 455.311,35.5952"/>
<polyline fill="none" stroke="#262626" stroke-width="0.5" stroke-linecap="butt" stroke-linejoin="miter" stroke-dasharray="16,0" points="518.517,88.9012 518.517,35.5952"/>
<text fill="#000000" x="481.555" y="44.4795" font-size="10" text-anchor="start" dy="5" font-family="Helvetica">CR2016</text>
<text fill="#000000" x="481.555" y="62.2482" font-size="10" text-anchor="start" dy="5" font-family="Helvetica">CR2025</text>
<text fill="#000000" x="481.555" y="80.0169" font-size="10" text-anchor="start" dy="5" font-family="Helvetica">CR2032</text>
<polyline fill="none" stroke="#0071bc" stroke-width="0.5" stroke-linecap="butt" stroke-linejoin="miter" points="458.074,44.4795 478.792,44.4795"/>
<polyline fill="none" stroke="#d85218" stroke-width="0.5" stroke-linecap="butt" stroke-linejoin="miter" points="458.074,62.2482 478.792,62.2482"/>
<polyline fill="none" stroke="#ecb01f" stroke-width="0.5" stroke-linecap="butt" stroke-linejoin="miter" points="458.074,80.0169 478.792,80.0169"/>
<polyline fill="none" stroke="#262626" stroke-width="0.5" stroke-linecap="butt" stroke-linejoin="miter" stroke-dasharray="16,0" points="455.311,88.9012 518.517,88.9012"/>
</g>
</g>
</svg>
