<?xml version="1.0" encoding="UTF-8" standalone="no"?>
<svg xmlns="http://www.w3.org/2000/svg"
     xmlns:xlink="http://www.w3.org/1999/xlink"
     width="576px" height="432px" viewBox="0 0 576 432">
<title>gl2ps_renderer figure</title>
<desc>
Creator: GL2PS 1.4.0, (C) 1999-2017 C. Geuzaine
For: Octave
CreationDate: Wed Nov  8 12:01:36 2017
</desc>
<defs>
</defs>
<polygon fill="#ffffff" points="0,0 576,0 576,432 0,432"/>
<g>
<polygon fill="#ffffff" points="0,432 576,432 576,0 0,0" shape-rendering="crispEdges"/>
<clipPath id="cp00576432">
  <polygon points="0,432 576,432 576,0 0,0"/>
</clipPath>
<g clip-path="url(#cp00576432)">
<polygon fill="#ffffff" shape-rendering="crispEdges" points="74.88,32.4 74.88,384.48 521.28,384.48"/>
<polygon fill="#ffffff" shape-rendering="crispEdges" points="74.88,32.4 521.28,384.48 521.28,32.4"/>
<polyline fill="none" stroke="#262626" stroke-width="0.5" stroke-linecap="butt" stroke-linejoin="miter" stroke-opacity="0.15" stroke-dasharray="16,0" points="186.48,384.48 186.48,32.4"/>
<polyline fill="none" stroke="#262626" stroke-width="0.5" stroke-linecap="butt" stroke-linejoin="miter" stroke-opacity="0.15" stroke-dasharray="16,0" points="298.08,384.48 298.08,32.4"/>
<polyline fill="none" stroke="#262626" stroke-width="0.5" stroke-linecap="butt" stroke-linejoin="miter" stroke-opacity="0.15" stroke-dasharray="16,0" points="409.68,384.48 409.68,32.4"/>
<polyline fill="none" stroke="#262626" stroke-width="0.5" stroke-linecap="butt" stroke-linejoin="miter" stroke-opacity="0.15" stroke-dasharray="16,0" points="521.28,384.48 521.28,32.4"/>
<polyline fill="none" stroke="#262626" stroke-width="0.5" stroke-linecap="butt" stroke-linejoin="miter" points="74.88,384.48 74.88,380.015"/>
<polyline fill="none" stroke="#262626" stroke-width="0.5" stroke-linecap="butt" stroke-linejoin="miter" points="74.88,32.4 74.88,36.865"/>
<polyline fill="none" stroke="#262626" stroke-width="0.5" stroke-linecap="butt" stroke-linejoin="miter" points="186.48,384.48 186.48,380.015"/>
<polyline fill="none" stroke="#262626" stroke-width="0.5" stroke-linecap="butt" stroke-linejoin="miter" points="186.48,32.4 186.48,36.865"/>
<polyline fill="none" stroke="#262626" stroke-width="0.5" stroke-linecap="butt" stroke-linejoin="miter" points="298.08,384.48 298.08,380.015"/>
<polyline fill="none" stroke="#262626" stroke-width="0.5" stroke-linecap="butt" stroke-linejoin="miter" points="298.08,32.4 298.08,36.865"/>
<polyline fill="none" stroke="#262626" stroke-width="0.5" stroke-linecap="butt" stroke-linejoin="miter" points="409.68,384.48 409.68,380.015"/>
<polyline fill="none" stroke="#262626" stroke-width="0.5" stroke-linecap="butt" stroke-linejoin="miter" points="409.68,32.4 409.68,36.865"/>
<polyline fill="none" stroke="#262626" stroke-width="0.5" stroke-linecap="butt" stroke-linejoin="miter" points="521.28,384.48 521.28,380.015"/>
<polyline fill="none" stroke="#262626" stroke-width="0.5" stroke-linecap="butt" stroke-linejoin="miter" points="521.28,32.4 521.28,36.865"/>
<text fill="#262626" x="74.88" y="389.481" font-size="10" text-anchor="middle" dy="10" font-family="Helvetica">0</text>
<text fill="#262626" x="186.48" y="389.481" font-size="10" text-anchor="middle" dy="10" font-family="Helvetica">0.01</text>
<text fill="#262626" x="298.08" y="389.481" font-size="10" text-anchor="middle" dy="10" font-family="Helvetica">0.02</text>
<text fill="#262626" x="409.68" y="389.481" font-size="10" text-anchor="middle" dy="10" font-family="Helvetica">0.03</text>
<text fill="#262626" x="521.28" y="389.481" font-size="10" text-anchor="middle" dy="10" font-family="Helvetica">0.04</text>
<polyline fill="none" stroke="#262626" stroke-width="0.5" stroke-linecap="butt" stroke-linejoin="miter" stroke-opacity="0.15" stroke-dasharray="16,0" points="74.88,384.48 521.28,384.48"/>
<polyline fill="none" stroke="#262626" stroke-width="0.5" stroke-linecap="butt" stroke-linejoin="miter" stroke-opacity="0.15" stroke-dasharray="16,0" points="74.88,334.183 521.28,334.183"/>
<polyline fill="none" stroke="#262626" stroke-width="0.5" stroke-linecap="butt" stroke-linejoin="miter" stroke-opacity="0.15" stroke-dasharray="16,0" points="74.88,283.886 521.28,283.886"/>
<polyline fill="none" stroke="#262626" stroke-width="0.5" stroke-linecap="butt" stroke-linejoin="miter" stroke-opacity="0.15" stroke-dasharray="16,0" points="74.88,233.589 521.28,233.589"/>
<polyline fill="none" stroke="#262626" stroke-width="0.5" stroke-linecap="butt" stroke-linejoin="miter" stroke-opacity="0.15" stroke-dasharray="16,0" points="74.88,183.291 521.28,183.291"/>
<polyline fill="none" stroke="#262626" stroke-width="0.5" stroke-linecap="butt" stroke-linejoin="miter" stroke-opacity="0.15" stroke-dasharray="16,0" points="74.88,132.994 521.28,132.994"/>
<polyline fill="none" stroke="#262626" stroke-width="0.5" stroke-linecap="butt" stroke-linejoin="miter" stroke-opacity="0.15" stroke-dasharray="16,0" points="74.88,82.6971 521.28,82.6971"/>
<polyline fill="none" stroke="#262626" stroke-width="0.5" stroke-linecap="butt" stroke-linejoin="miter" stroke-opacity="0.15" stroke-dasharray="16,0" points="74.88,32.4 521.28,32.4"/>
<polyline fill="none" stroke="#262626" stroke-width="0.5" stroke-linecap="butt" stroke-linejoin="miter" points="74.88,384.48 79.348,384.48"/>
<polyline fill="none" stroke="#262626" stroke-width="0.5" stroke-linecap="butt" stroke-linejoin="miter" points="521.28,384.48 516.812,384.48"/>
<polyline fill="none" stroke="#262626" stroke-width="0.5" stroke-linecap="butt" stroke-linejoin="miter" points="74.88,334.183 79.348,334.183"/>
<polyline fill="none" stroke="#262626" stroke-width="0.5" stroke-linecap="butt" stroke-linejoin="miter" points="521.28,334.183 516.812,334.183"/>
<polyline fill="none" stroke="#262626" stroke-width="0.5" stroke-linecap="butt" stroke-linejoin="miter" points="74.88,283.886 79.348,283.886"/>
<polyline fill="none" stroke="#262626" stroke-width="0.5" stroke-linecap="butt" stroke-linejoin="miter" points="521.28,283.886 516.812,283.886"/>
<polyline fill="none" stroke="#262626" stroke-width="0.5" stroke-linecap="butt" stroke-linejoin="miter" points="74.88,233.589 79.348,233.589"/>
<polyline fill="none" stroke="#262626" stroke-width="0.5" stroke-linecap="butt" stroke-linejoin="miter" points="521.28,233.589 516.812,233.589"/>
<polyline fill="none" stroke="#262626" stroke-width="0.5" stroke-linecap="butt" stroke-linejoin="miter" points="74.88,183.291 79.348,183.291"/>
<polyline fill="none" stroke="#262626" stroke-width="0.5" stroke-linecap="butt" stroke-linejoin="miter" points="521.28,183.291 516.812,183.291"/>
<polyline fill="none" stroke="#262626" stroke-width="0.5" stroke-linecap="butt" stroke-linejoin="miter" points="74.88,132.994 79.348,132.994"/>
<polyline fill="none" stroke="#262626" stroke-width="0.5" stroke-linecap="butt" stroke-linejoin="miter" points="521.28,132.994 516.812,132.994"/>
<polyline fill="none" stroke="#262626" stroke-width="0.5" stroke-linecap="butt" stroke-linejoin="miter" points="74.88,82.6971 79.348,82.6971"/>
<polyline fill="none" stroke="#262626" stroke-width="0.5" stroke-linecap="butt" stroke-linejoin="miter" points="521.28,82.6971 516.812,82.6971"/>
<polyline fill="none" stroke="#262626" stroke-width="0.5" stroke-linecap="butt" stroke-linejoin="miter" points="74.88,32.4 79.348,32.4"/>
<polyline fill="none" stroke="#262626" stroke-width="0.5" stroke-linecap="butt" stroke-linejoin="miter" points="521.28,32.4 516.812,32.4"/>
<text fill="#262626" x="69.8755" y="384.48" font-size="10" text-anchor="end" dy="5" font-family="Helvetica">-20</text>
<text fill="#262626" x="69.8755" y="334.183" font-size="10" text-anchor="end" dy="5" font-family="Helvetica">0</text>
<text fill="#262626" x="69.8755" y="283.886" font-size="10" text-anchor="end" dy="5" font-family="Helvetica">20</text>
<text fill="#262626" x="69.8755" y="233.589" font-size="10" text-anchor="end" dy="5" font-family="Helvetica">40</text>
<text fill="#262626" x="69.8755" y="183.291" font-size="10" text-anchor="end" dy="5" font-family="Helvetica">60</text>
<text fill="#262626" x="69.8755" y="132.994" font-size="10" text-anchor="end" dy="5" font-family="Helvetica">80</text>
<text fill="#262626" x="69.8755" y="82.6971" font-size="10" text-anchor="end" dy="5" font-family="Helvetica">100</text>
<text fill="#262626" x="69.8755" y="32.4" font-size="10" text-anchor="end" dy="5" font-family="Helvetica">120</text>
<polyline fill="none" stroke="#262626" stroke-width="0.5" stroke-linecap="butt" stroke-linejoin="miter" stroke-dasharray="16,0" points="74.88,384.48 521.28,384.48"/>
<polyline fill="none" stroke="#262626" stroke-width="0.5" stroke-linecap="butt" stroke-linejoin="miter" stroke-dasharray="16,0" points="74.88,32.4 521.28,32.4"/>
<polyline fill="none" stroke="#262626" stroke-width="0.5" stroke-linecap="butt" stroke-linejoin="miter" stroke-dasharray="16,0" points="74.88,384.48 74.88,32.4"/>
<polyline fill="none" stroke="#262626" stroke-width="0.5" stroke-linecap="butt" stroke-linejoin="miter" stroke-dasharray="16,0" points="521.28,384.48 521.28,32.4"/>
<text fill="#262626" x="298.08" y="403.481" font-size="11" text-anchor="middle" dy="11" font-family="Helvetica">seconds</text>
<text fill="#262626" x="47.8755" y="208.44" font-size="11" transform="rotate(-90, 47.8755, 208.44)" text-anchor="middle" dy="0" font-family="Helvetica">volt</text>
<polyline fill="none" stroke="#0071bc" stroke-width="0.5" stroke-linecap="butt" stroke-linejoin="miter" points="74.4336,332.171 74.4336,332.171 74.88,329.757 75.3264,330.159 75.7728,327.342 76.2192,326.135 76.6656,322.112 77.112,320.904 77.5584,315.674 78.0048,315.271 78.4512,312.454 78.8976,310.04 79.344,307.224 79.7904,304.407 80.2368,301.993 80.6832,299.981 81.1296,297.567 81.576,295.152 82.0224,292.336 82.4688,290.726 82.9152,288.312 83.3616,286.3 83.808,283.886 84.2544,282.276 84.7008,280.264 85.1472,278.655 85.5936,276.241 86.04,274.229 86.4864,271.814 86.9328,270.205 87.3792,268.193 87.8256,266.181 88.272,264.169 88.7184,262.56 89.1648,260.95 89.6112,259.341 90.0576,257.731 90.504,255.719 90.9504,254.915 91.3968,252.5 91.8432,250.891 92.2896,249.281 92.736,248.074 93.1824,246.867 93.6288,244.855 94.0752,243.246 94.5216,242.039 94.968,240.831 95.4144,238.819 95.8608,237.21 96.3072,235.6 96.7536,234.796 97.2,233.186 97.6464,231.979 98.0928,230.772 98.5392,229.162 98.9856,227.955 99.432,226.748 99.8784,225.139 100.325,224.334 100.771,223.127 101.218,222.322 101.664,220.31 102.11,219.505 102.557,218.298 103.003,217.493 103.45,215.079 103.896,214.274 104.342,213.872 104.789,213.067 105.235,211.86 105.682,210.653 106.128,209.446 106.574,207.836 107.021,207.836 107.467,206.227 107.914,205.422 108.36,205.02 108.806,203.813 109.253,202.203 109.699,201.398 110.146,200.996 110.592,198.984 111.038,198.179 111.485,197.777 111.931,196.972 112.378,195.363 112.824,194.96 113.27,193.753 113.717,192.948 114.163,192.144 114.61,191.741 115.056,190.937 115.502,189.729 115.949,188.925 116.395,188.522 116.842,187.718 117.288,186.913 117.734,186.108 118.181,185.303 118.627,184.901 119.074,183.291 119.52,182.889 119.966,182.084 120.413,181.28 120.859,181.28 121.306,180.072 121.752,178.865 122.198,178.463 122.645,177.256 123.091,176.853 123.538,176.853 123.984,175.646 124.43,175.646 124.877,174.842 125.323,174.439 125.77,173.232 126.216,172.83 126.662,172.025 127.109,172.025 127.555,171.622 128.002,170.415 128.448,169.611 128.894,169.611 129.341,168.404 129.787,168.001 130.234,167.599 130.68,167.196 131.126,165.989 131.573,165.989 132.019,165.587 132.466,165.184 132.912,163.977 133.358,163.575 133.805,162.368 134.251,162.368 134.698,161.965 135.144,161.563 135.59,161.563 136.037,160.356 136.483,159.954 136.93,159.149 137.376,158.344 137.822,157.942 138.269,157.539 138.715,157.539 139.162,157.942 139.608,156.735 140.054,156.332 140.501,155.93 140.947,155.527 141.394,155.527 141.84,154.723 142.286,153.918 142.733,153.918 143.179,153.516 143.626,152.711 144.072,152.308 144.518,152.711 144.965,152.308 145.411,151.504 145.858,150.297 146.304,150.297 146.75,149.894 147.197,149.492 147.643,149.089 148.09,148.285 148.536,148.687 148.982,147.882 149.429,147.882 149.875,147.077 150.322,147.077 150.768,146.273 151.214,145.87 151.661,145.87 152.107,145.87 152.554,145.066 153,144.261 153.446,143.858 153.893,143.456 154.339,143.456 154.786,143.858 155.232,142.651 155.678,142.249 156.125,142.249 156.571,141.444 157.018,141.444 157.464,141.847 157.91,140.639 158.357,140.237 158.803,140.639 159.25,139.835 159.696,139.835 160.142,139.432 160.589,139.432 161.035,139.03 161.482,139.432 161.928,139.03 162.374,138.225 162.821,137.823 163.267,137.823 163.714,137.823 164.16,137.42 164.606,137.42 165.053,137.018 165.499,135.811 165.946,136.213 166.392,135.409 166.838,135.409 167.285,135.006 167.731,134.604 168.178,134.604 168.624,134.201 169.07,133.799 169.517,133.799 169.963,133.397 170.41,133.799 170.856,133.397 171.302,132.994 171.749,132.994 172.195,131.787 172.642,131.787 173.088,131.787 173.534,131.787 173.981,131.787 174.427,131.385 174.874,130.58 175.32,130.58 175.766,130.178 176.213,130.178 176.659,130.178 177.106,129.373 177.552,129.775 177.998,129.373 178.445,128.971 178.891,128.166 179.338,127.763 179.784,127.361 180.23,127.763 180.677,127.361 181.123,127.763 181.57,127.763 182.016,127.361 182.462,126.959 182.909,126.556 183.355,126.154 183.802,125.752 184.248,125.752 184.694,126.154 185.141,125.752 185.587,125.752 186.034,125.349 186.48,125.349 186.926,125.349 187.373,123.74 187.819,124.544 188.266,123.74 188.712,123.74 189.158,123.74 189.605,123.74 190.051,123.337 190.498,123.337 190.944,123.337 191.39,123.337 191.837,122.935 192.283,122.532 192.73,122.935 193.176,122.13 193.622,122.13 194.069,121.728 194.515,122.13 194.962,121.728 195.408,121.728 195.854,121.325 196.301,121.728 196.747,121.325 197.194,120.923 197.64,121.728 198.086,120.118 198.533,120.923 198.979,120.521 199.426,119.716 199.872,120.118 200.318,119.716 200.765,119.313 201.211,119.716 201.658,119.716 202.104,119.313 202.55,119.313 202.997,118.106 203.443,118.106 203.89,118.509 204.336,117.704 204.782,117.704 205.229,117.704 205.675,118.106 206.122,117.704 206.568,117.302 207.014,117.704 207.461,117.302 207.907,117.302 208.354,117.302 208.8,117.704 209.246,117.302 209.693,116.899 210.139,116.899 210.586,116.899 211.032,116.497 211.478,115.692 211.925,116.497 212.371,115.692 212.818,115.692 213.264,115.692 213.71,115.692 214.157,115.29 214.603,115.692 215.05,115.29 215.496,115.29 215.942,114.083 216.389,114.887 216.835,114.887 217.282,113.68 217.728,114.485 218.174,113.68 218.621,114.083 219.067,113.68 219.514,113.68 219.96,113.68 220.406,113.278 220.853,113.278 221.299,113.278 221.746,112.071 222.192,112.875 222.638,112.875 223.085,112.473 223.531,112.071 223.978,112.071 224.424,112.473 224.87,112.071 225.317,111.668 225.763,111.668 226.21,111.266 226.656,111.668 227.102,111.668 227.549,111.266 227.995,111.266 228.442,110.864 228.888,110.864 229.334,110.461 229.781,111.266 230.227,111.266 230.674,111.266 231.12,110.864 231.566,110.864 232.013,110.864 232.459,110.864 232.906,110.059 233.352,110.059 233.798,110.461 234.245,110.059 234.691,110.059 235.138,110.059 235.584,109.656 236.03,109.254 236.477,109.656 236.923,109.254 237.37,109.656 237.816,109.656 238.262,108.852 238.709,109.254 239.155,108.852 239.602,108.852 240.048,109.254 240.494,108.852 240.941,108.852 241.387,108.449 241.834,108.047 242.28,108.449 242.726,108.047 243.173,107.645 243.619,107.645 244.066,107.645 244.512,107.645 244.958,107.645 245.405,107.645 245.851,107.242 246.298,107.242 246.744,107.645 247.19,107.645 247.637,107.242 248.083,107.242 248.53,106.84 248.976,106.84 249.422,106.84 249.869,107.242 250.315,106.84 250.762,107.242 251.208,106.437 251.654,106.84 252.101,106.437 252.547,106.437 252.994,106.84 253.44,106.84 253.886,105.633 254.333,106.437 254.779,105.633 255.226,106.035 255.672,105.633 256.118,105.633 256.565,105.23 257.011,105.633 257.458,105.633 257.904,105.633 258.35,105.633 258.797,105.23 259.243,105.23 259.69,105.23 260.136,105.23 260.582,105.23 261.029,105.23 261.475,105.23 261.922,105.23 262.368,104.828 262.814,105.23 263.261,104.828 263.707,104.828 264.154,104.426 264.6,104.023 265.046,104.426 265.493,105.23 265.939,104.426 266.386,104.023 266.832,104.023 267.278,104.023 267.725,104.023 268.171,104.023 268.618,103.621 269.064,103.621 269.51,103.621 269.957,103.218 270.403,103.218 270.85,103.218 271.296,103.621 271.742,103.621 272.189,103.218 272.635,103.218 273.082,103.218 273.528,103.218 273.974,102.414 274.421,103.218 274.867,103.218 275.314,103.218 275.76,103.218 276.206,102.816 276.653,102.414 277.099,102.816 277.546,102.011 277.992,102.011 278.438,101.609 278.885,102.414 279.331,102.011 279.778,102.414 280.224,101.609 280.67,101.609 281.117,101.609 281.563,101.609 282.01,102.011 282.456,101.206 282.902,101.206 283.349,102.011 283.795,101.206 284.242,101.206 284.688,101.609 285.134,101.609 285.581,100.804 286.027,101.206 286.474,101.206 286.92,100.804 287.366,101.206 287.813,101.206 288.259,100.804 288.706,100.804 289.152,101.206 289.598,100.804 290.045,100.804 290.491,100.804 290.938,100.804 291.384,100.402 291.83,100.804 292.277,100.804 292.723,100.402 293.17,100.804 293.616,100.804 294.062,99.9994 294.509,100.402 294.955,99.9994 295.402,99.9994 295.848,99.9994 296.294,100.402 296.741,99.597 297.187,99.9994 297.634,100.804 298.08,99.9994 298.526,99.597 298.973,99.9994 299.419,100.402 299.866,99.597 300.312,99.597 300.758,99.597 301.205,99.9994 301.651,99.597 302.098,99.1946 302.544,99.1946 302.99,99.597 303.437,99.1946 303.883,99.1946 304.33,99.1946 304.776,99.1946 305.222,99.1946 305.669,99.1946 306.115,98.7922 306.562,99.1946 307.008,99.1946 307.454,98.3898 307.901,99.1946 308.347,98.7922 308.794,98.7922 309.24,98.7922 309.686,97.5851 310.133,97.9875 310.579,98.7922 311.026,97.9875 311.472,97.5851 311.918,99.1946 312.365,98.7922 312.811,97.9875 313.258,97.9875 313.704,97.5851 314.15,97.5851 314.597,97.1827 315.043,97.5851 315.49,97.9875 315.936,97.5851 316.382,97.5851 316.829,97.5851 317.275,97.5851 317.722,97.1827 318.168,97.5851 318.614,97.5851 319.061,97.1827 319.507,97.1827 319.954,97.1827 320.4,97.5851 320.846,97.1827 321.293,97.1827 321.739,97.1827 322.186,96.7803 322.632,96.7803 323.078,96.7803 323.525,97.1827 323.971,97.1827 324.418,97.1827 324.864,96.7803 325.31,97.1827 325.757,97.1827 326.203,96.378 326.65,96.378 327.096,97.1827 327.542,97.1827 327.989,96.7803 328.435,96.378 328.882,95.9756 329.328,96.378 329.774,95.9756 330.221,95.5732 330.667,95.9756 331.114,96.7803 331.56,96.7803 332.006,95.1708 332.453,95.5732 332.899,95.5732 333.346,95.1708 333.792,95.9756 334.238,95.9756 334.685,95.9756 335.131,95.5732 335.578,95.5732 336.024,95.5732 336.47,95.5732 336.917,95.5732 337.363,95.1708 337.81,95.1708 338.256,95.1708 338.702,94.7685 339.149,95.5732 339.595,95.9756 340.042,95.1708 340.488,95.1708 340.934,94.7685 341.381,95.1708 341.827,95.1708 342.274,94.7685 342.72,95.1708 343.166,95.1708 343.613,94.7685 344.059,94.7685 344.506,95.1708 344.952,95.1708 345.398,95.1708 345.845,95.1708 346.291,94.7685 346.738,94.7685 347.184,94.7685 347.63,94.7685 348.077,94.7685 348.523,94.7685 348.97,94.7685 349.416,94.7685 349.862,94.7685 350.309,94.7685 350.755,94.7685 351.202,94.7685 351.648,94.3661 352.094,94.7685 352.541,94.7685 352.987,94.7685 353.434,94.7685 353.88,94.3661 354.326,94.7685 354.773,94.3661 355.219,94.3661 355.666,94.7685 356.112,94.3661 356.558,93.9637 357.005,94.3661 357.451,93.9637 357.898,94.7685 358.344,94.3661 358.79,94.3661 359.237,94.7685 359.683,94.7685 360.13,93.9637 360.576,94.3661 361.022,94.3661 361.469,93.5613 361.915,93.5613 362.362,93.5613 362.808,93.5613 363.254,93.9637 363.701,93.5613 364.147,93.159 364.594,93.159 365.04,93.159 365.486,93.159 365.933,93.5613 366.379,93.9637 366.826,93.9637 367.272,93.5613 367.718,93.159 368.165,93.9637 368.611,93.5613 369.058,93.5613 369.504,93.159 369.95,93.159 370.397,93.159 370.843,93.159 371.29,93.159 371.736,93.5613 372.182,92.7566 372.629,93.159 373.075,92.7566 373.522,93.159 373.968,93.159 374.414,93.159 374.861,92.7566 375.307,93.159 375.754,92.7566 376.2,93.5613 376.646,92.7566 377.093,92.7566 377.539,92.7566 377.986,92.3542 378.432,92.7566 378.878,92.3542 379.325,92.3542 379.771,93.159 380.218,92.7566 380.664,92.3542 381.11,91.9518 381.557,92.7566 382.003,92.3542 382.45,92.3542 382.896,92.7566 383.342,92.7566 383.789,92.3542 384.235,92.3542 384.682,91.9518 385.128,91.9518 385.574,91.9518 386.021,91.5494 386.467,92.3542 386.914,91.9518 387.36,91.9518 387.806,91.9518 388.253,92.7566 388.699,91.9518 389.146,92.3542 389.592,91.9518 390.038,91.9518 390.485,91.5494 390.931,91.9518 391.378,91.5494 391.824,91.5494 392.27,91.1471 392.717,91.9518 393.163,91.5494 393.61,91.5494 394.056,91.9518 394.502,91.1471 394.949,91.1471 395.395,91.5494 395.842,91.5494 396.288,91.5494 396.734,91.5494 397.181,91.5494 397.627,91.5494 398.074,91.1471 398.52,91.1471 398.966,91.5494 399.413,91.1471 399.859,90.7447 400.306,90.7447 400.752,91.1471 401.198,91.5494 401.645,90.7447 402.091,90.7447 402.538,90.7447 402.984,91.1471 403.43,91.1471 403.877,91.1471 404.323,91.1471 404.77,90.7447 405.216,90.7447 405.662,91.1471 406.109,91.1471 406.555,90.7447 407.002,91.1471 407.448,91.1471 407.894,91.1471 408.341,91.1471 408.787,91.1471 409.234,90.7447 409.68,90.7447 410.126,91.1471 410.573,90.7447 411.019,91.1471 411.466,90.7447 411.912,90.7447 412.358,90.7447 412.805,90.7447 413.251,90.7447 413.698,90.7447 414.144,90.7447 414.59,90.7447 415.037,90.7447 415.483,90.7447 415.93,90.7447 416.376,90.7447 416.822,90.7447 417.269,90.7447 417.715,90.7447 418.162,90.7447 418.608,90.7447 419.054,90.7447 419.501,90.7447 419.947,90.3423 420.394,89.9399 420.84,90.7447 421.286,90.7447 421.733,90.7447 422.179,90.7447 422.626,90.3423 423.072,90.7447 423.518,90.3423 423.965,90.7447 424.411,90.7447 424.858,90.3423 425.304,90.7447 425.75,90.3423 426.197,90.7447 426.643,89.9399 427.09,90.3423 427.536,90.3423 427.982,90.3423 428.429,89.5376 428.875,90.7447 429.322,90.3423 429.768,90.3423 430.214,89.9399 430.661,89.9399 431.107,90.3423 431.554,90.3423 432,90.3423 432.446,89.9399 432.893,89.1352 433.339,89.9399 433.786,89.5376 434.232,89.5376 434.678,89.1352 435.125,89.9399 435.571,90.3423 436.018,90.3423 436.464,90.3423 436.91,89.5376 437.357,89.9399 437.803,89.1352 438.25,89.1352 438.696,89.1352 439.142,89.9399 439.589,89.1352 440.035,89.5376 440.482,89.5376 440.928,89.9399 441.374,89.5376 441.821,89.5376 442.267,89.5376 442.714,89.1352 443.16,89.5376 443.606,89.5376 444.053,89.1352 444.499,89.1352 444.946,89.5376 445.392,89.1352 445.838,89.5376 446.285,88.7328 446.731,88.7328 447.178,88.7328 447.624,89.5376 448.07,89.1352 448.517,89.1352 448.963,89.5376 449.41,89.5376 449.856,88.7328 450.302,89.1352 450.749,89.1352 451.195,89.5376 451.642,89.1352 452.088,88.7328 452.534,89.1352 452.981,89.1352 453.427,88.7328 453.874,88.7328 454.32,89.1352 454.766,89.1352 455.213,88.7328 455.659,89.1352 456.106,89.1352 456.552,88.7328 456.998,88.7328 457.445,88.7328 457.891,89.1352 458.338,88.7328 458.784,88.7328 459.23,88.7328 459.677,89.1352 460.123,88.7328 460.57,88.7328 461.016,88.7328 461.462,88.7328 461.909,88.7328 462.355,88.7328 462.802,88.7328 463.248,88.7328 463.694,88.7328 464.141,87.9281 464.587,87.9281 465.034,88.7328 465.48,88.3304 465.926,88.3304 466.373,88.7328 466.819,88.3304 467.266,88.7328 467.712,88.7328 468.158,88.3304 468.605,88.7328 469.051,88.3304 469.498,88.3304 469.944,88.7328 470.39,88.3304 470.837,87.9281 471.283,88.3304 471.73,88.7328 472.176,88.7328 472.622,87.5257 473.069,87.9281 473.515,88.3304 473.962,88.7328 474.408,88.3304 474.854,88.3304 475.301,88.3304 475.747,87.9281 476.194,88.3304 476.64,87.9281 477.086,87.9281 477.533,87.9281 477.979,88.3304 478.426,87.9281 478.872,87.9281 479.318,87.5257 479.765,87.9281 480.211,87.9281 480.658,87.5257 481.104,87.5257 481.55,87.9281 481.997,87.5257 482.443,87.5257 482.89,87.9281 483.336,87.5257 483.782,87.9281 484.229,88.3304 484.675,87.5257 485.122,87.9281 485.568,87.5257 486.014,86.7209 486.461,87.5257 486.907,87.5257 487.354,87.5257 487.8,87.1233 488.246,87.5257 488.693,86.7209 489.139,86.7209 489.586,87.1233 490.032,87.1233 490.478,87.9281 490.925,87.9281 491.371,87.5257 491.818,87.5257 492.264,87.1233 492.71,87.9281 493.157,87.1233 493.603,87.1233 494.05,87.5257 494.496,86.7209 494.942,87.1233 495.389,87.1233 495.835,87.1233 496.282,86.7209 496.728,87.1233 497.174,86.7209 497.621,87.5257 498.067,86.7209 498.514,86.7209 498.96,86.7209 499.406,86.7209 499.853,86.7209 500.299,86.7209 500.746,86.7209 501.192,86.7209 501.638,86.7209 502.085,86.7209 502.531,87.1233 502.978,86.7209 503.424,86.7209 503.87,87.1233 504.317,86.7209 504.763,87.1233 505.21,86.7209 505.656,87.1233 506.102,86.7209 506.549,87.1233 506.995,86.7209 507.442,87.1233 507.888,86.7209 508.334,86.7209 508.781,86.7209 509.227,87.1233 509.674,86.7209 510.12,87.1233 510.566,86.7209 511.013,86.7209 511.459,86.7209 511.906,86.7209 512.352,86.7209 512.798,87.1233 513.245,86.7209 513.691,86.7209 514.138,86.7209 514.584,86.7209 515.03,86.7209 515.477,86.7209 515.923,86.7209 516.37,86.7209 516.816,86.7209 517.262,86.7209 517.709,86.7209 518.155,86.7209 518.602,86.7209 519.048,87.1233 519.494,86.3185 519.941,86.7209 520.387,86.7209 520.834,86.7209 521.28,86.7209 521.726,86.7209 521.726,86.7209"/>
<polyline fill="none" stroke="#d85218" stroke-width="0.5" stroke-linecap="butt" stroke-linejoin="miter" points="74.4336,329.354 74.4336,329.354 74.88,326.135 75.3264,322.916 75.7728,319.697 76.2192,317.283 76.6656,314.466 77.112,310.04 77.5584,306.419 78.0048,303.2 78.4512,299.981 78.8976,297.567 79.344,293.14 79.7904,290.324 80.2368,287.105 80.6832,283.886 81.1296,280.264 81.576,277.85 82.0224,275.436 82.4688,272.217 82.9152,268.998 83.3616,266.181 83.808,264.572 84.2544,261.755 84.7008,259.743 85.1472,256.524 85.5936,255.317 86.04,252.903 86.4864,249.684 86.9328,248.477 87.3792,246.062 87.8256,244.453 88.272,242.441 88.7184,240.429 89.1648,238.417 89.6112,236.405 90.0576,234.796 90.504,233.186 90.9504,231.174 91.3968,229.565 91.8432,228.358 92.2896,226.346 92.736,225.139 93.1824,222.724 93.6288,221.517 94.0752,220.31 94.5216,218.701 94.968,216.689 95.4144,216.286 95.8608,214.677 96.3072,213.067 96.7536,211.458 97.2,210.653 97.6464,208.641 98.0928,208.239 98.5392,207.032 98.9856,206.227 99.432,204.215 99.8784,203.41 100.325,202.606 100.771,201.398 101.218,200.191 101.664,199.387 102.11,198.179 102.557,197.375 103.003,196.168 103.45,194.558 103.896,193.753 104.342,192.546 104.789,191.741 105.235,191.339 105.682,190.132 106.128,189.327 106.574,188.522 107.021,186.913 107.467,186.913 107.914,186.108 108.36,184.901 108.806,183.694 109.253,183.291 109.699,182.487 110.146,181.28 110.592,180.475 111.038,180.072 111.485,179.268 111.931,178.463 112.378,178.061 112.824,176.451 113.27,176.451 113.717,175.646 114.163,174.842 114.61,174.842 115.056,174.439 115.502,173.232 115.949,172.427 116.395,171.22 116.842,171.622 117.288,170.415 117.734,170.013 118.181,169.611 118.627,169.611 119.074,168.001 119.52,168.001 119.966,167.196 120.413,166.794 120.859,165.587 121.306,165.587 121.752,165.587 122.198,164.782 122.645,164.38 123.091,163.575 123.538,162.77 123.984,162.368 124.43,161.965 124.877,161.161 125.323,161.161 125.77,160.356 126.216,159.954 126.662,159.954 127.109,159.551 127.555,159.149 128.002,158.746 128.448,157.942 128.894,157.942 129.341,156.735 129.787,157.137 130.234,156.332 130.68,155.93 131.126,155.527 131.573,155.125 132.019,154.32 132.466,154.723 132.912,153.918 133.358,153.516 133.805,153.516 134.251,153.113 134.698,152.308 135.144,152.308 135.59,151.504 136.037,151.906 136.483,151.504 136.93,150.699 137.376,149.894 137.822,149.492 138.269,149.492 138.715,149.492 139.162,148.687 139.608,148.687 140.054,147.882 140.501,147.48 140.947,147.882 141.394,147.077 141.84,146.675 142.286,145.87 142.733,145.87 143.179,146.273 143.626,145.066 144.072,145.468 144.518,145.066 144.965,145.066 145.411,144.261 145.858,143.456 146.304,143.456 146.75,143.054 147.197,143.456 147.643,143.054 148.09,142.651 148.536,142.651 148.982,142.651 149.429,141.444 149.875,141.847 150.322,141.847 150.768,141.444 151.214,141.042 151.661,140.639 152.107,141.042 152.554,141.042 153,139.432 153.446,139.432 153.893,139.432 154.339,139.432 154.786,139.432 155.232,139.03 155.678,138.628 156.125,137.823 156.571,138.628 157.018,137.823 157.464,137.42 157.91,137.018 158.357,137.42 158.803,137.018 159.25,137.018 159.696,136.616 160.142,136.616 160.589,136.616 161.035,136.213 161.482,135.811 161.928,135.811 162.374,135.409 162.821,135.006 163.267,135.006 163.714,135.409 164.16,135.006 164.606,134.604 165.053,135.006 165.499,133.799 165.946,133.397 166.392,133.799 166.838,133.397 167.285,133.397 167.731,133.397 168.178,133.397 168.624,133.397 169.07,132.994 169.517,132.592 169.963,132.19 170.41,132.592 170.856,131.787 171.302,131.787 171.749,131.385 172.195,131.385 172.642,130.982 173.088,130.982 173.534,130.982 173.981,130.58 174.427,130.58 174.874,130.982 175.32,130.178 175.766,130.58 176.213,129.373 176.659,129.775 177.106,129.775 177.552,129.373 177.998,129.373 178.445,129.373 178.891,128.568 179.338,129.373 179.784,128.971 180.23,127.361 180.677,128.568 181.123,127.763 181.57,127.763 182.016,127.361 182.462,127.361 182.909,127.361 183.355,127.361 183.802,126.959 184.248,126.959 184.694,127.361 185.141,126.959 185.587,126.556 186.034,126.959 186.48,126.556 186.926,126.556 187.373,125.349 187.819,125.752 188.266,126.556 188.712,126.154 189.158,125.752 189.605,125.349 190.051,125.349 190.498,124.947 190.944,125.349 191.39,124.947 191.837,124.947 192.283,124.947 192.73,124.544 193.176,124.544 193.622,124.142 194.069,124.142 194.515,124.142 194.962,123.74 195.408,124.142 195.854,124.142 196.301,123.74 196.747,122.935 197.194,122.935 197.64,122.935 198.086,122.935 198.533,122.935 198.979,123.337 199.426,122.532 199.872,122.935 200.318,122.935 200.765,122.13 201.211,121.728 201.658,121.728 202.104,122.532 202.55,121.728 202.997,121.728 203.443,121.325 203.89,121.325 204.336,121.728 204.782,121.325 205.229,121.325 205.675,121.325 206.122,120.923 206.568,121.325 207.014,121.325 207.461,120.923 207.907,120.923 208.354,120.521 208.8,120.923 209.246,119.716 209.693,120.923 210.139,120.521 210.586,120.923 211.032,120.118 211.478,120.521 211.925,119.716 212.371,120.521 212.818,119.313 213.264,119.716 213.71,119.313 214.157,118.911 214.603,119.313 215.05,119.313 215.496,118.509 215.942,118.911 216.389,118.911 216.835,118.911 217.282,118.509 217.728,118.911 218.174,118.911 218.621,118.509 219.067,118.509 219.514,118.106 219.96,118.106 220.406,118.106 220.853,118.106 221.299,118.106 221.746,117.302 222.192,117.704 222.638,117.302 223.085,117.302 223.531,117.302 223.978,117.704 224.424,116.899 224.87,117.302 225.317,116.899 225.763,116.899 226.21,116.899 226.656,117.302 227.102,117.302 227.549,116.497 227.995,116.899 228.442,116.899 228.888,116.899 229.334,116.497 229.781,116.497 230.227,116.497 230.674,116.094 231.12,116.497 231.566,116.497 232.013,115.692 232.459,115.29 232.906,116.094 233.352,115.29 233.798,115.692 234.245,115.29 234.691,115.29 235.138,114.887 235.584,114.887 236.03,115.29 236.477,115.29 236.923,115.29 237.37,114.485 237.816,114.485 238.262,114.887 238.709,114.485 239.155,115.29 239.602,114.485 240.048,114.485 240.494,114.083 240.941,114.887 241.387,114.485 241.834,114.083 242.28,114.485 242.726,114.083 243.173,114.083 243.619,114.083 244.066,114.083 244.512,113.278 244.958,113.68 245.405,113.278 245.851,113.68 246.298,114.083 246.744,113.278 247.19,113.278 247.637,113.278 248.083,113.278 248.53,112.875 248.976,113.278 249.422,112.875 249.869,113.68 250.315,112.875 250.762,112.473 251.208,112.875 251.654,112.473 252.101,112.473 252.547,112.473 252.994,112.473 253.44,112.473 253.886,112.473 254.333,112.473 254.779,112.875 255.226,112.071 255.672,112.473 256.118,111.668 256.565,112.071 257.011,111.266 257.458,112.071 257.904,111.668 258.35,111.668 258.797,111.668 259.243,111.266 259.69,111.266 260.136,111.668 260.582,111.266 261.029,110.864 261.475,111.668 261.922,111.668 262.368,111.266 262.814,110.864 263.261,111.266 263.707,110.864 264.154,110.864 264.6,110.864 265.046,110.864 265.493,110.864 265.939,110.864 266.386,110.461 266.832,110.864 267.278,110.461 267.725,110.461 268.171,110.461 268.618,110.461 269.064,110.864 269.51,110.059 269.957,110.461 270.403,110.461 270.85,110.059 271.296,110.461 271.742,109.656 272.189,110.059 272.635,110.059 273.082,109.254 273.528,110.059 273.974,109.254 274.421,109.254 274.867,109.656 275.314,109.656 275.76,110.059 276.206,109.254 276.653,109.254 277.099,109.656 277.546,108.852 277.992,109.656 278.438,109.656 278.885,108.852 279.331,108.852 279.778,109.254 280.224,108.852 280.67,108.852 281.117,108.852 281.563,109.254 282.01,108.852 282.456,108.449 282.902,108.852 283.349,108.047 283.795,108.852 284.242,108.047 284.688,108.449 285.134,108.449 285.581,108.852 286.027,108.047 286.474,108.047 286.92,108.449 287.366,108.047 287.813,108.047 288.259,107.645 288.706,108.047 289.152,108.047 289.598,107.645 290.045,107.645 290.491,107.242 290.938,107.645 291.384,107.242 291.83,107.645 292.277,108.047 292.723,107.645 293.17,107.242 293.616,107.242 294.062,107.242 294.509,107.242 294.955,107.242 295.402,107.242 295.848,107.242 296.294,107.242 296.741,107.242 297.187,106.84 297.634,106.84 298.08,107.242 298.526,107.242 298.973,107.242 299.419,107.242 299.866,107.242 300.312,106.84 300.758,106.84 301.205,106.84 301.651,106.84 302.098,106.035 302.544,106.84 302.99,106.437 303.437,106.84 303.883,106.437 304.33,106.437 304.776,106.84 305.222,106.84 305.669,106.035 306.115,106.035 306.562,106.035 307.008,106.035 307.454,106.84 307.901,106.035 308.347,106.437 308.794,106.84 309.24,106.437 309.686,106.035 310.133,106.035 310.579,106.035 311.026,105.633 311.472,105.633 311.918,105.633 312.365,105.23 312.811,105.23 313.258,105.633 313.704,105.633 314.15,105.633 314.597,105.633 315.043,105.23 315.49,105.23 315.936,105.23 316.382,105.23 316.829,105.23 317.275,105.23 317.722,105.23 318.168,105.23 318.614,104.828 319.061,105.23 319.507,104.828 319.954,104.828 320.4,105.23 320.846,104.828 321.293,104.828 321.739,104.828 322.186,104.828 322.632,104.828 323.078,105.23 323.525,104.828 323.971,104.828 324.418,104.828 324.864,104.828 325.31,104.828 325.757,104.426 326.203,104.426 326.65,104.426 327.096,104.828 327.542,104.426 327.989,104.023 328.435,104.828 328.882,104.426 329.328,104.828 329.774,104.828 330.221,103.218 330.667,104.426 331.114,104.828 331.56,104.023 332.006,104.426 332.453,104.426 332.899,103.621 333.346,103.218 333.792,104.023 334.238,103.621 334.685,104.023 335.131,103.621 335.578,103.621 336.024,103.218 336.47,103.621 336.917,103.621 337.363,103.218 337.81,103.218 338.256,103.621 338.702,103.621 339.149,103.621 339.595,103.218 340.042,103.218 340.488,103.218 340.934,103.218 341.381,103.621 341.827,103.621 342.274,103.218 342.72,103.218 343.166,103.218 343.613,103.218 344.059,103.218 344.506,103.218 344.952,103.218 345.398,102.816 345.845,103.218 346.291,102.816 346.738,102.816 347.184,103.218 347.63,103.218 348.077,102.816 348.523,102.816 348.97,102.816 349.416,103.218 349.862,103.218 350.309,102.816 350.755,103.218 351.202,102.414 351.648,103.218 352.094,102.816 352.541,102.816 352.987,102.816 353.434,102.816 353.88,102.414 354.326,102.414 354.773,102.816 355.219,102.414 355.666,102.816 356.112,102.414 356.558,102.816 357.005,102.816 357.451,102.816 357.898,102.816 358.344,102.414 358.79,102.816 359.237,102.414 359.683,102.011 360.13,102.414 360.576,102.414 361.022,101.609 361.469,102.011 361.915,102.011 362.362,101.609 362.808,102.414 363.254,102.414 363.701,101.609 364.147,101.609 364.594,102.011 365.04,101.609 365.486,102.011 365.933,102.011 366.379,102.011 366.826,101.609 367.272,101.206 367.718,101.609 368.165,101.206 368.611,101.609 369.058,101.206 369.504,101.206 369.95,101.206 370.397,101.609 370.843,101.206 371.29,101.206 371.736,101.609 372.182,101.609 372.629,101.206 373.075,101.206 373.522,100.804 373.968,100.804 374.414,101.206 374.861,101.609 375.307,101.206 375.754,101.206 376.2,101.206 376.646,101.609 377.093,101.206 377.539,101.206 377.986,100.804 378.432,100.804 378.878,100.804 379.325,101.206 379.771,101.609 380.218,101.206 380.664,101.206 381.11,101.206 381.557,100.804 382.003,100.804 382.45,101.206 382.896,101.609 383.342,100.804 383.789,100.804 384.235,100.402 384.682,99.9994 385.128,101.206 385.574,100.804 386.021,100.402 386.467,100.402 386.914,100.804 387.36,100.804 387.806,100.402 388.253,100.804 388.699,99.9994 389.146,100.804 389.592,100.804 390.038,100.804 390.485,100.402 390.931,99.9994 391.378,100.804 391.824,100.402 392.27,100.402 392.717,100.402 393.163,100.402 393.61,99.9994 394.056,99.597 394.502,100.402 394.949,100.402 395.395,99.597 395.842,99.1946 396.288,99.9994 396.734,100.402 397.181,100.402 397.627,100.402 398.074,99.597 398.52,99.9994 398.966,99.597 399.413,99.597 399.859,99.1946 400.306,99.1946 400.752,99.597 401.198,99.597 401.645,100.402 402.091,99.597 402.538,99.597 402.984,99.1946 403.43,99.597 403.877,99.597 404.323,99.1946 404.77,99.1946 405.216,99.1946 405.662,99.1946 406.109,99.1946 406.555,99.597 407.002,99.1946 407.448,99.1946 407.894,99.1946 408.341,98.7922 408.787,98.7922 409.234,99.1946 409.68,99.1946 410.126,99.1946 410.573,99.1946 411.019,99.1946 411.466,99.1946 411.912,98.7922 412.358,99.1946 412.805,99.1946 413.251,98.7922 413.698,99.1946 414.144,99.1946 414.59,99.1946 415.037,98.7922 415.483,98.7922 415.93,98.7922 416.376,98.7922 416.822,98.3898 417.269,99.1946 417.715,99.1946 418.162,99.1946 418.608,98.7922 419.054,98.7922 419.501,98.7922 419.947,98.7922 420.394,98.7922 420.84,98.7922 421.286,98.7922 421.733,98.3898 422.179,98.3898 422.626,98.7922 423.072,98.7922 423.518,98.3898 423.965,97.9875 424.411,98.3898 424.858,98.7922 425.304,98.7922 425.75,99.1946 426.197,98.3898 426.643,98.3898 427.09,98.3898 427.536,97.5851 427.982,98.3898 428.429,97.9875 428.875,97.5851 429.322,97.9875 429.768,98.7922 430.214,98.3898 430.661,97.9875 431.107,98.3898 431.554,97.9875 432,98.3898 432.446,97.5851 432.893,97.9875 433.339,97.5851 433.786,97.9875 434.232,98.3898 434.678,97.9875 435.125,97.9875 435.571,97.1827 436.018,97.1827 436.464,97.5851 436.91,97.5851 437.357,97.9875 437.803,98.3898 438.25,97.5851 438.696,97.1827 439.142,98.3898 439.589,97.9875 440.035,97.5851 440.482,97.5851 440.928,97.5851 441.374,97.5851 441.821,97.1827 442.267,97.9875 442.714,97.1827 443.16,97.1827 443.606,97.1827 444.053,97.1827 444.499,97.1827 444.946,97.5851 445.392,97.5851 445.838,97.1827 446.285,97.1827 446.731,97.5851 447.178,97.1827 447.624,97.1827 448.07,97.1827 448.517,97.1827 448.963,97.1827 449.41,97.1827 449.856,97.1827 450.302,97.1827 450.749,97.1827 451.195,97.1827 451.642,97.1827 452.088,97.1827 452.534,97.1827 452.981,96.7803 453.427,97.1827 453.874,97.1827 454.32,97.1827 454.766,97.1827 455.213,97.1827 455.659,97.1827 456.106,97.1827 456.552,96.7803 456.998,97.1827 457.445,96.7803 457.891,97.1827 458.338,97.1827 458.784,96.7803 459.23,96.7803 459.677,96.7803 460.123,96.7803 460.57,97.1827 461.016,97.1827 461.462,97.1827 461.909,97.1827 462.355,97.1827 462.802,97.1827 463.248,97.1827 463.694,97.1827 464.141,97.1827 464.587,96.378 465.034,96.378 465.48,97.1827 465.926,96.378 466.373,95.9756 466.819,96.7803 467.266,96.7803 467.712,97.1827 468.158,96.7803 468.605,96.7803 469.051,96.7803 469.498,96.7803 469.944,97.1827 470.39,97.1827 470.837,96.378 471.283,96.378 471.73,96.7803 472.176,95.9756 472.622,96.7803 473.069,96.378 473.515,96.7803 473.962,96.378 474.408,96.378 474.854,96.7803 475.301,96.7803 475.747,96.7803 476.194,95.5732 476.64,96.378 477.086,96.378 477.533,95.9756 477.979,95.9756 478.426,95.5732 478.872,95.9756 479.318,95.9756 479.765,95.9756 480.211,95.9756 480.658,95.9756 481.104,95.5732 481.55,95.9756 481.997,95.9756 482.443,95.9756 482.89,95.5732 483.336,95.9756 483.782,95.9756 484.229,95.5732 484.675,95.9756 485.122,95.5732 485.568,95.1708 486.014,95.9756 486.461,96.378 486.907,95.5732 487.354,95.1708 487.8,95.1708 488.246,95.5732 488.693,95.9756 489.139,95.5732 489.586,95.5732 490.032,95.5732 490.478,95.1708 490.925,95.5732 491.371,95.1708 491.818,95.1708 492.264,95.5732 492.71,95.1708 493.157,95.1708 493.603,95.5732 494.05,95.1708 494.496,95.5732 494.942,95.1708 495.389,95.5732 495.835,95.5732 496.282,95.1708 496.728,95.1708 497.174,95.1708 497.621,95.1708 498.067,95.1708 498.514,95.1708 498.96,95.5732 499.406,95.5732 499.853,95.1708 500.299,95.5732 500.746,95.9756 501.192,95.1708 501.638,95.1708 502.085,95.1708 502.531,95.1708 502.978,95.1708 503.424,95.1708 503.87,95.1708 504.317,95.5732 504.763,95.1708 505.21,95.1708 505.656,95.5732 506.102,95.1708 506.549,95.5732 506.995,94.7685 507.442,95.1708 507.888,95.1708 508.334,95.5732 508.781,95.1708 509.227,94.7685 509.674,95.1708 510.12,94.7685 510.566,95.1708 511.013,95.1708 511.459,95.1708 511.906,94.7685 512.352,94.7685 512.798,95.1708 513.245,94.3661 513.691,94.7685 514.138,95.1708 514.584,94.7685 515.03,94.3661 515.477,94.7685 515.923,93.9637 516.37,94.7685 516.816,95.1708 517.262,95.1708 517.709,94.7685 518.155,94.7685 518.602,95.1708 519.048,94.7685 519.494,94.3661 519.941,94.7685 520.387,94.7685 520.834,94.7685 521.28,94.3661 521.726,94.7685 521.726,94.7685"/>
<polyline fill="none" stroke="#ecb01f" stroke-width="0.5" stroke-linecap="butt" stroke-linejoin="miter" points="74.4336,333.78 74.4336,333.78 74.88,326.135 75.3264,321.709 75.7728,320.1 76.2192,315.674 76.6656,312.052 77.112,306.821 77.5584,302.395 78.0048,297.969 78.4512,294.348 78.8976,289.519 79.344,285.093 79.7904,281.874 80.2368,278.252 80.6832,273.424 81.1296,270.205 81.576,266.583 82.0224,262.962 82.4688,259.341 82.9152,256.524 83.3616,252.5 83.808,249.684 84.2544,246.867 84.7008,243.648 85.1472,240.429 85.5936,237.612 86.04,235.198 86.4864,231.979 86.9328,229.565 87.3792,226.346 87.8256,224.334 88.272,221.517 88.7184,218.701 89.1648,216.689 89.6112,213.47 90.0576,211.055 90.504,209.044 90.9504,207.434 91.3968,205.02 91.8432,203.008 92.2896,200.996 92.736,198.179 93.1824,196.57 93.6288,194.156 94.0752,192.144 94.5216,190.534 94.968,189.327 95.4144,188.12 95.8608,185.706 96.3072,183.694 96.7536,181.682 97.2,179.67 97.6464,178.865 98.0928,176.451 98.5392,175.646 98.9856,173.634 99.432,172.427 99.8784,171.622 100.325,169.611 100.771,168.806 101.218,166.794 101.664,165.184 102.11,163.977 102.557,163.173 103.003,161.161 103.45,159.551 103.896,158.746 104.342,157.539 104.789,156.332 105.235,155.527 105.682,153.918 106.128,153.113 106.574,151.906 107.021,150.699 107.467,149.894 107.914,149.089 108.36,147.48 108.806,146.273 109.253,145.066 109.699,143.858 110.146,143.456 110.592,142.249 111.038,141.847 111.485,140.639 111.931,139.03 112.378,139.03 112.824,138.628 113.27,137.42 113.717,137.42 114.163,136.213 114.61,134.201 115.056,133.397 115.502,133.397 115.949,132.592 116.395,132.19 116.842,131.385 117.288,130.178 117.734,129.373 118.181,128.166 118.627,127.361 119.074,126.556 119.52,126.154 119.966,125.349 120.413,124.947 120.859,124.142 121.306,123.337 121.752,122.935 122.198,122.532 122.645,122.13 123.091,121.325 123.538,120.118 123.984,120.521 124.43,120.118 124.877,118.509 125.323,117.704 125.77,117.704 126.216,117.302 126.662,116.899 127.109,116.094 127.555,115.692 128.002,115.29 128.448,114.485 128.894,114.083 129.341,113.278 129.787,112.875 130.234,111.266 130.68,111.668 131.126,111.266 131.573,110.461 132.019,110.864 132.466,110.461 132.912,109.656 133.358,108.852 133.805,108.852 134.251,108.449 134.698,107.242 135.144,107.242 135.59,106.84 136.037,106.84 136.483,106.437 136.93,105.633 137.376,105.633 137.822,104.828 138.269,104.828 138.715,104.828 139.162,104.023 139.608,103.218 140.054,103.218 140.501,103.621 140.947,102.011 141.394,102.011 141.84,101.609 142.286,101.609 142.733,101.609 143.179,100.804 143.626,100.804 144.072,100.804 144.518,99.9994 144.965,100.402 145.411,99.597 145.858,99.597 146.304,98.7922 146.75,98.7922 147.197,97.5851 147.643,97.9875 148.09,97.1827 148.536,96.7803 148.982,96.7803 149.429,96.378 149.875,95.9756 150.322,96.378 150.768,95.5732 151.214,95.5732 151.661,94.7685 152.107,94.7685 152.554,94.7685 153,94.3661 153.446,94.3661 153.893,93.9637 154.339,93.5613 154.786,93.159 155.232,92.7566 155.678,93.159 156.125,92.3542 156.571,91.9518 157.018,92.3542 157.464,91.5494 157.91,91.5494 158.357,91.5494 158.803,91.1471 159.25,90.7447 159.696,90.7447 160.142,90.7447 160.589,90.7447 161.035,90.3423 161.482,90.3423 161.928,89.5376 162.374,89.9399 162.821,89.9399 163.267,89.5376 163.714,88.7328 164.16,88.7328 164.606,88.7328 165.053,88.3304 165.499,88.7328 165.946,88.7328 166.392,87.9281 166.838,87.5257 167.285,87.1233 167.731,87.1233 168.178,86.7209 168.624,86.7209 169.07,86.7209 169.517,86.7209 169.963,86.7209 170.41,86.7209 170.856,85.9161 171.302,85.5138 171.749,85.9161 172.195,85.5138 172.642,85.5138 173.088,85.1114 173.534,84.709 173.981,85.1114 174.427,84.709 174.874,85.1114 175.32,84.709 175.766,84.709 176.213,84.3066 176.659,84.3066 177.106,84.3066 177.552,84.3066 177.998,84.3066 178.445,83.9043 178.891,84.709 179.338,84.3066 179.784,83.9043 180.23,82.6971 180.677,83.0995 181.123,82.6971 181.57,82.6971 182.016,82.6971 182.462,82.2947 182.909,82.6971 183.355,81.8924 183.802,82.2947 184.248,81.49 184.694,81.0876 185.141,81.8924 185.587,81.8924 186.034,80.6852 186.48,81.8924 186.926,81.49 187.373,80.6852 187.819,80.6852 188.266,80.6852 188.712,80.6852 189.158,80.2829 189.605,79.8805 190.051,80.6852 190.498,79.4781 190.944,79.8805 191.39,80.2829 191.837,79.4781 192.283,78.6734 192.73,78.6734 193.176,79.0757 193.622,79.0757 194.069,79.0757 194.515,78.6734 194.962,78.6734 195.408,78.6734 195.854,78.6734 196.301,78.6734 196.747,78.6734 197.194,78.6734 197.64,78.6734 198.086,78.6734 198.533,78.6734 198.979,78.271 199.426,78.271 199.872,77.8686 200.318,77.8686 200.765,78.271 201.211,77.8686 201.658,77.8686 202.104,78.271 202.55,77.8686 202.997,77.4662 203.443,77.4662 203.89,77.0639 204.336,76.6615 204.782,77.0639 205.229,77.0639 205.675,77.0639 206.122,76.6615 206.568,76.6615 207.014,76.6615 207.461,76.6615 207.907,76.6615 208.354,75.8568 208.8,75.8568 209.246,76.6615 209.693,76.2591 210.139,75.8568 210.586,75.052 211.032,75.8568 211.478,75.052 211.925,75.4544 212.371,75.4544 212.818,75.4544 213.264,75.4544 213.71,74.6496 214.157,74.6496 214.603,75.4544 215.05,74.6496 215.496,74.6496 215.942,74.6496 216.389,74.6496 216.835,74.6496 217.282,74.6496 217.728,74.6496 218.174,74.6496 218.621,74.6496 219.067,74.6496 219.514,74.6496 219.96,74.6496 220.406,74.6496 220.853,74.6496 221.299,74.6496 221.746,74.2473 222.192,74.2473 222.638,74.6496 223.085,74.6496 223.531,73.8448 223.978,73.8448 224.424,73.8448 224.87,73.8448 225.317,73.8448 225.763,73.8448 226.21,74.2473 226.656,74.2473 227.102,73.0401 227.549,73.8448 227.995,73.4424 228.442,73.4424 228.888,72.6377 229.334,73.0401 229.781,72.6377 230.227,72.6377 230.674,73.0401 231.12,72.6377 231.566,72.6377 232.013,73.4424 232.459,72.6377 232.906,73.0401 233.352,72.2354 233.798,73.0401 234.245,72.6377 234.691,72.2354 235.138,72.6377 235.584,72.6377 236.03,72.2354 236.477,72.2354 236.923,72.6377 237.37,72.6377 237.816,71.4306 238.262,71.8329 238.709,71.8329 239.155,72.6377 239.602,71.8329 240.048,71.4306 240.494,72.2354 240.941,71.4306 241.387,71.4306 241.834,70.6259 242.28,71.4306 242.726,71.4306 243.173,71.0282 243.619,71.8329 244.066,71.4306 244.512,70.6259 244.958,70.6259 245.405,71.0282 245.851,70.6259 246.298,70.6259 246.744,70.6259 247.19,70.6259 247.637,71.0282 248.083,70.6259 248.53,70.6259 248.976,70.6259 249.422,70.6259 249.869,70.6259 250.315,71.0282 250.762,70.6259 251.208,70.6259 251.654,70.6259 252.101,70.6259 252.547,70.2234 252.994,70.2234 253.44,70.6259 253.886,70.6259 254.333,70.6259 254.779,69.8211 255.226,70.2234 255.672,70.6259 256.118,70.6259 256.565,70.6259 257.011,69.0163 257.458,69.4187 257.904,69.8211 258.35,69.4187 258.797,69.4187 259.243,69.8211 259.69,69.4187 260.136,69.0163 260.582,69.0163 261.029,69.4187 261.475,69.0163 261.922,69.4187 262.368,69.0163 262.814,69.4187 263.261,69.0163 263.707,69.0163 264.154,69.0163 264.6,68.614 265.046,68.614 265.493,69.0163 265.939,68.614 266.386,68.614 266.832,69.0163 267.278,68.614 267.725,68.614 268.171,68.614 268.618,68.614 269.064,68.614 269.51,68.614 269.957,68.614 270.403,68.614 270.85,68.614 271.296,68.614 271.742,68.614 272.189,68.614 272.635,68.614 273.082,68.614 273.528,68.614 273.974,68.614 274.421,68.614 274.867,68.614 275.314,68.614 275.76,68.614 276.206,68.614 276.653,68.614 277.099,68.614 277.546,68.614 277.992,68.614 278.438,68.614 278.885,68.614 279.331,68.614 279.778,68.614 280.224,68.614 280.67,68.614 281.117,68.614 281.563,68.614 282.01,68.614 282.456,68.614 282.902,68.614 283.349,68.614 283.795,68.614 284.242,68.614 284.688,68.614 285.134,68.614 285.581,68.614 286.027,68.614 286.474,68.614 286.92,68.614 287.366,68.614 287.813,68.614 288.259,68.614 288.706,68.614 289.152,68.614 289.598,68.614 290.045,68.614 290.491,68.2115 290.938,68.614 291.384,68.2115 291.83,68.614 292.277,68.614 292.723,68.614 293.17,68.614 293.616,68.614 294.062,68.614 294.509,68.614 294.955,68.614 295.402,68.614 295.848,67.8092 296.294,67.8092 296.741,68.2115 297.187,68.614 297.634,67.8092 298.08,68.614 298.526,68.2115 298.973,68.2115 299.419,68.614 299.866,68.614 300.312,68.2115 300.758,68.2115 301.205,67.8092 301.651,68.2115 302.098,67.4068 302.544,67.4068 302.99,67.8092 303.437,67.8092 303.883,67.4068 304.33,68.2115 304.776,67.8092 305.222,67.4068 305.669,68.2115 306.115,67.0045 306.562,66.6021 307.008,67.8092 307.454,67.0045 307.901,67.4068 308.347,67.4068 308.794,67.8092 309.24,66.6021 309.686,67.4068 310.133,67.8092 310.579,66.6021 311.026,67.0045 311.472,67.4068 311.918,67.4068 312.365,66.6021 312.811,66.6021 313.258,67.4068 313.704,67.8092 314.15,66.6021 314.597,66.6021 315.043,66.6021 315.49,67.4068 315.936,66.6021 316.382,67.0045 316.829,67.4068 317.275,66.6021 317.722,67.0045 318.168,67.0045 318.614,66.6021 319.061,67.0045 319.507,66.6021 319.954,67.0045 320.4,66.6021 320.846,67.0045 321.293,66.6021 321.739,66.6021 322.186,67.0045 322.632,66.6021 323.078,66.6021 323.525,66.6021 323.971,67.0045 324.418,67.0045 324.864,66.6021 325.31,67.0045 325.757,66.6021 326.203,66.1997 326.65,66.6021 327.096,66.6021 327.542,66.6021 327.989,66.6021 328.435,66.6021 328.882,67.0045 329.328,66.6021 329.774,66.6021 330.221,66.6021 330.667,66.6021 331.114,66.6021 331.56,66.6021 332.006,66.6021 332.453,66.6021 332.899,66.1997 333.346,66.1997 333.792,66.6021 334.238,66.1997 334.685,66.6021 335.131,67.0045 335.578,66.6021 336.024,66.6021 336.47,65.7973 336.917,66.1997 337.363,66.6021 337.81,66.1997 338.256,66.6021 338.702,66.1997 339.149,66.1997 339.595,66.1997 340.042,65.395 340.488,66.1997 340.934,66.1997 341.381,66.1997 341.827,65.7973 342.274,66.6021 342.72,66.1997 343.166,66.1997 343.613,66.1997 344.059,65.7973 344.506,66.6021 344.952,66.1997 345.398,66.1997 345.845,65.7973 346.291,66.1997 346.738,66.1997 347.184,65.7973 347.63,66.1997 348.077,66.6021 348.523,66.1997 348.97,66.1997 349.416,65.395 349.862,65.7973 350.309,65.7973 350.755,64.9926 351.202,66.1997 351.648,66.6021 352.094,66.6021 352.541,66.1997 352.987,66.6021 353.434,64.9926 353.88,65.7973 354.326,66.1997 354.773,65.7973 355.219,64.9926 355.666,66.1997 356.112,65.395 356.558,65.7973 357.005,64.9926 357.451,65.7973 357.898,66.1997 358.344,65.395 358.79,65.7973 359.237,64.9926 359.683,65.7973 360.13,65.7973 360.576,65.395 361.022,65.395 361.469,66.1997 361.915,64.9926 362.362,64.9926 362.808,64.9926 363.254,64.9926 363.701,64.5902 364.147,64.9926 364.594,64.9926 365.04,65.395 365.486,64.5902 365.933,65.7973 366.379,64.5902 366.826,66.1997 367.272,65.395 367.718,65.7973 368.165,64.9926 368.611,64.5902 369.058,64.5902 369.504,64.9926 369.95,64.5902 370.397,64.9926 370.843,65.395 371.29,64.9926 371.736,64.5902 372.182,64.9926 372.629,64.9926 373.075,64.5902 373.522,66.1997 373.968,64.9926 374.414,64.9926 374.861,64.9926 375.307,65.395 375.754,64.9926 376.2,64.9926 376.646,64.5902 377.093,64.5902 377.539,64.5902 377.986,64.5902 378.432,65.395 378.878,64.9926 379.325,64.9926 379.771,64.5902 380.218,64.9926 380.664,65.395 381.11,64.5902 381.557,64.9926 382.003,64.9926 382.45,64.5902 382.896,65.395 383.342,64.5902 383.789,64.5902 384.235,64.5902 384.682,64.5902 385.128,64.5902 385.574,64.9926 386.021,64.9926 386.467,64.9926 386.914,64.5902 387.36,64.5902 387.806,64.9926 388.253,64.5902 388.699,64.5902 389.146,64.5902 389.592,64.5902 390.038,64.9926 390.485,64.5902 390.931,64.5902 391.378,64.5902 391.824,64.9926 392.27,64.5902 392.717,64.5902 393.163,64.5902 393.61,64.1878 394.056,64.9926 394.502,64.5902 394.949,64.5902 395.395,64.5902 395.842,64.5902 396.288,64.5902 396.734,64.9926 397.181,64.5902 397.627,64.5902 398.074,64.9926 398.52,64.5902 398.966,64.1878 399.413,64.5902 399.859,64.5902 400.306,64.5902 400.752,64.5902 401.198,64.1878 401.645,64.5902 402.091,64.5902 402.538,64.5902 402.984,64.5902 403.43,64.5902 403.877,64.5902 404.323,64.5902 404.77,64.5902 405.216,64.5902 405.662,64.5902 406.109,64.5902 406.555,64.9926 407.002,64.1878 407.448,64.5902 407.894,64.5902 408.341,64.1878 408.787,64.5902 409.234,64.5902 409.68,64.5902 410.126,64.5902 410.573,64.1878 411.019,64.1878 411.466,64.5902 411.912,64.5902 412.358,64.5902 412.805,64.5902 413.251,64.1878 413.698,64.5902 414.144,64.5902 414.59,64.5902 415.037,64.1878 415.483,64.5902 415.93,64.5902 416.376,64.5902 416.822,64.5902 417.269,64.1878 417.715,64.5902 418.162,64.5902 418.608,64.1878 419.054,64.5902 419.501,64.5902 419.947,64.5902 420.394,64.5902 420.84,64.1878 421.286,64.1878 421.733,64.1878 422.179,64.5902 422.626,64.5902 423.072,64.5902 423.518,64.1878 423.965,64.5902 424.411,64.1878 424.858,64.1878 425.304,64.5902 425.75,64.1878 426.197,63.3831 426.643,64.1878 427.09,64.5902 427.536,64.1878 427.982,63.7854 428.429,64.1878 428.875,63.7854 429.322,64.5902 429.768,64.5902 430.214,64.1878 430.661,63.7854 431.107,64.5902 431.554,64.5902 432,63.7854 432.446,64.5902 432.893,64.1878 433.339,63.7854 433.786,64.1878 434.232,64.5902 434.678,63.7854 435.125,64.1878 435.571,63.7854 436.018,63.7854 436.464,64.1878 436.91,64.5902 437.357,63.7854 437.803,63.7854 438.25,63.7854 438.696,63.3831 439.142,64.5902 439.589,64.1878 440.035,64.1878 440.482,63.7854 440.928,64.1878 441.374,63.7854 441.821,64.5902 442.267,64.1878 442.714,64.1878 443.16,63.7854 443.606,64.5902 444.053,64.5902 444.499,63.7854 444.946,64.1878 445.392,64.5902 445.838,64.1878 446.285,63.3831 446.731,64.1878 447.178,64.1878 447.624,63.7854 448.07,63.3831 448.517,64.1878 448.963,62.9807 449.41,63.7854 449.856,62.9807 450.302,63.7854 450.749,64.1878 451.195,63.7854 451.642,64.1878 452.088,64.1878 452.534,64.5902 452.981,63.3831 453.427,63.3831 453.874,63.7854 454.32,63.7854 454.766,64.1878 455.213,62.9807 455.659,63.7854 456.106,64.1878 456.552,63.7854 456.998,63.3831 457.445,64.5902 457.891,64.1878 458.338,63.3831 458.784,64.1878 459.23,63.7854 459.677,63.7854 460.123,64.1878 460.57,62.9807 461.016,63.3831 461.462,63.3831 461.909,63.7854 462.355,64.1878 462.802,64.1878 463.248,63.7854 463.694,63.3831 464.141,63.3831 464.587,63.3831 465.034,63.7854 465.48,63.7854 465.926,62.9807 466.373,64.1878 466.819,63.7854 467.266,63.7854 467.712,64.5902 468.158,63.3831 468.605,62.9807 469.051,63.7854 469.498,64.1878 469.944,62.9807 470.39,63.7854 470.837,63.7854 471.283,63.3831 471.73,62.9807 472.176,63.3831 472.622,63.7854 473.069,63.3831 473.515,63.3831 473.962,63.3831 474.408,63.7854 474.854,62.9807 475.301,63.7854 475.747,63.7854 476.194,63.3831 476.64,63.7854 477.086,63.7854 477.533,62.5783 477.979,63.3831 478.426,63.3831 478.872,63.3831 479.318,63.7854 479.765,64.1878 480.211,62.9807 480.658,63.3831 481.104,63.7854 481.55,62.9807 481.997,64.1878 482.443,63.7854 482.89,62.9807 483.336,63.3831 483.782,64.1878 484.229,63.3831 484.675,63.7854 485.122,63.3831 485.568,62.9807 486.014,63.7854 486.461,63.3831 486.907,62.9807 487.354,62.9807 487.8,62.9807 488.246,63.3831 488.693,63.7854 489.139,63.3831 489.586,63.3831 490.032,63.7854 490.478,62.9807 490.925,62.9807 491.371,62.9807 491.818,62.5783 492.264,63.3831 492.71,62.5783 493.157,63.7854 493.603,62.5783 494.05,63.3831 494.496,63.3831 494.942,62.9807 495.389,62.9807 495.835,63.7854 496.282,63.3831 496.728,63.3831 497.174,62.9807 497.621,63.7854 498.067,63.3831 498.514,63.7854 498.96,63.7854 499.406,63.3831 499.853,62.5783 500.299,62.5783 500.746,62.9807 501.192,63.7854 501.638,63.3831 502.085,62.9807 502.531,62.5783 502.978,62.9807 503.424,63.3831 503.87,62.9807 504.317,62.5783 504.763,62.5783 505.21,62.9807 505.656,63.3831 506.102,63.3831 506.549,62.9807 506.995,62.9807 507.442,62.5783 507.888,62.5783 508.334,62.5783 508.781,63.3831 509.227,62.5783 509.674,63.3831 510.12,62.5783 510.566,63.7854 511.013,62.9807 511.459,62.5783 511.906,62.9807 512.352,62.9807 512.798,62.5783 513.245,63.3831 513.691,62.9807 514.138,63.3831 514.584,62.5783 515.03,63.3831 515.477,62.9807 515.923,62.9807 516.37,63.3831 516.816,62.5783 517.262,62.9807 517.709,62.5783 518.155,62.5783 518.602,63.3831 519.048,62.5783 519.494,62.5783 519.941,62.9807 520.387,63.7854 520.834,62.9807 521.28,62.9807 521.726,62.5783 521.726,62.5783"/>
<polyline fill="none" stroke="#262626" stroke-width="0.5" stroke-linecap="butt" stroke-linejoin="miter" stroke-opacity="0.15" stroke-dasharray="16,0" points="74.88,384.48 74.88,32.4"/>
<text fill="#000000" x="298.08" y="22.4" font-size="11" text-anchor="middle" dy="0" font-family="Helvetica" font-weight="bold">40uf Capacitor charge time with 3 parallel battery pack of 33 coin cell in series</text>
</g>
<clipPath id="cp00576432">
  <polygon points="0,432 576,432 576,0 0,0"/>
</clipPath>
<g clip-path="url(#cp00576432)">
<polygon fill="#ffffff" shape-rendering="crispEdges" points="445.887,35.5571 518.123,88.2286 518.123,35.5571"/>
<polygon fill="#ffffff" shape-rendering="crispEdges" points="445.887,35.5571 445.887,88.2286 518.123,88.2286"/>
<polyline fill="none" stroke="#262626" stroke-width="0.5" stroke-linecap="butt" stroke-linejoin="miter" stroke-dasharray="16,0" points="445.887,35.5571 518.123,35.5571"/>
<polyline fill="none" stroke="#262626" stroke-width="0.5" stroke-linecap="butt" stroke-linejoin="miter" stroke-dasharray="16,0" points="445.887,88.2286 445.887,35.5571"/>
<polyline fill="none" stroke="#262626" stroke-width="0.5" stroke-linecap="butt" stroke-linejoin="miter" stroke-dasharray="16,0" points="518.123,88.2286 518.123,35.5571"/>
<text fill="#000000" x="475.88" y="44.3357" font-size="10" text-anchor="start" dy="5" font-family="Helvetica">CR2016</text>
<text fill="#000000" x="475.88" y="61.8929" font-size="10" text-anchor="start" dy="5" font-family="Helvetica">CR2025</text>
<text fill="#000000" x="475.88" y="79.45" font-size="10" text-anchor="start" dy="5" font-family="Helvetica">CR2032</text>
<polyline fill="none" stroke="#0071bc" stroke-width="0.5" stroke-linecap="butt" stroke-linejoin="miter" points="449.044,44.3357 472.723,44.3357"/>
<polyline fill="none" stroke="#d85218" stroke-width="0.5" stroke-linecap="butt" stroke-linejoin="miter" points="449.044,61.8929 472.723,61.8929"/>
<polyline fill="none" stroke="#ecb01f" stroke-width="0.5" stroke-linecap="butt" stroke-linejoin="miter" points="449.044,79.45 472.723,79.45"/>
<polyline fill="none" stroke="#262626" stroke-width="0.5" stroke-linecap="butt" stroke-linejoin="miter" stroke-dasharray="16,0" points="445.887,88.2286 518.123,88.2286"/>
</g>
</g>
</svg>
