<?xml version="1.0" encoding="UTF-8" standalone="no"?>
<svg xmlns="http://www.w3.org/2000/svg"
     xmlns:xlink="http://www.w3.org/1999/xlink"
     width="576px" height="432px" viewBox="0 0 576 432">
<title>gl2ps_renderer figure</title>
<desc>
Creator: GL2PS 1.4.0, (C) 1999-2017 C. Geuzaine
For: Octave
CreationDate: Wed Nov  8 11:59:17 2017
</desc>
<defs>
</defs>
<polygon fill="#ffffff" points="0,0 576,0 576,432 0,432"/>
<g>
<polygon fill="#ffffff" points="0,432 576,432 576,0 0,0" shape-rendering="crispEdges"/>
<clipPath id="cp00576432">
  <polygon points="0,432 576,432 576,0 0,0"/>
</clipPath>
<g clip-path="url(#cp00576432)">
<polygon fill="#ffffff" shape-rendering="crispEdges" points="74.88,32.4 74.88,384.48 521.28,384.48"/>
<polygon fill="#ffffff" shape-rendering="crispEdges" points="74.88,32.4 521.28,384.48 521.28,32.4"/>
<polyline fill="none" stroke="#262626" stroke-width="0.5" stroke-linecap="butt" stroke-linejoin="miter" stroke-opacity="0.15" stroke-dasharray="16,0" points="186.48,384.48 186.48,32.4"/>
<polyline fill="none" stroke="#262626" stroke-width="0.5" stroke-linecap="butt" stroke-linejoin="miter" stroke-opacity="0.15" stroke-dasharray="16,0" points="298.08,384.48 298.08,32.4"/>
<polyline fill="none" stroke="#262626" stroke-width="0.5" stroke-linecap="butt" stroke-linejoin="miter" stroke-opacity="0.15" stroke-dasharray="16,0" points="409.68,384.48 409.68,32.4"/>
<polyline fill="none" stroke="#262626" stroke-width="0.5" stroke-linecap="butt" stroke-linejoin="miter" stroke-opacity="0.15" stroke-dasharray="16,0" points="521.28,384.48 521.28,32.4"/>
<polyline fill="none" stroke="#262626" stroke-width="0.5" stroke-linecap="butt" stroke-linejoin="miter" points="74.88,384.48 74.88,380.015"/>
<polyline fill="none" stroke="#262626" stroke-width="0.5" stroke-linecap="butt" stroke-linejoin="miter" points="74.88,32.4 74.88,36.865"/>
<polyline fill="none" stroke="#262626" stroke-width="0.5" stroke-linecap="butt" stroke-linejoin="miter" points="186.48,384.48 186.48,380.015"/>
<polyline fill="none" stroke="#262626" stroke-width="0.5" stroke-linecap="butt" stroke-linejoin="miter" points="186.48,32.4 186.48,36.865"/>
<polyline fill="none" stroke="#262626" stroke-width="0.5" stroke-linecap="butt" stroke-linejoin="miter" points="298.08,384.48 298.08,380.015"/>
<polyline fill="none" stroke="#262626" stroke-width="0.5" stroke-linecap="butt" stroke-linejoin="miter" points="298.08,32.4 298.08,36.865"/>
<polyline fill="none" stroke="#262626" stroke-width="0.5" stroke-linecap="butt" stroke-linejoin="miter" points="409.68,384.48 409.68,380.015"/>
<polyline fill="none" stroke="#262626" stroke-width="0.5" stroke-linecap="butt" stroke-linejoin="miter" points="409.68,32.4 409.68,36.865"/>
<polyline fill="none" stroke="#262626" stroke-width="0.5" stroke-linecap="butt" stroke-linejoin="miter" points="521.28,384.48 521.28,380.015"/>
<polyline fill="none" stroke="#262626" stroke-width="0.5" stroke-linecap="butt" stroke-linejoin="miter" points="521.28,32.4 521.28,36.865"/>
<text fill="#262626" x="74.88" y="389.481" font-size="10" text-anchor="middle" dy="10" font-family="Helvetica">0</text>
<text fill="#262626" x="186.48" y="389.481" font-size="10" text-anchor="middle" dy="10" font-family="Helvetica">0.01</text>
<text fill="#262626" x="298.08" y="389.481" font-size="10" text-anchor="middle" dy="10" font-family="Helvetica">0.02</text>
<text fill="#262626" x="409.68" y="389.481" font-size="10" text-anchor="middle" dy="10" font-family="Helvetica">0.03</text>
<text fill="#262626" x="521.28" y="389.481" font-size="10" text-anchor="middle" dy="10" font-family="Helvetica">0.04</text>
<polyline fill="none" stroke="#262626" stroke-width="0.5" stroke-linecap="butt" stroke-linejoin="miter" stroke-opacity="0.15" stroke-dasharray="16,0" points="74.88,384.48 521.28,384.48"/>
<polyline fill="none" stroke="#262626" stroke-width="0.5" stroke-linecap="butt" stroke-linejoin="miter" stroke-opacity="0.15" stroke-dasharray="16,0" points="74.88,334.183 521.28,334.183"/>
<polyline fill="none" stroke="#262626" stroke-width="0.5" stroke-linecap="butt" stroke-linejoin="miter" stroke-opacity="0.15" stroke-dasharray="16,0" points="74.88,283.886 521.28,283.886"/>
<polyline fill="none" stroke="#262626" stroke-width="0.5" stroke-linecap="butt" stroke-linejoin="miter" stroke-opacity="0.15" stroke-dasharray="16,0" points="74.88,233.589 521.28,233.589"/>
<polyline fill="none" stroke="#262626" stroke-width="0.5" stroke-linecap="butt" stroke-linejoin="miter" stroke-opacity="0.15" stroke-dasharray="16,0" points="74.88,183.291 521.28,183.291"/>
<polyline fill="none" stroke="#262626" stroke-width="0.5" stroke-linecap="butt" stroke-linejoin="miter" stroke-opacity="0.15" stroke-dasharray="16,0" points="74.88,132.994 521.28,132.994"/>
<polyline fill="none" stroke="#262626" stroke-width="0.5" stroke-linecap="butt" stroke-linejoin="miter" stroke-opacity="0.15" stroke-dasharray="16,0" points="74.88,82.6971 521.28,82.6971"/>
<polyline fill="none" stroke="#262626" stroke-width="0.5" stroke-linecap="butt" stroke-linejoin="miter" stroke-opacity="0.15" stroke-dasharray="16,0" points="74.88,32.4 521.28,32.4"/>
<polyline fill="none" stroke="#262626" stroke-width="0.5" stroke-linecap="butt" stroke-linejoin="miter" points="74.88,384.48 79.348,384.48"/>
<polyline fill="none" stroke="#262626" stroke-width="0.5" stroke-linecap="butt" stroke-linejoin="miter" points="521.28,384.48 516.812,384.48"/>
<polyline fill="none" stroke="#262626" stroke-width="0.5" stroke-linecap="butt" stroke-linejoin="miter" points="74.88,334.183 79.348,334.183"/>
<polyline fill="none" stroke="#262626" stroke-width="0.5" stroke-linecap="butt" stroke-linejoin="miter" points="521.28,334.183 516.812,334.183"/>
<polyline fill="none" stroke="#262626" stroke-width="0.5" stroke-linecap="butt" stroke-linejoin="miter" points="74.88,283.886 79.348,283.886"/>
<polyline fill="none" stroke="#262626" stroke-width="0.5" stroke-linecap="butt" stroke-linejoin="miter" points="521.28,283.886 516.812,283.886"/>
<polyline fill="none" stroke="#262626" stroke-width="0.5" stroke-linecap="butt" stroke-linejoin="miter" points="74.88,233.589 79.348,233.589"/>
<polyline fill="none" stroke="#262626" stroke-width="0.5" stroke-linecap="butt" stroke-linejoin="miter" points="521.28,233.589 516.812,233.589"/>
<polyline fill="none" stroke="#262626" stroke-width="0.5" stroke-linecap="butt" stroke-linejoin="miter" points="74.88,183.291 79.348,183.291"/>
<polyline fill="none" stroke="#262626" stroke-width="0.5" stroke-linecap="butt" stroke-linejoin="miter" points="521.28,183.291 516.812,183.291"/>
<polyline fill="none" stroke="#262626" stroke-width="0.5" stroke-linecap="butt" stroke-linejoin="miter" points="74.88,132.994 79.348,132.994"/>
<polyline fill="none" stroke="#262626" stroke-width="0.5" stroke-linecap="butt" stroke-linejoin="miter" points="521.28,132.994 516.812,132.994"/>
<polyline fill="none" stroke="#262626" stroke-width="0.5" stroke-linecap="butt" stroke-linejoin="miter" points="74.88,82.6971 79.348,82.6971"/>
<polyline fill="none" stroke="#262626" stroke-width="0.5" stroke-linecap="butt" stroke-linejoin="miter" points="521.28,82.6971 516.812,82.6971"/>
<polyline fill="none" stroke="#262626" stroke-width="0.5" stroke-linecap="butt" stroke-linejoin="miter" points="74.88,32.4 79.348,32.4"/>
<polyline fill="none" stroke="#262626" stroke-width="0.5" stroke-linecap="butt" stroke-linejoin="miter" points="521.28,32.4 516.812,32.4"/>
<text fill="#262626" x="69.8755" y="384.48" font-size="10" text-anchor="end" dy="5" font-family="Helvetica">-20</text>
<text fill="#262626" x="69.8755" y="334.183" font-size="10" text-anchor="end" dy="5" font-family="Helvetica">0</text>
<text fill="#262626" x="69.8755" y="283.886" font-size="10" text-anchor="end" dy="5" font-family="Helvetica">20</text>
<text fill="#262626" x="69.8755" y="233.589" font-size="10" text-anchor="end" dy="5" font-family="Helvetica">40</text>
<text fill="#262626" x="69.8755" y="183.291" font-size="10" text-anchor="end" dy="5" font-family="Helvetica">60</text>
<text fill="#262626" x="69.8755" y="132.994" font-size="10" text-anchor="end" dy="5" font-family="Helvetica">80</text>
<text fill="#262626" x="69.8755" y="82.6971" font-size="10" text-anchor="end" dy="5" font-family="Helvetica">100</text>
<text fill="#262626" x="69.8755" y="32.4" font-size="10" text-anchor="end" dy="5" font-family="Helvetica">120</text>
<polyline fill="none" stroke="#262626" stroke-width="0.5" stroke-linecap="butt" stroke-linejoin="miter" stroke-dasharray="16,0" points="74.88,384.48 521.28,384.48"/>
<polyline fill="none" stroke="#262626" stroke-width="0.5" stroke-linecap="butt" stroke-linejoin="miter" stroke-dasharray="16,0" points="74.88,32.4 521.28,32.4"/>
<polyline fill="none" stroke="#262626" stroke-width="0.5" stroke-linecap="butt" stroke-linejoin="miter" stroke-dasharray="16,0" points="74.88,384.48 74.88,32.4"/>
<polyline fill="none" stroke="#262626" stroke-width="0.5" stroke-linecap="butt" stroke-linejoin="miter" stroke-dasharray="16,0" points="521.28,384.48 521.28,32.4"/>
<text fill="#262626" x="298.08" y="403.481" font-size="11" text-anchor="middle" dy="11" font-family="Helvetica">seconds</text>
<text fill="#262626" x="47.8755" y="208.44" font-size="11" transform="rotate(-90, 47.8755, 208.44)" text-anchor="middle" dy="0" font-family="Helvetica">volt</text>
<polyline fill="none" stroke="#0071bc" stroke-width="0.5" stroke-linecap="butt" stroke-linejoin="miter" points="74.4336,332.171 74.4336,332.171 74.88,328.952 75.3264,329.354 75.7728,328.55 76.2192,330.159 76.6656,327.342 77.112,325.733 77.5584,324.928 78.0048,323.319 78.4512,321.307 78.8976,323.319 79.344,317.283 79.7904,316.076 80.2368,313.662 80.6832,312.857 81.1296,310.04 81.576,308.431 82.0224,306.419 82.4688,304.809 82.9152,302.797 83.3616,301.188 83.808,298.774 84.2544,297.567 84.7008,295.152 85.1472,294.348 85.5936,292.738 86.04,291.129 86.4864,289.117 86.9328,287.909 87.3792,285.898 87.8256,284.288 88.272,282.276 88.7184,281.471 89.1648,279.862 89.6112,277.85 90.0576,276.241 90.504,275.436 90.9504,273.826 91.3968,272.619 91.8432,270.205 92.2896,269.803 92.736,267.791 93.1824,266.583 93.6288,264.974 94.0752,263.767 94.5216,262.157 94.968,260.95 95.4144,259.743 95.8608,258.536 96.3072,257.329 96.7536,256.122 97.2,254.915 97.6464,254.11 98.0928,252.098 98.5392,251.293 98.9856,249.684 99.432,248.879 99.8784,247.672 100.325,246.062 100.771,245.258 101.218,243.648 101.664,242.843 102.11,242.039 102.557,240.831 103.003,239.222 103.45,238.819 103.896,237.612 104.342,236.003 104.789,235.198 105.235,234.393 105.682,233.589 106.128,232.381 106.574,231.174 107.021,230.772 107.467,229.162 107.914,228.76 108.36,227.553 108.806,226.346 109.253,225.139 109.699,225.139 110.146,223.529 110.592,223.127 111.038,221.517 111.485,221.115 111.931,219.908 112.378,219.103 112.824,218.701 113.27,217.091 113.717,215.884 114.163,215.079 114.61,215.079 115.056,213.872 115.502,213.067 115.949,212.263 116.395,211.458 116.842,210.653 117.288,209.446 117.734,209.446 118.181,208.641 118.627,207.434 119.074,207.032 119.52,205.825 119.966,205.422 120.413,204.215 120.859,203.813 121.306,203.41 121.752,203.008 122.198,201.801 122.645,201.398 123.091,199.789 123.538,199.387 123.984,199.387 124.43,198.582 124.877,197.375 125.323,196.972 125.77,196.168 126.216,195.363 126.662,194.156 127.109,193.753 127.555,193.351 128.002,192.948 128.448,192.546 128.894,191.339 129.341,190.937 129.787,190.132 130.234,189.729 130.68,188.522 131.126,188.12 131.573,187.718 132.019,187.315 132.466,186.51 132.912,186.108 133.358,185.706 133.805,184.499 134.251,184.096 134.698,183.694 135.144,183.291 135.59,182.487 136.037,181.682 136.483,181.682 136.93,180.475 137.376,180.072 137.822,180.072 138.269,179.268 138.715,178.463 139.162,178.061 139.608,178.061 140.054,177.658 140.501,176.451 140.947,176.451 141.394,175.244 141.84,174.842 142.286,175.244 142.733,174.037 143.179,173.634 143.626,173.232 144.072,172.427 144.518,172.427 144.965,172.025 145.411,172.025 145.858,170.818 146.304,170.415 146.75,170.013 147.197,169.611 147.643,169.208 148.09,168.806 148.536,168.001 148.982,168.001 149.429,167.196 149.875,167.599 150.322,167.196 150.768,165.989 151.214,166.392 151.661,165.184 152.107,164.38 152.554,164.782 153,163.977 153.446,163.575 153.893,162.77 154.339,162.77 154.786,161.563 155.232,162.368 155.678,161.563 156.125,161.161 156.571,161.161 157.018,160.356 157.464,159.954 157.91,159.149 158.357,159.149 158.803,159.149 159.25,158.746 159.696,158.344 160.142,157.942 160.589,157.137 161.035,156.735 161.482,156.735 161.928,156.735 162.374,156.332 162.821,155.527 163.267,155.93 163.714,154.723 164.16,154.723 164.606,154.723 165.053,153.918 165.499,153.113 165.946,153.516 166.392,152.711 166.838,152.711 167.285,152.711 167.731,152.308 168.178,151.504 168.624,151.906 169.07,151.101 169.517,150.699 169.963,150.297 170.41,151.101 170.856,150.297 171.302,149.089 171.749,148.687 172.195,149.089 172.642,148.285 173.088,148.285 173.534,147.882 173.981,147.48 174.427,146.675 174.874,146.675 175.32,146.675 175.766,147.077 176.213,145.87 176.659,146.273 177.106,145.87 177.552,145.87 177.998,145.468 178.445,145.468 178.891,144.261 179.338,144.663 179.784,143.858 180.23,143.456 180.677,143.858 181.123,142.651 181.57,142.651 182.016,143.054 182.462,142.651 182.909,142.249 183.355,141.847 183.802,141.847 184.248,141.444 184.694,141.847 185.141,141.444 185.587,141.042 186.034,140.237 186.48,140.237 186.926,140.237 187.373,139.835 187.819,139.835 188.266,140.237 188.712,138.225 189.158,138.225 189.605,138.628 190.051,138.225 190.498,138.225 190.944,137.823 191.39,138.225 191.837,138.225 192.283,137.018 192.73,136.616 193.176,136.616 193.622,136.213 194.069,136.213 194.515,135.811 194.962,136.213 195.408,135.811 195.854,135.811 196.301,135.811 196.747,136.213 197.194,135.409 197.64,135.409 198.086,135.006 198.533,134.604 198.979,134.604 199.426,134.201 199.872,134.201 200.318,133.397 200.765,132.592 201.211,132.994 201.658,133.397 202.104,132.592 202.55,132.592 202.997,132.19 203.443,132.19 203.89,131.787 204.336,131.385 204.782,131.787 205.229,130.58 205.675,131.787 206.122,131.385 206.568,130.58 207.014,130.178 207.461,130.58 207.907,130.178 208.354,130.178 208.8,130.178 209.246,129.373 209.693,129.373 210.139,129.373 210.586,129.373 211.032,128.971 211.478,129.373 211.925,128.971 212.371,128.568 212.818,128.166 213.264,128.166 213.71,128.166 214.157,128.166 214.603,127.763 215.05,126.959 215.496,126.959 215.942,127.361 216.389,126.959 216.835,126.556 217.282,126.556 217.728,126.154 218.174,126.154 218.621,126.154 219.067,126.154 219.514,125.752 219.96,126.154 220.406,125.349 220.853,125.349 221.299,124.947 221.746,124.947 222.192,124.544 222.638,124.544 223.085,124.544 223.531,124.544 223.978,124.544 224.424,124.142 224.87,124.142 225.317,124.142 225.763,123.74 226.21,124.142 226.656,122.935 227.102,122.935 227.549,123.337 227.995,122.935 228.442,122.935 228.888,122.935 229.334,122.935 229.781,122.532 230.227,122.532 230.674,122.532 231.12,122.13 231.566,122.13 232.013,122.532 232.459,121.325 232.906,122.532 233.352,120.923 233.798,121.325 234.245,120.923 234.691,120.521 235.138,120.521 235.584,120.923 236.03,120.521 236.477,120.521 236.923,120.521 237.37,120.923 237.816,120.521 238.262,120.521 238.709,120.118 239.155,120.118 239.602,120.118 240.048,119.716 240.494,119.313 240.941,119.313 241.387,118.911 241.834,118.911 242.28,118.509 242.726,118.509 243.173,118.509 243.619,118.509 244.066,118.509 244.512,118.509 244.958,118.509 245.405,118.106 245.851,118.509 246.298,118.106 246.744,117.704 247.19,118.106 247.637,118.106 248.083,116.899 248.53,117.302 248.976,116.899 249.422,116.899 249.869,116.899 250.315,116.497 250.762,116.497 251.208,116.497 251.654,116.497 252.101,116.497 252.547,116.497 252.994,116.497 253.44,116.497 253.886,116.094 254.333,116.094 254.779,116.094 255.226,116.094 255.672,115.692 256.118,115.29 256.565,115.29 257.011,115.29 257.458,115.29 257.904,114.887 258.35,114.485 258.797,114.485 259.243,114.485 259.69,114.485 260.136,114.485 260.582,114.485 261.029,114.485 261.475,114.083 261.922,113.68 262.368,114.485 262.814,114.083 263.261,113.68 263.707,114.485 264.154,114.083 264.6,113.68 265.046,113.278 265.493,113.278 265.939,112.875 266.386,113.278 266.832,112.473 267.278,112.875 267.725,112.875 268.171,112.473 268.618,112.473 269.064,112.473 269.51,112.473 269.957,112.473 270.403,112.473 270.85,112.473 271.296,112.071 271.742,112.473 272.189,112.473 272.635,112.071 273.082,112.473 273.528,111.668 273.974,112.071 274.421,111.266 274.867,111.266 275.314,110.461 275.76,110.461 276.206,110.461 276.653,110.461 277.099,110.461 277.546,110.864 277.992,110.461 278.438,110.461 278.885,110.461 279.331,110.864 279.778,110.461 280.224,110.059 280.67,110.461 281.117,110.059 281.563,110.059 282.01,110.059 282.456,110.059 282.902,109.656 283.349,110.461 283.795,110.059 284.242,109.254 284.688,109.254 285.134,108.852 285.581,109.254 286.027,109.254 286.474,109.254 286.92,108.852 287.366,108.852 287.813,108.852 288.259,108.449 288.706,108.852 289.152,108.449 289.598,108.449 290.045,108.852 290.491,108.449 290.938,108.047 291.384,108.449 291.83,108.449 292.277,108.449 292.723,108.449 293.17,108.449 293.616,108.449 294.062,108.449 294.509,108.047 294.955,108.047 295.402,108.047 295.848,107.645 296.294,108.047 296.741,107.242 297.187,107.645 297.634,107.645 298.08,107.645 298.526,106.84 298.973,107.242 299.419,106.84 299.866,106.437 300.312,107.645 300.758,106.84 301.205,107.242 301.651,106.84 302.098,106.437 302.544,106.84 302.99,106.84 303.437,106.437 303.883,106.035 304.33,106.84 304.776,106.84 305.222,106.437 305.669,106.437 306.115,105.633 306.562,106.437 307.008,106.437 307.454,106.437 307.901,106.035 308.347,106.035 308.794,106.035 309.24,106.035 309.686,105.633 310.133,106.035 310.579,106.035 311.026,106.035 311.472,106.035 311.918,105.633 312.365,105.633 312.811,106.035 313.258,105.633 313.704,105.633 314.15,105.23 314.597,105.23 315.043,105.23 315.49,105.633 315.936,104.828 316.382,104.426 316.829,104.426 317.275,105.23 317.722,104.828 318.168,104.828 318.614,104.426 319.061,104.426 319.507,104.426 319.954,104.828 320.4,104.426 320.846,104.023 321.293,104.426 321.739,104.426 322.186,104.426 322.632,104.426 323.078,104.426 323.525,104.023 323.971,104.023 324.418,104.426 324.864,104.426 325.31,104.023 325.757,104.023 326.203,102.816 326.65,104.023 327.096,104.023 327.542,104.023 327.989,104.023 328.435,103.218 328.882,103.621 329.328,103.621 329.774,104.023 330.221,103.621 330.667,103.621 331.114,103.621 331.56,103.218 332.006,103.621 332.453,103.218 332.899,103.218 333.346,103.218 333.792,102.414 334.238,102.414 334.685,102.414 335.131,102.816 335.578,102.816 336.024,102.414 336.47,102.816 336.917,102.414 337.363,102.816 337.81,102.414 338.256,102.414 338.702,102.414 339.149,102.414 339.595,102.011 340.042,102.414 340.488,102.414 340.934,102.011 341.381,102.011 341.827,101.609 342.274,102.011 342.72,102.011 343.166,102.414 343.613,101.609 344.059,102.011 344.506,102.011 344.952,102.011 345.398,102.011 345.845,101.609 346.291,102.011 346.738,102.011 347.184,101.609 347.63,101.609 348.077,101.609 348.523,101.609 348.97,101.609 349.416,101.609 349.862,102.011 350.309,101.206 350.755,101.206 351.202,101.609 351.648,100.804 352.094,100.804 352.541,101.206 352.987,101.609 353.434,100.804 353.88,101.206 354.326,100.804 354.773,100.402 355.219,101.206 355.666,100.402 356.112,100.402 356.558,100.402 357.005,100.402 357.451,99.9994 357.898,100.402 358.344,99.9994 358.79,100.402 359.237,99.9994 359.683,100.804 360.13,100.402 360.576,100.402 361.022,99.9994 361.469,99.9994 361.915,99.9994 362.362,99.9994 362.808,99.9994 363.254,99.597 363.701,99.9994 364.147,99.9994 364.594,99.9994 365.04,99.9994 365.486,99.597 365.933,99.597 366.379,99.597 366.826,99.9994 367.272,99.9994 367.718,99.597 368.165,99.1946 368.611,99.9994 369.058,99.597 369.504,99.597 369.95,99.597 370.397,99.1946 370.843,99.597 371.29,99.1946 371.736,99.1946 372.182,99.597 372.629,99.597 373.075,99.1946 373.522,99.1946 373.968,99.597 374.414,99.1946 374.861,98.7922 375.307,98.7922 375.754,99.1946 376.2,99.1946 376.646,98.7922 377.093,99.1946 377.539,98.7922 377.986,98.7922 378.432,98.7922 378.878,98.3898 379.325,98.3898 379.771,97.9875 380.218,98.3898 380.664,98.3898 381.11,98.7922 381.557,98.7922 382.003,98.3898 382.45,97.9875 382.896,98.7922 383.342,97.9875 383.789,97.9875 384.235,97.9875 384.682,97.9875 385.128,98.3898 385.574,98.3898 386.021,97.9875 386.467,98.3898 386.914,97.9875 387.36,97.5851 387.806,97.1827 388.253,98.3898 388.699,97.5851 389.146,97.1827 389.592,97.5851 390.038,97.5851 390.485,97.9875 390.931,97.1827 391.378,97.5851 391.824,97.5851 392.27,97.1827 392.717,96.7803 393.163,97.1827 393.61,97.5851 394.056,97.5851 394.502,96.7803 394.949,96.7803 395.395,96.7803 395.842,97.1827 396.288,97.1827 396.734,96.7803 397.181,96.7803 397.627,97.1827 398.074,97.1827 398.52,96.378 398.966,96.7803 399.413,96.7803 399.859,96.7803 400.306,96.378 400.752,95.9756 401.198,96.7803 401.645,96.378 402.091,96.7803 402.538,96.7803 402.984,96.378 403.43,95.9756 403.877,96.7803 404.323,96.378 404.77,95.9756 405.216,96.378 405.662,95.9756 406.109,97.1827 406.555,96.378 407.002,96.378 407.448,95.9756 407.894,95.9756 408.341,95.5732 408.787,95.9756 409.234,95.5732 409.68,96.378 410.126,95.9756 410.573,96.378 411.019,95.9756 411.466,95.9756 411.912,96.378 412.358,95.5732 412.805,95.9756 413.251,95.5732 413.698,95.5732 414.144,95.5732 414.59,95.9756 415.037,95.5732 415.483,95.5732 415.93,95.5732 416.376,95.5732 416.822,95.5732 417.269,95.5732 417.715,95.5732 418.162,95.5732 418.608,95.9756 419.054,95.5732 419.501,95.9756 419.947,95.9756 420.394,95.5732 420.84,95.1708 421.286,95.5732 421.733,95.5732 422.179,95.1708 422.626,95.1708 423.072,95.1708 423.518,95.5732 423.965,95.5732 424.411,95.5732 424.858,94.7685 425.304,95.5732 425.75,95.5732 426.197,95.1708 426.643,94.7685 427.09,95.1708 427.536,95.1708 427.982,95.1708 428.429,94.3661 428.875,95.1708 429.322,94.3661 429.768,94.7685 430.214,94.7685 430.661,94.3661 431.107,94.7685 431.554,93.9637 432,94.7685 432.446,94.7685 432.893,94.7685 433.339,93.5613 433.786,94.7685 434.232,94.3661 434.678,94.3661 435.125,94.3661 435.571,94.7685 436.018,94.3661 436.464,93.9637 436.91,94.3661 437.357,94.3661 437.803,94.3661 438.25,94.3661 438.696,93.9637 439.142,93.9637 439.589,93.9637 440.035,93.5613 440.482,93.9637 440.928,93.9637 441.374,93.9637 441.821,93.9637 442.267,93.9637 442.714,93.9637 443.16,93.9637 443.606,93.5613 444.053,93.9637 444.499,93.9637 444.946,93.9637 445.392,93.9637 445.838,93.5613 446.285,93.9637 446.731,93.5613 447.178,93.5613 447.624,93.5613 448.07,93.5613 448.517,93.9637 448.963,94.3661 449.41,93.5613 449.856,93.5613 450.302,93.159 450.749,93.5613 451.195,93.9637 451.642,93.5613 452.088,93.5613 452.534,93.5613 452.981,93.5613 453.427,93.5613 453.874,93.5613 454.32,93.5613 454.766,93.5613 455.213,93.159 455.659,93.5613 456.106,93.5613 456.552,92.7566 456.998,93.5613 457.445,93.5613 457.891,92.7566 458.338,93.5613 458.784,93.5613 459.23,93.159 459.677,93.159 460.123,93.159 460.57,93.5613 461.016,93.159 461.462,92.7566 461.909,93.5613 462.355,93.159 462.802,92.7566 463.248,92.7566 463.694,93.159 464.141,93.159 464.587,92.7566 465.034,93.159 465.48,92.7566 465.926,93.159 466.373,93.159 466.819,93.159 467.266,92.7566 467.712,92.7566 468.158,93.5613 468.605,92.3542 469.051,91.9518 469.498,91.9518 469.944,92.7566 470.39,92.3542 470.837,92.3542 471.283,92.3542 471.73,92.3542 472.176,92.7566 472.622,91.9518 473.069,92.3542 473.515,92.3542 473.962,92.3542 474.408,92.3542 474.854,92.3542 475.301,92.7566 475.747,92.7566 476.194,91.9518 476.64,91.9518 477.086,91.9518 477.533,91.9518 477.979,91.9518 478.426,91.9518 478.872,91.5494 479.318,92.3542 479.765,91.9518 480.211,91.5494 480.658,91.9518 481.104,91.9518 481.55,91.9518 481.997,91.5494 482.443,91.9518 482.89,91.9518 483.336,91.5494 483.782,91.9518 484.229,91.5494 484.675,91.5494 485.122,91.9518 485.568,91.5494 486.014,91.9518 486.461,91.5494 486.907,91.5494 487.354,91.9518 487.8,91.5494 488.246,91.5494 488.693,91.5494 489.139,91.9518 489.586,91.5494 490.032,91.5494 490.478,91.5494 490.925,91.9518 491.371,91.5494 491.818,91.9518 492.264,91.9518 492.71,91.5494 493.157,91.5494 493.603,91.5494 494.05,91.1471 494.496,91.5494 494.942,91.5494 495.389,91.9518 495.835,91.5494 496.282,91.1471 496.728,91.1471 497.174,91.5494 497.621,91.5494 498.067,91.5494 498.514,91.9518 498.96,91.5494 499.406,91.5494 499.853,91.5494 500.299,91.5494 500.746,91.5494 501.192,91.1471 501.638,91.1471 502.085,91.5494 502.531,91.5494 502.978,91.1471 503.424,91.1471 503.87,91.5494 504.317,91.1471 504.763,91.1471 505.21,91.5494 505.656,91.5494 506.102,91.1471 506.549,91.5494 506.995,91.5494 507.442,91.1471 507.888,90.7447 508.334,91.1471 508.781,91.1471 509.227,90.7447 509.674,90.7447 510.12,90.7447 510.566,91.1471 511.013,91.1471 511.459,90.3423 511.906,90.3423 512.352,90.3423 512.798,91.1471 513.245,90.7447 513.691,90.3423 514.138,91.1471 514.584,91.1471 515.03,90.3423 515.477,90.7447 515.923,89.9399 516.37,89.9399 516.816,90.3423 517.262,89.9399 517.709,90.7447 518.155,89.9399 518.602,90.3423 519.048,90.3423 519.494,90.7447 519.941,90.7447 520.387,89.9399 520.834,90.3423 521.28,90.3423 521.726,89.9399 521.726,89.9399"/>
<polyline fill="none" stroke="#d85218" stroke-width="0.5" stroke-linecap="butt" stroke-linejoin="miter" points="74.4336,334.183 74.4336,334.183 74.88,330.964 75.3264,328.952 75.7728,328.147 76.2192,327.745 76.6656,325.331 77.112,322.916 77.5584,320.502 78.0048,318.088 78.4512,315.674 78.8976,312.857 79.344,311.247 79.7904,308.431 80.2368,305.614 80.6832,303.602 81.1296,301.188 81.576,298.371 82.0224,296.359 82.4688,294.75 82.9152,291.933 83.3616,290.726 83.808,288.312 84.2544,286.3 84.7008,284.288 85.1472,281.874 85.5936,280.667 86.04,278.655 86.4864,277.448 86.9328,275.033 87.3792,273.022 87.8256,271.412 88.272,269.803 88.7184,268.595 89.1648,266.583 89.6112,264.974 90.0576,263.365 90.504,261.755 90.9504,260.548 91.3968,258.938 91.8432,257.329 92.2896,256.122 92.736,254.11 93.1824,253.305 93.6288,251.696 94.0752,249.684 94.5216,247.672 94.968,247.269 95.4144,246.062 95.8608,245.258 96.3072,243.246 96.7536,243.246 97.2,240.831 97.6464,240.027 98.0928,238.819 98.5392,237.612 98.9856,236.405 99.432,235.198 99.8784,233.991 100.325,232.381 100.771,231.577 101.218,230.37 101.664,229.565 102.11,228.358 102.557,227.151 103.003,226.748 103.45,225.541 103.896,225.139 104.342,223.529 104.789,221.92 105.235,221.517 105.682,221.115 106.128,219.908 106.574,219.103 107.021,217.493 107.467,217.091 107.914,215.884 108.36,215.079 108.806,213.47 109.253,213.067 109.699,211.86 110.146,211.458 110.592,210.653 111.038,209.446 111.485,209.044 111.931,208.239 112.378,207.434 112.824,206.629 113.27,206.227 113.717,205.825 114.163,204.617 114.61,203.41 115.056,203.41 115.502,201.801 115.949,201.801 116.395,200.191 116.842,200.191 117.288,199.387 117.734,198.984 118.181,198.179 118.627,197.375 119.074,196.168 119.52,195.765 119.966,195.765 120.413,194.558 120.859,193.753 121.306,193.351 121.752,192.144 122.198,192.144 122.645,191.339 123.091,190.937 123.538,190.132 123.984,189.729 124.43,188.522 124.877,188.522 125.323,188.12 125.77,186.51 126.216,186.913 126.662,185.706 127.109,184.901 127.555,184.499 128.002,184.096 128.448,184.096 128.894,183.291 129.341,182.889 129.787,182.084 130.234,181.682 130.68,181.682 131.126,180.877 131.573,179.67 132.019,179.268 132.466,179.268 132.912,178.463 133.358,178.061 133.805,177.658 134.251,177.658 134.698,177.256 135.144,176.049 135.59,176.451 136.037,175.646 136.483,174.439 136.93,174.842 137.376,174.439 137.822,174.439 138.269,174.037 138.715,173.232 139.162,172.83 139.608,172.427 140.054,171.22 140.501,171.22 140.947,171.22 141.394,170.415 141.84,170.013 142.286,169.208 142.733,168.806 143.179,168.806 143.626,168.806 144.072,168.001 144.518,168.001 144.965,167.599 145.411,166.794 145.858,166.794 146.304,166.392 146.75,165.989 147.197,165.587 147.643,164.782 148.09,164.782 148.536,164.38 148.982,164.38 149.429,163.575 149.875,163.575 150.322,163.575 150.768,163.173 151.214,162.77 151.661,162.368 152.107,162.368 152.554,160.758 153,161.161 153.446,160.758 153.893,160.356 154.339,160.356 154.786,159.551 155.232,159.551 155.678,159.149 156.125,158.344 156.571,158.344 157.018,157.942 157.464,158.344 157.91,157.539 158.357,157.942 158.803,156.735 159.25,156.332 159.696,156.332 160.142,156.332 160.589,156.332 161.035,156.332 161.482,155.527 161.928,154.723 162.374,155.125 162.821,155.125 163.267,153.918 163.714,153.918 164.16,154.32 164.606,153.918 165.053,153.113 165.499,153.113 165.946,152.711 166.392,152.308 166.838,152.308 167.285,152.308 167.731,151.504 168.178,151.504 168.624,150.699 169.07,150.699 169.517,150.699 169.963,150.699 170.41,150.297 170.856,150.297 171.302,149.492 171.749,149.894 172.195,149.894 172.642,149.492 173.088,149.089 173.534,148.285 173.981,148.285 174.427,148.285 174.874,147.882 175.32,147.882 175.766,147.48 176.213,147.077 176.659,147.48 177.106,146.675 177.552,146.675 177.998,146.675 178.445,146.273 178.891,146.273 179.338,145.87 179.784,145.468 180.23,145.066 180.677,145.066 181.123,145.468 181.57,144.663 182.016,144.261 182.462,144.261 182.909,143.858 183.355,143.858 183.802,144.261 184.248,142.651 184.694,142.651 185.141,142.651 185.587,143.054 186.034,142.249 186.48,142.249 186.926,142.249 187.373,141.847 187.819,142.249 188.266,141.847 188.712,142.249 189.158,141.444 189.605,141.444 190.051,141.042 190.498,141.444 190.944,141.444 191.39,140.639 191.837,140.237 192.283,140.639 192.73,140.639 193.176,139.835 193.622,140.237 194.069,140.237 194.515,140.237 194.962,139.835 195.408,138.628 195.854,138.225 196.301,138.628 196.747,139.03 197.194,138.225 197.64,137.823 198.086,138.225 198.533,138.225 198.979,137.823 199.426,137.823 199.872,137.018 200.318,137.823 200.765,137.018 201.211,136.616 201.658,137.018 202.104,136.616 202.55,136.616 202.997,136.213 203.443,136.616 203.89,136.213 204.336,136.213 204.782,136.616 205.229,136.213 205.675,135.006 206.122,136.213 206.568,135.409 207.014,135.409 207.461,135.006 207.907,134.604 208.354,134.604 208.8,134.604 209.246,134.604 209.693,134.604 210.139,134.201 210.586,134.201 211.032,133.397 211.478,134.201 211.925,133.799 212.371,133.397 212.818,133.397 213.264,132.19 213.71,132.592 214.157,132.592 214.603,132.592 215.05,132.592 215.496,132.994 215.942,132.592 216.389,131.787 216.835,132.19 217.282,131.787 217.728,132.19 218.174,131.787 218.621,131.787 219.067,131.787 219.514,130.58 219.96,130.982 220.406,130.982 220.853,130.982 221.299,130.982 221.746,130.982 222.192,130.58 222.638,130.58 223.085,130.178 223.531,130.58 223.978,130.178 224.424,129.775 224.87,130.178 225.317,129.775 225.763,129.775 226.21,129.775 226.656,129.373 227.102,129.373 227.549,129.373 227.995,129.373 228.442,128.971 228.888,129.373 229.334,128.971 229.781,128.568 230.227,128.568 230.674,128.971 231.12,128.971 231.566,127.763 232.013,127.763 232.459,127.763 232.906,128.166 233.352,127.361 233.798,127.763 234.245,127.763 234.691,127.763 235.138,127.763 235.584,126.959 236.03,126.556 236.477,126.556 236.923,126.154 237.37,126.959 237.816,126.959 238.262,126.556 238.709,126.154 239.155,126.154 239.602,126.154 240.048,126.154 240.494,126.154 240.941,125.752 241.387,126.154 241.834,125.752 242.28,125.752 242.726,125.752 243.173,126.154 243.619,125.752 244.066,124.947 244.512,125.752 244.958,125.349 245.405,125.752 245.851,124.947 246.298,125.349 246.744,125.349 247.19,124.142 247.637,124.947 248.083,124.947 248.53,124.947 248.976,124.142 249.422,124.142 249.869,124.142 250.315,123.74 250.762,124.142 251.208,124.142 251.654,124.142 252.101,123.74 252.547,123.337 252.994,123.74 253.44,123.337 253.886,123.74 254.333,123.337 254.779,122.935 255.226,122.935 255.672,122.935 256.118,123.337 256.565,122.935 257.011,122.13 257.458,122.13 257.904,122.532 258.35,122.13 258.797,122.13 259.243,122.532 259.69,122.13 260.136,122.532 260.582,122.532 261.029,121.728 261.475,122.13 261.922,121.728 262.368,122.13 262.814,122.13 263.261,121.728 263.707,121.728 264.154,121.325 264.6,121.728 265.046,121.728 265.493,121.728 265.939,121.325 266.386,121.728 266.832,121.325 267.278,121.325 267.725,120.923 268.171,120.923 268.618,121.325 269.064,120.521 269.51,120.521 269.957,120.923 270.403,120.118 270.85,120.118 271.296,120.923 271.742,120.521 272.189,120.118 272.635,120.118 273.082,119.716 273.528,120.118 273.974,119.716 274.421,120.118 274.867,119.313 275.314,119.313 275.76,120.118 276.206,119.313 276.653,119.716 277.099,119.313 277.546,119.313 277.992,119.716 278.438,119.313 278.885,119.313 279.331,118.509 279.778,119.313 280.224,118.911 280.67,118.911 281.117,118.911 281.563,119.313 282.01,118.911 282.456,118.509 282.902,118.911 283.349,118.509 283.795,119.313 284.242,118.509 284.688,118.106 285.134,118.106 285.581,118.106 286.027,117.704 286.474,118.106 286.92,118.106 287.366,118.106 287.813,117.704 288.259,117.704 288.706,117.704 289.152,117.704 289.598,117.302 290.045,117.704 290.491,117.704 290.938,116.899 291.384,117.302 291.83,116.497 292.277,116.899 292.723,116.899 293.17,117.302 293.616,117.704 294.062,116.497 294.509,116.094 294.955,116.497 295.402,116.094 295.848,116.094 296.294,116.094 296.741,116.497 297.187,116.497 297.634,116.094 298.08,116.497 298.526,116.497 298.973,116.094 299.419,116.497 299.866,116.094 300.312,116.094 300.758,116.094 301.205,115.692 301.651,115.692 302.098,115.692 302.544,115.692 302.99,115.29 303.437,115.29 303.883,115.692 304.33,115.692 304.776,115.29 305.222,114.887 305.669,114.887 306.115,115.29 306.562,115.692 307.008,114.887 307.454,114.485 307.901,114.887 308.347,114.485 308.794,114.887 309.24,114.887 309.686,114.887 310.133,114.083 310.579,114.485 311.026,114.485 311.472,114.485 311.918,114.485 312.365,114.485 312.811,114.083 313.258,114.485 313.704,114.485 314.15,113.68 314.597,114.083 315.043,113.68 315.49,114.485 315.936,113.278 316.382,113.68 316.829,113.68 317.275,113.68 317.722,113.68 318.168,113.68 318.614,113.278 319.061,113.278 319.507,113.68 319.954,113.278 320.4,113.278 320.846,112.875 321.293,112.875 321.739,113.278 322.186,113.278 322.632,113.278 323.078,113.278 323.525,113.278 323.971,113.278 324.418,112.875 324.864,112.875 325.31,112.875 325.757,112.875 326.203,112.875 326.65,113.278 327.096,112.071 327.542,112.875 327.989,112.473 328.435,112.473 328.882,112.473 329.328,112.473 329.774,112.875 330.221,111.668 330.667,111.668 331.114,112.071 331.56,112.071 332.006,112.071 332.453,112.071 332.899,112.473 333.346,112.071 333.792,112.071 334.238,112.071 334.685,112.071 335.131,111.668 335.578,111.668 336.024,111.668 336.47,112.071 336.917,111.668 337.363,111.668 337.81,111.668 338.256,111.668 338.702,111.266 339.149,110.864 339.595,111.668 340.042,111.266 340.488,111.266 340.934,111.266 341.381,111.266 341.827,111.266 342.274,111.266 342.72,110.461 343.166,110.864 343.613,110.864 344.059,110.864 344.506,111.266 344.952,111.266 345.398,110.461 345.845,111.266 346.291,110.461 346.738,110.864 347.184,110.461 347.63,110.461 348.077,110.461 348.523,110.864 348.97,110.461 349.416,110.461 349.862,110.059 350.309,110.461 350.755,109.656 351.202,110.461 351.648,110.059 352.094,110.059 352.541,109.656 352.987,109.254 353.434,110.059 353.88,110.059 354.326,110.059 354.773,109.254 355.219,110.059 355.666,110.059 356.112,110.059 356.558,110.059 357.005,109.656 357.451,110.059 357.898,110.059 358.344,109.656 358.79,109.656 359.237,109.254 359.683,109.656 360.13,109.254 360.576,109.656 361.022,109.254 361.469,109.254 361.915,109.254 362.362,109.254 362.808,109.254 363.254,109.254 363.701,109.656 364.147,108.852 364.594,109.254 365.04,109.254 365.486,109.254 365.933,108.852 366.379,109.254 366.826,109.254 367.272,108.852 367.718,109.254 368.165,108.449 368.611,108.852 369.058,109.254 369.504,108.852 369.95,108.449 370.397,109.254 370.843,108.852 371.29,108.852 371.736,108.047 372.182,108.047 372.629,108.852 373.075,108.449 373.522,107.645 373.968,108.047 374.414,107.645 374.861,108.449 375.307,108.852 375.754,108.047 376.2,108.449 376.646,108.449 377.093,108.449 377.539,108.047 377.986,107.645 378.432,107.645 378.878,107.645 379.325,108.449 379.771,108.047 380.218,107.645 380.664,107.645 381.11,107.242 381.557,107.645 382.003,107.645 382.45,107.645 382.896,107.645 383.342,107.645 383.789,107.645 384.235,107.242 384.682,107.645 385.128,107.645 385.574,107.242 386.021,107.242 386.467,107.645 386.914,107.242 387.36,106.84 387.806,106.84 388.253,106.84 388.699,106.84 389.146,107.242 389.592,106.437 390.038,107.242 390.485,107.242 390.931,106.84 391.378,106.84 391.824,107.645 392.27,106.84 392.717,107.242 393.163,107.242 393.61,106.84 394.056,107.242 394.502,106.84 394.949,106.437 395.395,106.437 395.842,107.242 396.288,106.84 396.734,106.84 397.181,106.437 397.627,106.84 398.074,106.437 398.52,106.84 398.966,106.437 399.413,106.035 399.859,106.84 400.306,106.437 400.752,106.437 401.198,106.437 401.645,106.437 402.091,106.035 402.538,106.437 402.984,106.437 403.43,106.437 403.877,105.633 404.323,106.437 404.77,106.437 405.216,105.633 405.662,105.633 406.109,106.035 406.555,105.633 407.002,106.035 407.448,105.633 407.894,105.633 408.341,106.035 408.787,106.035 409.234,106.035 409.68,106.035 410.126,105.633 410.573,105.633 411.019,106.035 411.466,105.633 411.912,105.23 412.358,105.633 412.805,106.035 413.251,105.633 413.698,104.828 414.144,105.633 414.59,106.035 415.037,106.035 415.483,105.633 415.93,105.633 416.376,105.633 416.822,105.633 417.269,105.633 417.715,105.23 418.162,105.23 418.608,105.23 419.054,105.633 419.501,105.23 419.947,105.23 420.394,105.23 420.84,104.426 421.286,104.828 421.733,105.23 422.179,105.633 422.626,105.23 423.072,105.633 423.518,105.23 423.965,105.633 424.411,105.633 424.858,105.23 425.304,105.23 425.75,105.23 426.197,104.828 426.643,105.23 427.09,104.828 427.536,104.828 427.982,104.828 428.429,104.426 428.875,103.621 429.322,104.426 429.768,105.23 430.214,104.426 430.661,103.621 431.107,104.828 431.554,104.426 432,104.828 432.446,104.426 432.893,104.023 433.339,104.023 433.786,104.426 434.232,104.426 434.678,104.426 435.125,104.023 435.571,104.023 436.018,104.426 436.464,104.426 436.91,104.426 437.357,104.023 437.803,104.023 438.25,104.426 438.696,104.023 439.142,103.621 439.589,103.621 440.035,104.023 440.482,104.023 440.928,103.621 441.374,103.621 441.821,103.621 442.267,103.218 442.714,103.621 443.16,103.621 443.606,103.621 444.053,103.621 444.499,103.621 444.946,103.621 445.392,104.023 445.838,103.621 446.285,103.621 446.731,103.218 447.178,103.621 447.624,103.621 448.07,103.621 448.517,102.816 448.963,103.621 449.41,103.621 449.856,103.218 450.302,103.218 450.749,103.621 451.195,103.218 451.642,103.621 452.088,103.621 452.534,103.218 452.981,103.218 453.427,103.218 453.874,103.218 454.32,103.621 454.766,102.816 455.213,103.218 455.659,102.816 456.106,102.414 456.552,103.218 456.998,102.816 457.445,103.218 457.891,103.218 458.338,102.816 458.784,103.218 459.23,102.414 459.677,102.816 460.123,102.816 460.57,103.218 461.016,102.816 461.462,102.414 461.909,102.816 462.355,102.816 462.802,102.816 463.248,102.414 463.694,102.414 464.141,102.816 464.587,102.414 465.034,102.414 465.48,102.816 465.926,102.414 466.373,102.816 466.819,102.414 467.266,102.816 467.712,102.011 468.158,102.414 468.605,102.414 469.051,102.816 469.498,102.414 469.944,102.414 470.39,102.011 470.837,102.414 471.283,102.011 471.73,102.816 472.176,102.414 472.622,102.011 473.069,102.414 473.515,102.414 473.962,102.414 474.408,102.414 474.854,102.011 475.301,102.011 475.747,102.011 476.194,102.011 476.64,102.011 477.086,102.414 477.533,102.011 477.979,102.414 478.426,101.609 478.872,102.414 479.318,102.414 479.765,102.414 480.211,101.609 480.658,102.011 481.104,102.011 481.55,101.609 481.997,101.609 482.443,101.609 482.89,101.609 483.336,102.011 483.782,101.609 484.229,101.206 484.675,102.011 485.122,101.609 485.568,102.011 486.014,101.609 486.461,101.609 486.907,101.206 487.354,102.011 487.8,102.011 488.246,102.011 488.693,101.609 489.139,101.609 489.586,101.609 490.032,101.206 490.478,101.206 490.925,102.011 491.371,101.609 491.818,102.011 492.264,101.206 492.71,100.804 493.157,101.609 493.603,101.206 494.05,101.206 494.496,101.206 494.942,101.206 495.389,100.804 495.835,101.609 496.282,100.402 496.728,100.804 497.174,100.804 497.621,101.206 498.067,101.609 498.514,101.609 498.96,101.609 499.406,100.804 499.853,100.804 500.299,100.402 500.746,100.402 501.192,100.402 501.638,100.402 502.085,100.402 502.531,101.206 502.978,100.402 503.424,100.804 503.87,100.804 504.317,100.402 504.763,100.804 505.21,100.804 505.656,100.402 506.102,100.402 506.549,100.402 506.995,100.804 507.442,100.402 507.888,99.9994 508.334,99.9994 508.781,99.9994 509.227,99.9994 509.674,100.402 510.12,99.9994 510.566,100.402 511.013,100.402 511.459,100.402 511.906,99.9994 512.352,100.804 512.798,100.402 513.245,100.402 513.691,100.402 514.138,99.9994 514.584,99.9994 515.03,99.9994 515.477,100.402 515.923,99.9994 516.37,100.804 516.816,99.9994 517.262,100.402 517.709,99.597 518.155,100.402 518.602,100.402 519.048,99.597 519.494,100.402 519.941,99.9994 520.387,99.597 520.834,99.9994 521.28,100.402 521.726,99.9994 521.726,99.9994"/>
<polyline fill="none" stroke="#ecb01f" stroke-width="0.5" stroke-linecap="butt" stroke-linejoin="miter" points="74.4336,328.55 74.4336,328.55 74.88,325.733 75.3264,323.319 75.7728,320.502 76.2192,319.697 76.6656,316.076 77.112,312.857 77.5584,310.04 78.0048,308.431 78.4512,304.005 78.8976,302.797 79.344,299.981 79.7904,296.762 80.2368,293.945 80.6832,291.129 81.1296,289.117 81.576,286.3 82.0224,283.483 82.4688,281.069 82.9152,279.057 83.3616,276.643 83.808,274.229 84.2544,271.412 84.7008,269.4 85.1472,266.583 85.5936,265.376 86.04,262.56 86.4864,260.145 86.9328,258.134 87.3792,256.524 87.8256,253.707 88.272,251.696 88.7184,250.086 89.1648,248.074 89.6112,246.465 90.0576,244.453 90.504,242.441 90.9504,241.234 91.3968,238.417 91.8432,236.808 92.2896,235.6 92.736,233.186 93.1824,231.979 93.6288,229.565 94.0752,228.76 94.5216,226.346 94.968,225.139 95.4144,223.932 95.8608,222.322 96.3072,220.31 96.7536,218.701 97.2,217.493 97.6464,216.286 98.0928,214.274 98.5392,213.067 98.9856,211.86 99.432,209.446 99.8784,208.641 100.325,207.434 100.771,206.227 101.218,205.422 101.664,203.41 102.11,201.801 102.557,200.996 103.003,199.789 103.45,198.179 103.896,196.972 104.342,195.765 104.789,194.558 105.235,192.948 105.682,191.741 106.128,190.937 106.574,190.132 107.021,188.522 107.467,187.718 107.914,186.51 108.36,185.303 108.806,184.499 109.253,183.291 109.699,181.682 110.146,180.877 110.592,180.072 111.038,178.865 111.485,177.658 111.931,176.451 112.378,176.049 112.824,175.646 113.27,174.842 113.717,173.634 114.163,172.427 114.61,171.622 115.056,170.818 115.502,169.611 115.949,169.611 116.395,168.001 116.842,166.794 117.288,165.989 117.734,165.587 118.181,164.782 118.627,163.977 119.074,162.77 119.52,161.563 119.966,160.758 120.413,160.356 120.859,159.149 121.306,158.746 121.752,157.942 122.198,157.539 122.645,156.735 123.091,155.93 123.538,155.125 123.984,155.125 124.43,153.918 124.877,153.516 125.323,152.711 125.77,151.101 126.216,151.101 126.662,150.297 127.109,149.894 127.555,149.089 128.002,149.089 128.448,147.077 128.894,146.675 129.341,145.87 129.787,145.468 130.234,145.066 130.68,143.456 131.126,143.054 131.573,143.054 132.019,142.651 132.466,141.847 132.912,141.042 133.358,141.042 133.805,139.835 134.251,139.432 134.698,139.03 135.144,139.03 135.59,139.03 136.037,138.628 136.483,137.823 136.93,137.018 137.376,137.018 137.822,135.006 138.269,135.006 138.715,135.006 139.162,134.604 139.608,132.994 140.054,132.994 140.501,132.592 140.947,132.994 141.394,131.787 141.84,130.982 142.286,130.982 142.733,130.58 143.179,128.971 143.626,128.971 144.072,128.971 144.518,128.568 144.965,127.763 145.411,126.959 145.858,126.959 146.304,126.959 146.75,126.556 147.197,125.752 147.643,125.349 148.09,124.947 148.536,124.544 148.982,124.142 149.429,123.337 149.875,122.935 150.322,122.935 150.768,122.935 151.214,122.935 151.661,121.728 152.107,120.923 152.554,121.325 153,120.923 153.446,120.923 153.893,120.118 154.339,120.118 154.786,119.313 155.232,119.313 155.678,118.911 156.125,118.106 156.571,118.106 157.018,117.302 157.464,117.302 157.91,116.899 158.357,116.899 158.803,116.497 159.25,115.692 159.696,115.692 160.142,115.692 160.589,114.887 161.035,114.887 161.482,114.887 161.928,114.083 162.374,113.278 162.821,112.875 163.267,112.875 163.714,112.473 164.16,112.473 164.606,112.071 165.053,111.266 165.499,110.864 165.946,111.668 166.392,110.864 166.838,110.864 167.285,110.864 167.731,110.461 168.178,109.254 168.624,109.254 169.07,109.656 169.517,109.254 169.963,108.852 170.41,108.852 170.856,108.047 171.302,108.047 171.749,108.047 172.195,107.645 172.642,107.242 173.088,106.84 173.534,106.84 173.981,106.84 174.427,106.84 174.874,106.437 175.32,106.437 175.766,105.23 176.213,105.23 176.659,105.23 177.106,105.23 177.552,104.828 177.998,104.828 178.445,104.426 178.891,104.828 179.338,104.023 179.784,103.621 180.23,103.621 180.677,103.621 181.123,103.218 181.57,103.218 182.016,102.816 182.462,102.011 182.909,102.011 183.355,101.609 183.802,101.609 184.248,101.609 184.694,101.206 185.141,100.804 185.587,101.206 186.034,100.804 186.48,100.804 186.926,100.804 187.373,100.402 187.819,100.804 188.266,100.402 188.712,99.9994 189.158,99.9994 189.605,99.597 190.051,99.597 190.498,98.7922 190.944,99.1946 191.39,98.7922 191.837,98.3898 192.283,98.3898 192.73,98.3898 193.176,98.3898 193.622,97.5851 194.069,97.1827 194.515,97.5851 194.962,97.1827 195.408,96.7803 195.854,96.7803 196.301,96.378 196.747,96.7803 197.194,95.9756 197.64,95.9756 198.086,94.7685 198.533,95.1708 198.979,95.5732 199.426,95.1708 199.872,95.5732 200.318,95.5732 200.765,94.7685 201.211,94.7685 201.658,94.7685 202.104,94.7685 202.55,94.7685 202.997,94.7685 203.443,94.3661 203.89,94.3661 204.336,93.5613 204.782,93.9637 205.229,93.5613 205.675,93.5613 206.122,93.5613 206.568,93.159 207.014,93.159 207.461,92.3542 207.907,93.159 208.354,92.7566 208.8,91.9518 209.246,91.5494 209.693,91.5494 210.139,91.9518 210.586,91.5494 211.032,91.9518 211.478,91.5494 211.925,91.5494 212.371,90.7447 212.818,91.1471 213.264,91.1471 213.71,90.7447 214.157,90.7447 214.603,90.7447 215.05,90.7447 215.496,90.3423 215.942,90.3423 216.389,90.3423 216.835,89.5376 217.282,90.3423 217.728,89.5376 218.174,89.5376 218.621,89.5376 219.067,89.1352 219.514,89.5376 219.96,89.5376 220.406,89.1352 220.853,89.5376 221.299,88.7328 221.746,89.1352 222.192,89.1352 222.638,88.7328 223.085,88.3304 223.531,87.9281 223.978,87.9281 224.424,87.9281 224.87,87.9281 225.317,87.9281 225.763,87.5257 226.21,87.5257 226.656,87.5257 227.102,87.5257 227.549,87.5257 227.995,87.1233 228.442,86.7209 228.888,86.7209 229.334,87.1233 229.781,86.7209 230.227,86.7209 230.674,86.7209 231.12,86.3185 231.566,86.3185 232.013,86.7209 232.459,85.5138 232.906,86.3185 233.352,85.9161 233.798,86.3185 234.245,85.5138 234.691,85.1114 235.138,85.5138 235.584,84.709 236.03,85.1114 236.477,85.1114 236.923,85.5138 237.37,85.1114 237.816,85.1114 238.262,85.1114 238.709,85.1114 239.155,84.709 239.602,84.709 240.048,84.709 240.494,84.709 240.941,84.709 241.387,84.709 241.834,84.709 242.28,84.709 242.726,84.709 243.173,84.3066 243.619,84.3066 244.066,84.3066 244.512,84.3066 244.958,84.3066 245.405,84.3066 245.851,83.5019 246.298,83.5019 246.744,83.5019 247.19,83.5019 247.637,83.0995 248.083,83.5019 248.53,82.6971 248.976,83.5019 249.422,82.6971 249.869,82.6971 250.315,83.0995 250.762,83.0995 251.208,83.0995 251.654,82.6971 252.101,82.6971 252.547,82.2947 252.994,82.6971 253.44,82.2947 253.886,81.8924 254.333,82.6971 254.779,82.2947 255.226,81.8924 255.672,82.6971 256.118,81.8924 256.565,81.49 257.011,81.0876 257.458,81.0876 257.904,81.49 258.35,81.49 258.797,81.49 259.243,80.6852 259.69,81.49 260.136,81.0876 260.582,81.0876 261.029,81.0876 261.475,81.0876 261.922,81.0876 262.368,80.6852 262.814,80.6852 263.261,80.6852 263.707,80.2829 264.154,80.2829 264.6,80.2829 265.046,79.8805 265.493,80.2829 265.939,80.6852 266.386,80.2829 266.832,79.8805 267.278,80.2829 267.725,79.8805 268.171,79.8805 268.618,79.4781 269.064,79.4781 269.51,79.4781 269.957,79.4781 270.403,78.6734 270.85,79.0757 271.296,79.0757 271.742,78.6734 272.189,78.6734 272.635,78.6734 273.082,78.6734 273.528,79.0757 273.974,79.0757 274.421,78.6734 274.867,78.6734 275.314,78.6734 275.76,78.6734 276.206,79.0757 276.653,78.6734 277.099,79.0757 277.546,78.6734 277.992,78.6734 278.438,78.6734 278.885,78.6734 279.331,78.6734 279.778,78.6734 280.224,78.6734 280.67,78.6734 281.117,78.6734 281.563,78.271 282.01,78.6734 282.456,77.8686 282.902,77.8686 283.349,78.271 283.795,78.271 284.242,77.4662 284.688,78.271 285.134,77.8686 285.581,77.0639 286.027,77.8686 286.474,77.8686 286.92,77.8686 287.366,77.0639 287.813,77.4662 288.259,77.4662 288.706,77.4662 289.152,77.4662 289.598,76.6615 290.045,77.4662 290.491,77.4662 290.938,76.6615 291.384,77.0639 291.83,77.0639 292.277,77.4662 292.723,77.0639 293.17,77.0639 293.616,76.6615 294.062,76.6615 294.509,76.2591 294.955,76.6615 295.402,76.6615 295.848,76.2591 296.294,76.6615 296.741,76.2591 297.187,76.6615 297.634,77.0639 298.08,76.6615 298.526,76.2591 298.973,76.2591 299.419,75.8568 299.866,76.2591 300.312,75.8568 300.758,76.2591 301.205,75.8568 301.651,75.8568 302.098,76.2591 302.544,75.052 302.99,75.4544 303.437,75.4544 303.883,75.8568 304.33,75.052 304.776,75.8568 305.222,75.052 305.669,75.4544 306.115,75.052 306.562,75.052 307.008,75.4544 307.454,75.4544 307.901,74.6496 308.347,75.4544 308.794,75.052 309.24,74.6496 309.686,75.052 310.133,74.6496 310.579,74.6496 311.026,75.052 311.472,74.6496 311.918,74.6496 312.365,74.6496 312.811,74.6496 313.258,74.6496 313.704,74.6496 314.15,74.6496 314.597,74.6496 315.043,74.6496 315.49,74.6496 315.936,74.6496 316.382,74.6496 316.829,74.6496 317.275,74.2473 317.722,74.6496 318.168,74.2473 318.614,74.6496 319.061,74.6496 319.507,74.6496 319.954,74.6496 320.4,74.6496 320.846,74.6496 321.293,74.6496 321.739,74.6496 322.186,74.6496 322.632,74.6496 323.078,74.6496 323.525,74.6496 323.971,73.8448 324.418,74.2473 324.864,74.6496 325.31,74.6496 325.757,74.6496 326.203,74.2473 326.65,74.6496 327.096,74.6496 327.542,74.2473 327.989,74.2473 328.435,73.8448 328.882,73.4424 329.328,73.8448 329.774,73.8448 330.221,73.8448 330.667,74.2473 331.114,72.6377 331.56,73.0401 332.006,74.2473 332.453,73.4424 332.899,73.8448 333.346,73.0401 333.792,73.0401 334.238,73.4424 334.685,73.0401 335.131,73.4424 335.578,73.0401 336.024,73.4424 336.47,73.0401 336.917,72.6377 337.363,73.0401 337.81,73.0401 338.256,72.6377 338.702,73.0401 339.149,73.0401 339.595,72.6377 340.042,72.6377 340.488,72.6377 340.934,73.0401 341.381,72.2354 341.827,72.6377 342.274,72.6377 342.72,72.6377 343.166,73.0401 343.613,72.6377 344.059,72.6377 344.506,73.0401 344.952,72.2354 345.398,72.6377 345.845,72.6377 346.291,71.8329 346.738,71.8329 347.184,72.2354 347.63,72.6377 348.077,72.6377 348.523,72.6377 348.97,72.6377 349.416,72.6377 349.862,72.6377 350.309,72.6377 350.755,71.8329 351.202,71.8329 351.648,72.2354 352.094,72.2354 352.541,71.8329 352.987,71.8329 353.434,71.8329 353.88,72.2354 354.326,72.2354 354.773,71.8329 355.219,71.8329 355.666,71.4306 356.112,71.4306 356.558,71.8329 357.005,71.8329 357.451,71.4306 357.898,71.4306 358.344,71.4306 358.79,71.8329 359.237,72.2354 359.683,71.0282 360.13,71.0282 360.576,71.0282 361.022,71.4306 361.469,70.6259 361.915,71.4306 362.362,70.6259 362.808,71.0282 363.254,71.8329 363.701,71.4306 364.147,70.6259 364.594,71.0282 365.04,71.0282 365.486,71.0282 365.933,71.4306 366.379,71.4306 366.826,70.6259 367.272,70.6259 367.718,71.0282 368.165,70.6259 368.611,71.0282 369.058,70.6259 369.504,70.6259 369.95,70.6259 370.397,70.6259 370.843,70.6259 371.29,70.6259 371.736,70.6259 372.182,70.2234 372.629,70.6259 373.075,70.6259 373.522,70.6259 373.968,70.6259 374.414,70.2234 374.861,70.2234 375.307,70.2234 375.754,71.0282 376.2,70.6259 376.646,70.6259 377.093,70.6259 377.539,70.6259 377.986,70.6259 378.432,70.2234 378.878,70.6259 379.325,70.2234 379.771,70.2234 380.218,70.2234 380.664,70.6259 381.11,70.6259 381.557,70.6259 382.003,70.2234 382.45,70.2234 382.896,70.6259 383.342,70.6259 383.789,70.6259 384.235,69.4187 384.682,69.8211 385.128,69.8211 385.574,70.2234 386.021,69.0163 386.467,70.2234 386.914,69.8211 387.36,70.2234 387.806,70.6259 388.253,70.2234 388.699,69.8211 389.146,69.8211 389.592,69.4187 390.038,69.8211 390.485,69.0163 390.931,70.2234 391.378,69.4187 391.824,69.8211 392.27,69.0163 392.717,70.6259 393.163,69.8211 393.61,69.4187 394.056,69.4187 394.502,69.8211 394.949,68.614 395.395,69.4187 395.842,69.0163 396.288,69.4187 396.734,69.4187 397.181,69.4187 397.627,69.4187 398.074,69.4187 398.52,69.0163 398.966,68.614 399.413,69.4187 399.859,69.0163 400.306,68.614 400.752,69.8211 401.198,69.0163 401.645,68.614 402.091,69.4187 402.538,68.614 402.984,69.0163 403.43,69.4187 403.877,69.0163 404.323,68.614 404.77,68.614 405.216,69.0163 405.662,68.614 406.109,68.614 406.555,69.0163 407.002,68.614 407.448,68.614 407.894,68.614 408.341,68.614 408.787,68.614 409.234,69.0163 409.68,68.614 410.126,68.614 410.573,69.0163 411.019,68.614 411.466,68.614 411.912,68.614 412.358,68.614 412.805,68.614 413.251,68.614 413.698,68.614 414.144,68.614 414.59,68.614 415.037,68.614 415.483,68.614 415.93,68.614 416.376,68.614 416.822,68.614 417.269,68.614 417.715,68.614 418.162,69.0163 418.608,68.614 419.054,68.614 419.501,68.614 419.947,68.614 420.394,68.614 420.84,68.614 421.286,68.614 421.733,68.614 422.179,68.614 422.626,68.614 423.072,68.614 423.518,68.614 423.965,68.614 424.411,68.614 424.858,68.614 425.304,68.614 425.75,68.614 426.197,68.614 426.643,68.614 427.09,68.614 427.536,68.614 427.982,68.614 428.429,68.614 428.875,68.614 429.322,68.614 429.768,68.614 430.214,68.614 430.661,68.614 431.107,68.614 431.554,68.614 432,68.614 432.446,68.614 432.893,68.614 433.339,68.614 433.786,68.614 434.232,68.614 434.678,68.614 435.125,68.614 435.571,68.614 436.018,68.614 436.464,68.614 436.91,68.614 437.357,68.614 437.803,68.614 438.25,68.614 438.696,68.614 439.142,68.614 439.589,68.614 440.035,68.614 440.482,68.614 440.928,68.614 441.374,68.614 441.821,68.614 442.267,68.614 442.714,68.614 443.16,68.614 443.606,68.614 444.053,68.614 444.499,68.614 444.946,68.614 445.392,68.614 445.838,68.614 446.285,68.2115 446.731,68.614 447.178,68.614 447.624,68.614 448.07,68.614 448.517,68.614 448.963,68.614 449.41,68.2115 449.856,68.614 450.302,68.614 450.749,68.2115 451.195,68.2115 451.642,68.614 452.088,68.614 452.534,68.614 452.981,68.614 453.427,68.614 453.874,68.614 454.32,68.614 454.766,68.614 455.213,68.614 455.659,68.614 456.106,68.614 456.552,68.614 456.998,68.614 457.445,68.614 457.891,68.614 458.338,68.614 458.784,68.614 459.23,68.614 459.677,68.614 460.123,68.614 460.57,68.2115 461.016,68.614 461.462,68.614 461.909,68.2115 462.355,68.2115 462.802,68.614 463.248,68.2115 463.694,68.614 464.141,68.2115 464.587,68.614 465.034,68.2115 465.48,68.2115 465.926,68.2115 466.373,67.8092 466.819,68.2115 467.266,68.614 467.712,68.614 468.158,67.4068 468.605,68.2115 469.051,68.2115 469.498,68.614 469.944,68.614 470.39,68.614 470.837,68.2115 471.283,68.2115 471.73,67.8092 472.176,67.8092 472.622,68.614 473.069,67.8092 473.515,68.2115 473.962,68.2115 474.408,67.8092 474.854,68.2115 475.301,68.614 475.747,68.2115 476.194,67.8092 476.64,67.8092 477.086,68.2115 477.533,67.8092 477.979,67.8092 478.426,67.0045 478.872,67.8092 479.318,68.2115 479.765,68.2115 480.211,68.2115 480.658,68.2115 481.104,67.0045 481.55,68.2115 481.997,67.8092 482.443,67.0045 482.89,67.8092 483.336,68.614 483.782,67.8092 484.229,67.4068 484.675,67.4068 485.122,67.8092 485.568,67.8092 486.014,67.8092 486.461,67.8092 486.907,67.0045 487.354,67.0045 487.8,67.8092 488.246,67.0045 488.693,67.8092 489.139,67.8092 489.586,66.6021 490.032,67.0045 490.478,67.4068 490.925,67.4068 491.371,67.4068 491.818,67.0045 492.264,67.8092 492.71,67.0045 493.157,67.8092 493.603,66.6021 494.05,66.6021 494.496,67.0045 494.942,67.4068 495.389,67.0045 495.835,67.4068 496.282,67.0045 496.728,66.6021 497.174,67.0045 497.621,67.0045 498.067,67.4068 498.514,67.0045 498.96,67.0045 499.406,67.4068 499.853,66.6021 500.299,67.0045 500.746,67.0045 501.192,66.6021 501.638,67.0045 502.085,67.0045 502.531,67.0045 502.978,67.0045 503.424,67.0045 503.87,67.4068 504.317,67.4068 504.763,67.0045 505.21,67.0045 505.656,66.6021 506.102,66.6021 506.549,66.6021 506.995,67.0045 507.442,66.6021 507.888,67.0045 508.334,67.0045 508.781,66.6021 509.227,66.6021 509.674,66.6021 510.12,67.0045 510.566,67.0045 511.013,66.6021 511.459,66.6021 511.906,67.0045 512.352,66.6021 512.798,67.0045 513.245,66.6021 513.691,67.0045 514.138,66.6021 514.584,66.6021 515.03,67.0045 515.477,66.6021 515.923,66.6021 516.37,66.6021 516.816,66.6021 517.262,66.6021 517.709,66.6021 518.155,66.6021 518.602,66.6021 519.048,66.6021 519.494,66.6021 519.941,66.6021 520.387,66.6021 520.834,66.6021 521.28,67.0045 521.726,66.6021 521.726,66.6021"/>
<polyline fill="none" stroke="#262626" stroke-width="0.5" stroke-linecap="butt" stroke-linejoin="miter" stroke-opacity="0.15" stroke-dasharray="16,0" points="74.88,384.48 74.88,32.4"/>
<text fill="#000000" x="298.08" y="22.4" font-size="11" text-anchor="middle" dy="0" font-family="Helvetica" font-weight="bold">40uf Capacitor charge time with 2 parallel battery pack of 33 coin cell in series</text>
</g>
<clipPath id="cp00576432">
  <polygon points="0,432 576,432 576,0 0,0"/>
</clipPath>
<g clip-path="url(#cp00576432)">
<polygon fill="#ffffff" shape-rendering="crispEdges" points="445.887,35.5571 518.123,88.2286 518.123,35.5571"/>
<polygon fill="#ffffff" shape-rendering="crispEdges" points="445.887,35.5571 445.887,88.2286 518.123,88.2286"/>
<polyline fill="none" stroke="#262626" stroke-width="0.5" stroke-linecap="butt" stroke-linejoin="miter" stroke-dasharray="16,0" points="445.887,35.5571 518.123,35.5571"/>
<polyline fill="none" stroke="#262626" stroke-width="0.5" stroke-linecap="butt" stroke-linejoin="miter" stroke-dasharray="16,0" points="445.887,88.2286 445.887,35.5571"/>
<polyline fill="none" stroke="#262626" stroke-width="0.5" stroke-linecap="butt" stroke-linejoin="miter" stroke-dasharray="16,0" points="518.123,88.2286 518.123,35.5571"/>
<text fill="#000000" x="475.88" y="44.3357" font-size="10" text-anchor="start" dy="5" font-family="Helvetica">CR2016</text>
<text fill="#000000" x="475.88" y="61.8929" font-size="10" text-anchor="start" dy="5" font-family="Helvetica">CR2025</text>
<text fill="#000000" x="475.88" y="79.45" font-size="10" text-anchor="start" dy="5" font-family="Helvetica">CR2032</text>
<polyline fill="none" stroke="#0071bc" stroke-width="0.5" stroke-linecap="butt" stroke-linejoin="miter" points="449.044,44.3357 472.723,44.3357"/>
<polyline fill="none" stroke="#d85218" stroke-width="0.5" stroke-linecap="butt" stroke-linejoin="miter" points="449.044,61.8929 472.723,61.8929"/>
<polyline fill="none" stroke="#ecb01f" stroke-width="0.5" stroke-linecap="butt" stroke-linejoin="miter" points="449.044,79.45 472.723,79.45"/>
<polyline fill="none" stroke="#262626" stroke-width="0.5" stroke-linecap="butt" stroke-linejoin="miter" stroke-dasharray="16,0" points="445.887,88.2286 518.123,88.2286"/>
</g>
</g>
</svg>
